<svg version="1.1" id="Layer_1" x="0px" y="0px"
	 width="464px" height="600px" viewBox="0 0 464 600" enable-background="new 0 0 464 600" xml:space="preserve">

<g>
	<g>
		<path fill="none" stroke="#000000" stroke-miterlimit="10" d="M212.818,344.764c-5.593,8.297-13.494,16.901-13.406,27.495
			c0.063,7.692,5.038,12.907,12.498,14.033c7.821,1.181,16.165-1.101,23.381-3.974c11.033-4.394,20.934-12.142,30.059-19.592
			c6.102-4.982,11.83-10.354,17.504-15.812c5.801-5.578,12.039-11.173,17.035-17.493c0.271-0.341-0.134-0.745-0.475-0.475
			c-5.659,4.477-10.598,10.027-15.782,15.041c-5.233,5.063-10.641,9.955-16.181,14.684c-9.695,8.273-20.391,16.629-32.253,21.559
			c-7.338,3.049-16.09,5.479-24.06,3.938c-10.042-1.94-11.963-12.674-8.408-21.041c1.578-3.715,3.864-7.118,6.115-10.449
			c1.647-2.437,3.586-4.868,4.408-7.731C213.331,344.677,212.964,344.546,212.818,344.764L212.818,344.764z"/>
	</g>
</g>
<g>
	<g>
		<path fill="none" stroke="#000000" stroke-miterlimit="10" d="M283.775,345.576c0.017-0.108-0.276,0.148,0.285-0.006
			c0.369-0.103,0.719-0.286,1.094-0.389c1.375-0.371,2.82-0.527,4.229-0.701c4.002-0.489,8.047-0.682,12.07-0.857
			c7.095-0.311,14.136-0.208,21.224-0.023c9.082,0.234,19.473-2.734,23.893-11.391c4.493-8.803-0.906-18.408-7.181-24.652
			c-2.271-2.262-5.04-4.785-8.19-5.66c-0.611-0.17-1.014,0.731-0.438,1.035c9.203,4.827,19.351,17.09,14.646,28.034
			c-4.144,9.636-16.096,11.095-25.21,10.522c-7.427-0.465-14.993-0.086-22.411,0.334c-3.623,0.203-7.275,0.482-10.854,1.115
			c-1.213,0.215-4.16,0.525-4.099,2.276c0.008,0.216,0.106,0.388,0.243,0.546C283.27,345.984,283.729,345.881,283.775,345.576
			L283.775,345.576z"/>
	</g>
</g>
<g>
	<g>
		<path fill="none" stroke="#000000" stroke-miterlimit="10" d="M111.279,342.691c0.171,0,0.171-0.267,0-0.267
			C111.108,342.425,111.108,342.691,111.279,342.691L111.279,342.691z"/>
	</g>
</g>
<g>
	<g>
		<path fill="none" stroke="#000000" stroke-miterlimit="10" d="M109.191,341.982c11.142,8.569,21.071,18.543,31.488,27.949
			c4.952,4.473,10.21,8.651,15.757,12.364c4.401,2.944,9.101,5.894,14.229,7.377c5.577,1.614,10.571-0.313,11.951-6.21
			c1.567-6.695-0.612-14.357-2.718-20.686c-5.717-17.178-17.752-32.313-32.915-42.144c-0.45-0.292-1,0.404-0.578,0.748
			c5.539,4.507,10.947,9.134,15.757,14.427c4.396,4.84,7.795,10.233,10.895,15.959c3.671,6.78,6.336,14.36,7.574,21.975
			c0.763,4.691,1.477,13.828-5.113,14.609c-4.152,0.492-8.53-1.842-12.025-3.758c-6.184-3.391-11.867-7.484-17.303-11.966
			c-12.416-10.235-23.264-22.353-36.315-31.821C109.16,340.287,108.513,341.461,109.191,341.982L109.191,341.982z"/>
	</g>
</g>
<g>
	<g>
		<path fill="none" stroke="#000000" stroke-miterlimit="10" d="M178.752,387.477c2.306,5.715,11.149,6.701,16.343,5.98
			c3.426-0.475,6.694-1.559,9.684-3.305c2.452-1.432,5.741-3.844,6.45-6.75c0.136-0.56-0.508-0.891-0.921-0.536
			c-2.092,1.795-3.544,3.909-5.947,5.424c-2.604,1.642-5.575,2.644-8.585,3.209c-3.035,0.569-6.227,0.438-9.203-0.362
			c-2.896-0.781-4.644-2.63-6.983-4.304C179.2,386.555,178.568,387.021,178.752,387.477L178.752,387.477z"/>
	</g>
</g>
<g>
	<g>
		<path fill="none" stroke="#000000" stroke-miterlimit="10" d="M226.218,384.861c5.651,7.596,15.837,10.265,24.784,11.271
			c9.41,1.06,19.928,0.34,28.684-3.507c9.023-3.963,16.643-11.939,21.822-20.15c5.142-8.148,8.066-18.295,4.104-27.518
			c-0.852-1.982-2.088-3.811-3.559-5.382c-0.71-0.759-2.104,0.274-1.46,1.126c3.033,4.008,4.866,8.174,4.94,13.263
			c0.072,4.933-1.59,9.8-3.774,14.156c-4.456,8.887-12.015,16.789-20.7,21.618c-8.119,4.516-18.396,5.201-27.479,4.636
			c-9.34-0.581-19.685-3.175-25.98-10.576C226.955,383.041,225.622,384.063,226.218,384.861L226.218,384.861z"/>
	</g>
</g>
<g>
	<g>
		<path fill="none" stroke="#000000" stroke-miterlimit="10" d="M253.041,370.465c-0.837,6.297,5.613,9.508,10.878,9.967
			c5.505,0.479,11.041-1.563,14.376-6.05c2.956-3.975,4.301-9.163,3.083-14.021c-1.196-4.782-5.835-8.379-10.797-7.912
			c-0.626,0.059-0.806,0.938-0.151,1.128c4.243,1.235,7.832,2.672,9.168,7.274c1.164,4.002-0.137,8.455-2.365,11.828
			c-2.635,3.99-6.944,5.75-11.594,5.922c-2.603,0.098-5.236-0.438-7.502-1.734c-2.547-1.458-3.238-3.899-3.761-6.583
			C254.216,369.46,253.133,369.773,253.041,370.465L253.041,370.465z"/>
	</g>
</g>
<g>
	<g>
		<path fill="none" stroke="#000000" stroke-miterlimit="10" d="M260,364.459c-1.027,3.742,1.553,7.686,5.361,8.249
			c2.902,0.431,6.756-1.156,7.801-4.067c1.902-5.305-4.309-12.379-9.788-9.617c-0.447,0.227-0.179,0.808,0.229,0.853
			c3.899,0.426,7.965,2.074,8.088,6.663c0.062,2.236-1.76,3.521-3.702,4.068c-4.442,1.252-6.294-2.137-6.569-5.955
			C261.361,363.859,260.227,363.641,260,364.459L260,364.459z"/>
	</g>
</g>
<g>
	<g>
		<path fill="none" stroke="#000000" stroke-miterlimit="10" d="M227.923,397.252c2.56-1.747,6.396-0.835,9.159-0.188
			c4.479,1.047,8.816,2.732,13.098,4.385c7.825,3.018,15.969,7.314,24.396,8.282c21.76,2.496,41.532-11.788,48.913-31.875
			c0.235-0.645,0.355-1.351,0.501-2.021c0.123-0.567-0.641-0.92-0.949-0.399c-2.777,4.648-4.826,9.599-7.987,14.041
			c-3.21,4.512-7.229,8.451-11.817,11.551c-8.549,5.774-20.414,8.601-30.611,6.483c-8.896-1.847-17.328-6.21-25.825-9.313
			c-3.998-1.461-8.116-2.833-12.348-3.418c-2.523-0.35-5.378-0.447-7.403,1.339C226.434,396.658,227.244,397.715,227.923,397.252
			L227.923,397.252z"/>
	</g>
</g>
<g>
	<g>
		<path fill="none" stroke="#000000" stroke-miterlimit="10" d="M99.872,351.657c4.546-2.694,9.949-3.45,14.603-0.607
			c3.797,2.32,4.898,7.159,5.536,11.232c0.743,4.747,0.919,9.434,2.399,14.052c1.452,4.531,3.937,8.676,7.197,12.132
			c6.009,6.369,14.517,8.858,22.993,9.564c5.407,0.45,20.292-0.126,17.425-9.128c-0.225-0.707-1.167-0.525-1.235,0.166
			c-0.138,1.389-0.033,2.57-0.966,3.729c-0.615,0.764-1.449,1.295-2.298,1.758c-1.815,0.987-4.011,1.354-6.038,1.567
			c-4.118,0.437-8.365,0.02-12.421-0.731c-9.47-1.755-17.226-7.344-21.465-16.046c-3.905-8.015-2.188-17.502-6.32-25.336
			c-1.745-3.31-4.905-5.313-8.506-6.055c-3.601-0.739-8.923-0.029-11.434,3.016C99.039,351.337,99.42,351.925,99.872,351.657
			L99.872,351.657z"/>
	</g>
</g>
<g>
	<g>
		<path fill="none" stroke="#000000" stroke-miterlimit="10" d="M144.53,373.482c-9.606,12.1,15.286,27.584,23.321,13.705
			c0.573-0.989-0.895-1.823-1.518-0.888c-3.609,5.423-9.957,5.482-15.248,2.479c-5.344-3.035-8.194-8.698-5.513-14.491
			C145.866,373.654,145.033,372.852,144.53,373.482L144.53,373.482z"/>
	</g>
</g>
<g>
	<g>
		<path fill="none" stroke="#000000" stroke-miterlimit="10" d="M105.198,384.346c-0.5,3.178,0.481,6.969,1.073,10.103
			c0.644,3.403,1.587,6.728,3.235,9.789c3.447,6.402,10.523,10.188,17.542,11.127c7.773,1.037,16.143-0.871,23.321-3.771
			c6.139-2.479,14.27-6.592,17.189-12.946c0.242-0.526-0.401-1.132-0.847-0.653c-4.902,5.249-10.125,9.088-16.854,11.745
			c-6.664,2.632-13.935,4.211-21.119,3.797c-7.056-0.407-13.976-4.089-17.54-10.286c-1.634-2.841-2.467-6.111-3.148-9.29
			c-0.664-3.1-0.772-6.887-2.345-9.678C105.596,384.085,105.236,384.102,105.198,384.346L105.198,384.346z"/>
	</g>
</g>
<g>
	<g>
		<path fill="none" stroke="#000000" stroke-miterlimit="10" d="M206.305,394.626c1.716,1.503,4.255-0.245,5.781-1.382
			c1.733-1.29,4.22-3.648,3.704-6.04c-0.077-0.354-0.524-0.42-0.764-0.202c-1.442,1.309-2.233,3.143-3.741,4.456
			c-1.488,1.297-3.235,1.595-4.887,2.45C206.146,394.038,206.089,394.438,206.305,394.626L206.305,394.626z"/>
	</g>
</g>
<g>
	<g>
		<path fill="none" stroke="#000000" stroke-miterlimit="10" d="M176.398,391.977c-0.066,1.875,1.536,2.906,3.059,3.856
			c1.908,1.191,5.442,3.04,7.658,1.812c0.343-0.189,0.309-0.673,0-0.87c-0.753-0.482-1.628-0.626-2.481-0.86
			c-1.312-0.359-2.547-0.874-3.748-1.51c-0.867-0.461-1.67-1.025-2.408-1.67c-0.244-0.213-0.458-0.459-0.667-0.705
			c-0.093-0.123-0.203-0.228-0.332-0.312c-0.277-0.136-0.258-0.101,0.055,0.105C177.352,391.186,176.421,391.328,176.398,391.977
			L176.398,391.977z"/>
	</g>
</g>
<g>
	<g>
		<path fill="none" stroke="#000000" stroke-miterlimit="10" d="M331.628,360.238c1.374,0.068,2.619-1.139,3.743-1.838
			c1.846-1.148,3.76-2.152,5.752-3.021c2.144-0.936,4.396-1.581,6.722-1.854c2.223-0.26,4.427,0.36,6.612,0.059
			c0.544-0.075,0.508-0.818,0.14-1.064c-3.674-2.441-9.818-0.74-13.54,0.799c-2.092,0.865-4.018,2.076-5.9,3.32
			c-1.221,0.805-3.305,1.828-3.757,3.297C331.351,360.091,331.479,360.23,331.628,360.238L331.628,360.238z"/>
	</g>
</g>
<g>
	<g>
		<path fill="none" stroke="#000000" stroke-miterlimit="10" d="M331.047,365.038c3.499-0.127,7.144-1.753,10.606-2.397
			c2.118-0.395,4.301-0.41,6.429-0.096c2.36,0.35,4.352,1.596,6.604,2.237c0.703,0.2,1.259-0.722,0.72-1.234
			c-3.144-2.979-8.387-3.45-12.497-3.046c-2.142,0.212-4.181,0.805-6.217,1.471c-1.942,0.635-4.112,1.239-5.842,2.346
			C330.541,364.516,330.646,365.053,331.047,365.038L331.047,365.038z"/>
	</g>
</g>
<g>
	<g>
		<path fill="none" stroke="#000000" stroke-miterlimit="10" d="M299.581,438.626c-11.075-6.824-23.538-9.771-36.397-7.291
			c-6.789,1.31-13.416,3.816-20.037,5.783c-6.811,2.023-13.659,3.918-20.603,5.426c-7.237,1.571-14.575,2.59-21.968,3.013
			c-3.668,0.21-7.408,0.343-11.076,0.096c-3.999-0.27-7.949-1.22-11.881-1.942c-6.724-1.238-13.86-1.869-20.292,0.96
			c-4.949,2.178-8.798,5.938-11.65,10.48c-5.165,8.23-6.865,20.258-2.044,29.023c3.603,6.552,11.2,7.89,18.042,7.337
			c8.723-0.703,17.17-3.78,25.429-6.476c3.735-1.218,7.483-2.443,11.322-3.3c6.683-1.49,13.968-1.355,20.784-1.407
			c15.823-0.121,31.59,1.629,47.304,3.282c7.328,0.771,14.592,1.375,21.975,1.059c12.414-0.531,31.238-4.191,28.678-20.599
			c-1.6-10.244-9.421-19.592-17.581-25.447c-0.71-0.51-1.599,0.646-0.933,1.208c8.071,6.81,17.479,16.972,16.915,28.389
			c-0.364,7.361-7.424,11.002-13.693,12.716c-7.728,2.112-16.019,2.191-23.967,1.826c-10.782-0.496-21.517-2.167-32.267-3.099
			c-7.842-0.68-15.703-1.133-23.575-1.21c-7.337-0.072-14.963-0.05-22.226,1.099c-8.037,1.271-15.767,4.626-23.535,6.941
			c-7.605,2.267-16.667,4.89-24.496,2.229c-9.718-3.304-10.105-16.338-7.973-24.574c1.535-5.93,4.957-11.493,9.829-15.242
			c6.267-4.822,14.233-4.913,21.704-3.728c3.5,0.557,6.96,1.342,10.463,1.882c3.688,0.57,7.38,0.563,11.102,0.479
			c7.091-0.159,14.154-0.984,21.13-2.238c14.126-2.539,27.69-7.246,41.45-11.199c13.754-3.951,27.012-1.026,39.295,5.848
			C299.672,440.432,300.42,439.144,299.581,438.626L299.581,438.626z"/>
	</g>
</g>
<g>
	<g>
		<path fill="none" stroke="#000000" stroke-miterlimit="10" d="M319.703,488.974c4.869-3.271,9.536-8.034,12.598-13.034
			c3.573-5.836,4.009-12.85,2.485-19.39c-1.538-6.606-5.369-12.516-9.726-17.608c-4.495-5.259-10.527-10.986-16.957-13.779
			c-0.596-0.259-1.328,0.472-0.753,0.976c4.883,4.261,10.223,7.716,14.724,12.456c4.622,4.868,8.428,10.612,10.422,17.057
			c2,6.464,1.532,13.438-1.757,19.378c-2.945,5.317-7.942,8.501-11.718,13.063C318.64,488.552,319.136,489.354,319.703,488.974
			L319.703,488.974z"/>
	</g>
</g>
<g>
	<g>
		<path fill="none" stroke="#000000" stroke-miterlimit="10" d="M141.761,442.809c-3.424,3.771-5.563,8.668-7.35,13.377
			c-2.176,5.737-3.634,11.788-4.081,17.914c-0.786,10.79,3.815,24.105,16.414,25.047c0.925,0.068,0.976-1.237,0.206-1.521
			c-5.306-1.941-9.657-3.94-12.377-9.188c-2.412-4.65-2.625-10.244-2.226-15.357c0.826-10.576,5.042-20.542,10.151-29.704
			C142.751,442.921,142.128,442.404,141.761,442.809L141.761,442.809z"/>
	</g>
</g>
<g>
	<g>
		<path fill="none" stroke="#000000" stroke-miterlimit="10" d="M92.554,355.35c0.118-2.654-2.394-5.59-3.645-7.777
			c-2.104-3.682-4.123-7.711-3.953-12.057c0.25-6.386,3.289-11.924,8.597-15.457c4.713-3.138,10.464-4.498,15.97-5.439
			c5.434-0.93,11.141-0.821,16.452-2.29c0.674-0.187,0.513-1.16-0.161-1.188c-5.902-0.258-12.074,0.711-17.884,1.743
			c-5.984,1.063-12.093,2.864-16.987,6.599c-4.936,3.767-7.417,9.3-7.908,15.397c-0.337,4.181,1.268,8.062,3.206,11.672
			c1,1.865,2.2,3.62,3.299,5.427c0.749,1.229,1.338,2.563,2.227,3.697C92.034,356.016,92.538,355.707,92.554,355.35L92.554,355.35z"
			/>
	</g>
</g>
<g>
	<g>
		<path fill="none" stroke="#000000" stroke-miterlimit="10" d="M185.875,504.245c4.927-0.716,9.774-2.32,14.659-3.319
			c5.155-1.053,10.371-1.805,15.619-2.192c4.73-0.351,9.481-0.284,14.206,0.104c5.343,0.439,10.497,1.887,15.805,2.466
			c0.585,0.063,0.85-0.893,0.307-1.128c-4.478-1.939-9.486-2.563-14.302-3.11c-5.315-0.604-10.683-0.626-16.016-0.278
			c-4.819,0.313-9.606,1.038-14.343,1.959c-5.396,1.048-11.201,2.1-16.288,4.22C184.728,503.295,185.021,504.369,185.875,504.245
			L185.875,504.245z"/>
	</g>
</g>
<g>
	<g>
		<path fill="none" stroke="#000000" stroke-miterlimit="10" d="M224.229,504.884c1.753,4.374,7.574,10.12,12.804,9.229
			c0.529-0.09,0.656-0.967,0.154-1.186c-3.041-1.326-5.665-2.078-8.169-4.423c-1.414-1.323-2.6-2.895-4.058-4.048
			C224.663,504.223,224.046,504.427,224.229,504.884L224.229,504.884z"/>
	</g>
</g>
<g>
	<path fill="none" stroke="#000000" stroke-miterlimit="10" d="M396.807,375.475c0.04,20.295-3.864,40.591-11.394,59.494
		c-7.511,18.919-18.83,36.368-33.083,51.063c-7.131,7.34-14.968,14.029-23.456,19.802c-4.235,2.896-8.615,5.586-13.12,8.054
		c-4.517,2.444-9.155,4.666-13.895,6.654c-18.945,7.987-39.563,11.956-60.088,11.797c-20.534-0.185-40.988-4.474-59.779-12.542
		c-9.397-4.026-18.383-8.981-26.791-14.758c-8.426-5.748-16.284-12.308-23.452-19.543c-7.197-7.211-13.628-15.162-19.331-23.595
		c-5.694-8.44-10.561-17.445-14.497-26.846c-1.968-4.698-3.704-9.497-5.199-14.369c-1.517-4.865-2.806-9.806-3.842-14.801
		c-2.077-9.994-3.162-20.185-3.262-30.422c-0.217-20.41,3.501-40.994,11.284-59.997c7.711-19.023,19.246-36.521,33.758-51.105
		c14.48-14.61,31.857-26.369,50.867-34.332c19.007-8,39.627-12.021,60.261-12.006c20.563,0.076,41.211,4.126,60.151,12.19
		c18.979,7.982,36.216,19.924,50.443,34.649c14.239,14.72,25.559,32.174,33.066,51.1
		C392.979,334.873,396.87,355.174,396.807,375.475z M396.307,375.473c-0.044-10.115-1.032-20.229-3.062-30.132
		c-2.063-9.892-5.043-19.599-9.077-28.849c-7.998-18.523-19.682-35.376-34.11-49.305c-7.205-6.976-15.097-13.205-23.459-18.676
		c-4.187-2.729-8.505-5.249-12.934-7.552c-4.417-2.322-8.947-4.426-13.567-6.3c-9.248-3.734-18.838-6.607-28.617-8.509
		c-9.789-1.901-19.729-2.829-29.725-2.796c-9.927,0.025-19.909,0.962-29.67,2.896c-9.769,1.929-19.34,4.828-28.562,8.59
		c-18.44,7.544-35.37,18.787-49.538,32.844c-14.156,14.064-25.623,30.873-33.419,49.298c-3.89,9.215-6.891,18.811-8.957,28.615
		c-2.056,9.811-3.139,19.818-3.253,29.881c-0.174,20.056,3.459,40.279,11.19,58.9c3.825,9.319,8.576,18.262,14.155,26.659
		c5.569,8.406,12.064,16.188,19.195,23.307c7.162,7.093,15.035,13.458,23.449,18.981c8.431,5.499,17.392,10.161,26.713,13.895
		c18.641,7.492,38.719,11.163,58.712,10.951c10.002-0.057,19.978-1.123,29.772-3.052c9.793-1.953,19.384-4.88,28.632-8.646
		c4.621-1.894,9.149-4.015,13.563-6.354c4.427-2.316,8.743-4.85,12.927-7.59c8.352-5.5,16.245-11.734,23.445-18.724
		c14.414-13.955,26.097-30.813,34.095-49.343c4.033-9.253,7.007-18.965,9.066-28.857
		C395.294,395.702,396.272,385.589,396.307,375.473z"/>
</g>
<g>
	<g>
		<path fill="none" stroke="#000000" stroke-miterlimit="10" d="M150.814,378.693c0.116,0,0.116-0.18,0-0.18
			C150.698,378.514,150.698,378.693,150.814,378.693L150.814,378.693z"/>
	</g>
</g>
<g>
	<g>
		<path fill="none" stroke="#000000" stroke-miterlimit="10" d="M150.721,378.943c0.194,0.031,0.388,0.059,0.583,0.084
			c0.525,0.002,0.439-0.037-0.259-0.118c-0.375,0.309-0.654,0.717-0.926,1.112c-0.464,0.677-0.644,1.521-0.651,2.326
			c-0.016,1.743,1.347,3.168,2.735,4.012c3.021,1.838,9.152,1.209,9.639-3.104c0.062-0.543-0.63-0.668-0.96-0.396
			c-1.081,0.886-1.746,1.947-3.135,2.435c-1.15,0.401-2.382,0.281-3.526-0.06c-2.868-0.852-3.633-3.276-1.671-5.478
			c0.248-0.278,0.31-0.646,0.126-0.979c-0.576-1.045-0.846-0.855-1.954-0.512C150.417,378.359,150.354,378.891,150.721,378.943
			L150.721,378.943z"/>
	</g>
</g>
<g>
	<g>
		<path fill="none" stroke="#000000" stroke-miterlimit="10" d="M142.333,462.679c0.015,0,0.015-0.022,0-0.022
			S142.318,462.679,142.333,462.679L142.333,462.679z"/>
	</g>
</g>
<g>
	<g>
		<path fill="none" stroke="#000000" stroke-miterlimit="10" d="M142.759,466.426c2.965-3.048,7.038-4.418,11.069-5.426
			c5.142-1.286,10.468-1.8,15.738-2.229c11.702-0.953,23.403-1.969,35.108-2.879c16.234-1.263,32.533-1.713,48.803-0.931
			c5.85,0.281,11.643,0.709,17.422,1.642c5.125,0.827,10.233,1.743,15.393,2.343c8.193,0.95,19.189,1.726,25.326-4.997
			c0.755-0.828-0.475-2.063-1.232-1.232c-6.838,7.497-20.234,5.137-29.072,3.834c-4.886-0.721-9.734-1.678-14.631-2.314
			c-6.633-0.863-13.386-1.068-20.063-1.265c-16.283-0.475-32.579,0.353-48.796,1.789c-5.84,0.519-11.659,1.229-17.51,1.605
			c-5.064,0.327-10.132,0.6-15.181,1.125c-4.863,0.507-9.748,1.227-14.431,2.665c-3.296,1.014-6.918,2.576-8.884,5.54
			C141.432,466.273,142.288,466.909,142.759,466.426L142.759,466.426z"/>
	</g>
</g>
<g>
	<g>
		<path fill="none" stroke="#000000" stroke-miterlimit="10" d="M169.199,446.341c-0.378,0.25-0.413-0.592-0.461,0.059
			c-0.02,0.268-0.117,0.475-0.152,0.733c-0.097,0.724-0.205,1.443-0.291,2.168c-0.168,1.43-0.949,3.438-0.433,4.829
			c0.12,0.324,0.548,0.507,0.816,0.216c0.759-0.825,0.769-2.042,0.927-3.106c0.172-1.15,0.322-2.306,0.371-3.469
			c0.017-0.397-0.215-2.85-1.176-2.11C168.41,445.96,168.764,446.629,169.199,446.341L169.199,446.341z"/>
	</g>
</g>
<g>
	<g>
		<path fill="none" stroke="#000000" stroke-miterlimit="10" d="M200.103,448.938c-0.438,0.227-0.768,0.312-0.995,0.785
			c-0.206,0.433-0.224,0.918-0.153,1.384c0.166,1.094,0.781,2.9,1.949,3.239c0.247,0.071,0.426-0.122,0.455-0.347
			c0.109-0.847-0.591-1.722-0.875-2.502c-0.166-0.455-0.347-1.482,0.079-1.771C201.051,449.398,200.63,448.667,200.103,448.938
			L200.103,448.938z"/>
	</g>
</g>
<g>
	<g>
		<path fill="none" stroke="#000000" stroke-miterlimit="10" d="M226.687,448.354c0.785-0.669,2.208,3.429,2.542,3.902
			c0.302,0.43,0.893,0.252,0.946-0.256c0.153-1.458-0.615-3.093-1.515-4.206c-0.328-0.405-0.814-0.726-1.336-0.781
			c-0.56-0.06-0.956,0.271-1.343,0.635C225.504,448.093,226.203,448.767,226.687,448.354L226.687,448.354z"/>
	</g>
</g>
<g>
	<g>
		<path fill="none" stroke="#000000" stroke-miterlimit="10" d="M253.74,446.347c0.462,0.96,1.144,1.781,1.801,2.611
			c0.709,0.894,1.505,2.285,2.574,2.749c0.281,0.123,0.664-0.014,0.652-0.374c-0.039-1.132-1.006-2.063-1.684-2.9
			c-0.734-0.906-1.561-1.771-2.157-2.778C254.471,444.881,253.359,445.557,253.74,446.347L253.74,446.347z"/>
	</g>
</g>
<g>
	<g>
		<path fill="none" stroke="#000000" stroke-miterlimit="10" d="M280.854,444.535c1.334,0.462,2.213,1.462,2.752,2.745
			c0.485,1.152,0.301,2.595,0.971,3.635c0.199,0.31,0.654,0.327,0.85,0c0.826-1.378,0.002-3.528-0.681-4.829
			c-0.726-1.38-2.109-2.283-3.597-2.621C280.445,443.306,280.18,444.302,280.854,444.535L280.854,444.535z"/>
	</g>
</g>
<g>
	<g>
		<path fill="none" stroke="#000000" stroke-miterlimit="10" d="M159.979,491.2c10.326-6.173,21.099-11.22,32.746-14.344
			c10.783-2.894,21.967-3.979,33.109-3.845c11.214,0.137,22.374,1.66,33.357,3.848c5.644,1.123,11.24,2.458,16.811,3.897
			c5.609,1.452,11.153,3.351,16.813,4.591c0.901,0.198,1.219-1.044,0.375-1.362c-5.398-2.05-11.159-3.385-16.74-4.849
			c-5.564-1.459-11.167-2.771-16.805-3.913c-11.133-2.254-22.445-3.701-33.81-3.903c-23.387-0.415-47.057,5.504-66.478,18.813
			C158.707,490.578,159.287,491.613,159.979,491.2L159.979,491.2z"/>
	</g>
</g>
<g>
	<g>
		<path fill="none" stroke="#000000" stroke-miterlimit="10" d="M63.5,65.723c-23.086,3.355-40.995,25.84-43.282,48.337
			c-0.94,9.25,1.334,20.288,9.125,26.187c8.361,6.332,18.996-0.011,24.375-7.104c5.557-7.326,9.456-16.868,9.574-26.144
			c0.007-0.51-0.44-0.972-0.957-0.957c-3.417,0.1-6.556,1.408-9.614,2.832c-3.027,1.409-6.297,3.653-9.719,3.823
			c-1.242,0.062-1.252,1.982,0,1.938c6.913-0.249,12.278-6.455,19.333-6.678c-0.319-0.319-0.638-0.638-0.957-0.957
			c-0.111,10.824-5.733,23.56-14.395,30.221c-4.335,3.335-10.296,4.841-15.3,2.173c-4.518-2.409-7.053-7.574-8.448-12.266
			c-3.401-11.44,0.216-24.305,5.972-34.343c6.186-10.787,16.14-19.663,27.882-23.898c2.198-0.792,4.464-1.45,6.748-1.942
			C64.651,66.768,64.286,65.609,63.5,65.723L63.5,65.723z"/>
	</g>
</g>
<g>
	<g>
		<path fill="none" stroke="#000000" stroke-miterlimit="10" d="M76.972,92.142c-1.442,4.238-1.438,8.972-1.612,13.399
			c-0.097,2.453-0.22,4.901-0.456,7.346c-0.182,1.882-0.899,3.908-0.848,5.791c0.034,1.236,2.02,1.193,1.893,0
			c-0.091-0.851-0.242-1.653-0.498-2.467c-0.14-0.443-0.757-0.443-0.896,0c-0.256,0.814-0.407,1.616-0.498,2.467
			c-0.127,1.193,1.859,1.236,1.893,0c0.043-1.588,0.596-3.281,0.797-4.876c0.307-2.434,0.4-4.896,0.497-7.345
			c0.186-4.695,0.496-9.273,1.123-13.931C78.487,91.623,77.28,91.235,76.972,92.142L76.972,92.142z"/>
	</g>
</g>
<g>
	<g>
		<path fill="none" stroke="#000000" stroke-miterlimit="10" d="M70.875,94.649c2.261-5.17,7.69-9.602,12.562-12.166
			c2.592-1.365,5.351-1.938,8.097-0.722c1.614,0.716,2.401,1.891,1.846,3.607c-1.302,4.021-6.451,7.167-9.76,9.313
			c-3.458,2.243-7.431,4.628-11.524,5.449c-1.024,0.206-0.75,1.754,0.24,1.771c9.901,0.175,24.618,11.069,31.968-0.531
			c0.45-0.711-0.575-1.484-1.153-0.89c-2.155,2.213-4.386,3.863-7.527,4.247c-2.65,0.324-5.365-0.297-7.914-0.96
			c-5.095-1.324-10.037-3.551-15.373-3.67c0.08,0.59,0.16,1.181,0.24,1.771c5.038-0.986,9.955-4.115,14.102-6.991
			c3.348-2.322,8.965-6.216,8.825-10.885c-0.159-5.313-8.06-5.252-11.414-3.803c-5.79,2.503-12.113,7.919-14.355,13.977
			C69.488,94.829,70.592,95.296,70.875,94.649L70.875,94.649z"/>
	</g>
</g>
<g>
	<g>
		<path fill="none" stroke="#000000" stroke-miterlimit="10" d="M113.377,73.834c-1.989,0.885-2.36,3.409-2.57,5.332
			c-0.354,3.238,0.087,6.679,1.158,9.748c0.885,2.54,2.353,4.454,4.934,5.317c2.17,0.727,4.611,0.489,6.432-0.946
			c4.008-3.16,4.725-9.441,5.244-14.143c0.302-2.737,0.414-5.493,0.494-8.243c0.044-1.494,0.487-3.509-0.234-4.857
			c-0.184-0.344-0.641-0.355-0.908-0.117c-0.848,0.757-0.686,1.997-0.718,3.048c-0.06,1.936-0.106,3.872-0.207,5.807
			c-0.246,4.72-0.636,9.834-2.723,14.152c-1.979,4.095-7.244,5.322-9.797,0.923c-1.402-2.417-1.786-5.507-1.916-8.245
			c-0.074-1.57-0.296-5.846,1.396-6.778C114.627,74.465,114.042,73.538,113.377,73.834L113.377,73.834z"/>
	</g>
</g>
<g>
	<g>
		<path fill="none" stroke="#000000" stroke-miterlimit="10" d="M138.426,63.159c0.289,1.236,0.067,2.812,0.096,4.078
			c0.057,2.494,0.112,4.988,0.145,7.482c0.009,0.706-0.521,8.476,1.115,8.025c0.859-0.236,0.814-1.695,0.821-2.349
			c0.024-2.234-0.021-4.469-0.058-6.702c-0.041-2.436-0.103-4.877-0.281-7.306c-0.087-1.178-0.125-2.638-0.746-3.689
			C139.167,62.103,138.273,62.504,138.426,63.159L138.426,63.159z"/>
	</g>
</g>
<g>
	<g>
		<path fill="none" stroke="#000000" stroke-miterlimit="10" d="M140.166,60.947c5.753,1.14,7.563,8.063,10.033,12.521
			c0.356,0.644,1.232,0.56,1.607,0c4.415-6.578,3.671-15.867,10.345-20.979c-0.436-0.114-0.872-0.229-1.307-0.343
			c1.802,3.893,1.478,8.432,1.229,12.602c-0.226,3.781-1.029,8.118,0.067,11.821c0.279,0.942,1.824,0.797,1.757-0.238
			c-0.283-4.404-0.028-8.678,0.195-13.083c0.207-4.081,0.153-8.297-1.598-12.065c-0.2-0.432-0.92-0.64-1.307-0.343
			c-7.158,5.498-6.322,14.677-10.988,21.688c0.536,0,1.072,0,1.607,0c-2.838-5.078-4.754-12.114-11.471-12.833
			C139.62,59.62,139.467,60.809,140.166,60.947L140.166,60.947z"/>
	</g>
</g>
<g>
	<g>
		<path fill="none" stroke="#000000" stroke-miterlimit="10" d="M173.744,49.503c-0.545,3.743-0.34,7.668-0.532,11.443
			c-0.121,2.383-0.3,4.771-0.651,7.132c-0.179,1.204-1.194,3.255-0.825,4.42c0.103,0.324,0.428,0.524,0.764,0.434
			c1.252-0.337,1.455-2.38,1.656-3.428c0.425-2.219,0.587-4.495,0.734-6.745c0.281-4.303,0.661-8.968,0.037-13.256
			C174.841,48.916,173.83,48.916,173.744,49.503L173.744,49.503z"/>
	</g>
</g>
<g>
	<g>
		<path fill="none" stroke="#000000" stroke-miterlimit="10" d="M173.316,50.203c2.907-2.127,6.609-3.53,10.187-3.899
			c2.004-0.207,4.041,0.216,5.175,2.009c0.845,1.334-0.394,2.95-1.27,3.879c-2.063,2.189-5.073,3.613-7.806,4.764
			c-1.112,0.469-2.255,0.859-3.395,1.257c-0.378,0.132-0.759,0.235-1.127,0.395c-0.125,0.055-0.281,0.07-0.413,0.104
			c-0.573,0.145,0.318,0.961,0.664,0.617c0.315-0.313-0.001-0.938-0.452-0.777c-0.577,0.207-1.171,0.638-0.64,1.274
			c0.596,0.715,2.335,0.065,3.012-0.12c4.035-1.101,8.422-3.32,11.407-6.265c3.052-3.011,2.375-7.257-1.905-8.608
			c-4.599-1.451-10.699,1.564-14.19,4.394C172.017,49.67,172.748,50.619,173.316,50.203L173.316,50.203z"/>
	</g>
</g>
<g>
	<g>
		<path fill="none" stroke="#000000" stroke-miterlimit="10" d="M198.671,40.233c1.774,1.222,3.036,4.022,4.156,5.794
			c1.887,2.983,3.848,5.935,6.117,8.644c3.278,3.915,10.244,8.945,14.456,3.228c0.231-0.314-0.155-0.824-0.521-0.677
			c-2.741,1.105-4.926,1.896-7.718,0.438c-2.862-1.496-5.047-4.324-6.926-6.866c-1.792-2.425-3.373-4.998-5.061-7.495
			c-1.019-1.507-2.108-3.429-3.842-4.199C198.566,38.759,197.965,39.746,198.671,40.233L198.671,40.233z"/>
	</g>
</g>
<g>
	<g>
		<path fill="none" stroke="#000000" stroke-miterlimit="10" d="M230.164,39.712c-3.453,0.836-6.029,4.903-7.993,7.568
			c-3.019,4.096-5.661,8.453-8.612,12.596c-3.663,5.142-7.312,10.219-10.683,15.573c-1.96,3.114-3.897,6.241-5.883,9.338
			c-1.956,3.05-4.256,5.98-5.982,9.162c-0.405,0.747,0.584,1.565,1.196,0.923c4.583-4.809,7.859-11.28,11.362-16.888
			c3.396-5.437,6.868-10.779,10.728-15.898c2.848-3.778,5.299-7.842,7.964-11.748c2.326-3.408,4.823-7.23,8.399-9.449
			C231.287,40.501,230.878,39.539,230.164,39.712L230.164,39.712z"/>
	</g>
</g>
<g>
	<g>
		<path fill="none" stroke="#000000" stroke-miterlimit="10" d="M290.73,47.205c-2.125,1.131-3.664,4.123-4.887,6.083
			c-1.958,3.139-3.677,6.422-5.391,9.697c-1.736,3.318-3.445,6.649-5.24,9.937c-1.236,2.263-3.47,4.75-4.042,7.275
			c-0.104,0.455,0.349,0.788,0.759,0.583c2.053-1.035,3.241-3.965,4.317-5.863c1.817-3.208,3.47-6.512,5.155-9.792
			c1.718-3.337,3.451-6.668,5.313-9.927c1.412-2.471,3.499-4.74,4.746-7.26C291.701,47.458,291.221,46.944,290.73,47.205
			L290.73,47.205z"/>
	</g>
</g>
<g>
	<g>
		<path fill="none" stroke="#000000" stroke-miterlimit="10" d="M270.15,46.615c4.936-8.271,16.088-11.368,25.041-12.373
			c8.291-0.931,19.14-0.398,25.03,6.391c5.014,5.775-2.515,11.648-7.047,14.438c-7.024,4.325-15.239,7.081-23.315,8.618
			c-3.188,0.606-6.738,1.152-9.961,0.478c0.068,0.526,0.138,1.053,0.207,1.579c7.123-3.583,16.515-2.579,24.01-0.897
			c3.765,0.845,7.513,2.084,10.851,4.043c2.132,1.251,4.693,3.234,4.535,5.979c-0.2,3.477-5.103,5.792-7.706,7.072
			c-4.91,2.416-10.65,3.051-16.043,3.316c-11.543,0.567-23.388-1.163-34.467-4.37c-0.695-0.202-1.395-0.391-2.087-0.601
			c-0.929-0.281-1.261,1.087-0.394,1.424c10.198,3.956,21.819,5.302,32.692,5.419c9.265,0.1,20.211-0.971,27.325-7.615
			c4.565-4.265,1.87-9.134-2.609-11.991c-6.474-4.128-14.959-5.554-22.501-5.81c-4.868-0.166-10.077,0.307-14.479,2.539
			c-0.651,0.331-0.515,1.431,0.207,1.579c6.395,1.316,13.752-0.832,19.808-2.726c7.235-2.264,14.892-5.45,20.474-10.729
			c4.306-4.07,5.339-9.461,0.955-13.891c-5.931-5.992-15.779-6.696-23.688-6.126c-9.93,0.715-22.665,4.283-27.803,13.691
			C268.841,46.684,269.782,47.235,270.15,46.615L270.15,46.615z"/>
	</g>
</g>
<g>
	<g>
		<path fill="none" stroke="#000000" stroke-miterlimit="10" d="M332.022,74.464c-3.194,2.222-5.313,6.32-7.164,9.626
			c-1.086,1.942-2.115,3.933-2.999,5.976c-0.36,0.834-1.186,2.25-0.541,3.139c0.142,0.196,0.337,0.241,0.556,0.146
			c0.86-0.374,1.146-1.635,1.494-2.403c0.839-1.842,1.726-3.655,2.678-5.442c1.9-3.565,3.994-7.075,6.729-10.067
			C333.231,74.94,332.626,74.044,332.022,74.464L332.022,74.464z"/>
	</g>
</g>
<g>
	<g>
		<path fill="none" stroke="#000000" stroke-miterlimit="10" d="M328.767,80.097c5.165-4.786,12.514-6.226,16.975,0.229
			c3.84,5.556,2.112,12.717-3.215,16.525c0.431,0.431,0.86,0.861,1.291,1.291c0.72-1.062,0.625-2.069,0.346-3.279
			c-0.113-0.494-0.867-0.485-0.986,0c-0.187,0.756-0.271,1.534-0.841,2.135c-0.715,0.755,0.227,2.102,1.145,1.482
			c6.536-4.418,8.136-12.975,3.614-19.471c-1.919-2.757-4.862-4.534-8.195-4.883c-4.27-0.448-8.15,2.225-10.992,5.108
			C327.352,79.797,328.191,80.63,328.767,80.097L328.767,80.097z"/>
	</g>
</g>
<g>
	<g>
		<path fill="none" stroke="#000000" stroke-miterlimit="10" d="M325.51,86.243c3.337,0.853,6.961,0.761,10.379,0.861
			c4.148,0.121,8.299,0.127,12.447,0.134c0-0.603,0-1.207,0-1.81c-1.419-0.002-2.776-0.021-4.131,0.43
			c-0.469,0.157-0.469,0.792,0,0.949c1.354,0.453,2.712,0.433,4.131,0.43c1.167-0.002,1.167-1.812,0-1.81
			c-7.563,0.013-15.108-0.244-22.667-0.36C324.994,85.059,324.854,86.076,325.51,86.243L325.51,86.243z"/>
	</g>
</g>
<g>
	<g>
		<path fill="none" stroke="#000000" stroke-miterlimit="10" d="M367.739,78.651c-2.837,4.271-4.426,9.477-6.699,14.06
			c-1.33,2.683-2.852,5.286-4.706,7.643c-1.143,1.452-3.578,2.718-3.584,4.646c-0.003,0.65,0.585,0.976,1.163,0.887
			c3.887-0.598,7.761,0.169,11.448,1.401c3.146,1.051,5.712,2.831,8.58,4.387c0.804,0.436,1.521-0.563,0.946-1.227
			c-2.189-2.529-5.947-3.893-9.021-4.991c-3.976-1.419-8.264-2.016-12.441-1.344c0.388,0.296,0.775,0.591,1.163,0.887
			c-0.002-0.66,1.182-1.381,1.65-1.866c0.844-0.873,1.582-1.845,2.305-2.819c1.698-2.289,3.035-4.841,4.285-7.395
			c2.195-4.485,4.24-9.134,6.175-13.737C369.321,78.426,368.148,78.035,367.739,78.651L367.739,78.651z"/>
	</g>
</g>
<g>
	<g>
		<path fill="none" stroke="#000000" stroke-miterlimit="10" d="M401.759,91.33c-5.756,9.583-11.476,19.009-19.413,27.014
			c-0.526,0.533-0.183,1.667,0.656,1.584c5.699-0.559,10.521,2.588,14.946,5.782c2.449,1.768,7.137,6.423,10.546,5.197
			c0.431-0.155,0.653-0.853,0.142-1.085c-1.729-0.786-3.411-1.364-5.03-2.405c-2.141-1.374-4.136-2.972-6.221-4.427
			c-4.243-2.962-9.062-5.453-14.383-4.917c0.219,0.528,0.438,1.056,0.656,1.584c4.1-4.158,7.702-8.784,11.066-13.547
			c3.081-4.361,6.527-9.161,8.256-14.265C403.229,91.11,402.141,90.694,401.759,91.33L401.759,91.33z"/>
	</g>
</g>
</svg>
