<svg version="1.1" id="Layer_1" x="0px" y="0px"
	 width="464px" height="600px" viewBox="0 0 464 600" enable-background="new 0 0 464 600" xml:space="preserve">
<image display="none" overflow="visible" opacity="0.06" enable-background="new    " width="1300" height="1022" xlink:href="B0296196.jpeg"  transform="matrix(0.34 0 0 0.34 18.8374 115.5864)">
</image>
<path fill="none" stroke="#000000" stroke-miterlimit="10" d="M410.459,411.692c-20.729,35.116-90.691,32.818-143.018-11.948
	c-20.799-17.793-32.928-48.734-48.746-64.547c-20.786-20.78-43.874-19.277-42.728-37.791c0.309-4.991,2.378-11.436,6.728-20.164
	c18.19-36.497,104.99-39.045,167.885-1.916C413.475,312.452,431.189,376.575,410.459,411.692z"/>
<path fill="none" stroke="#000000" stroke-miterlimit="10" d="M403.104,420.836c0,0-30.43,42.28-92.058,30.652
	c-43.589-8.226-77.519-56.641-80.233-60.465c-11.046-15.564-13.372-33.531-36.046-48.742
	c-22.674-15.211-18.799-44.875-18.799-44.875"/>
<g>
	<g>
		<path fill="none" stroke="#000000" stroke-miterlimit="10" d="M175.391,296.926c-12.137,0.515-24.14-2.216-36.301-0.999
			c-6.417,0.643-16.471,2.236-20.73,7.595c-1.926,2.422-0.512,5.717,1.743,7.201c3.162,2.082,7.593,1.687,11.097,2.828
			c3.991,1.303,11.753,3.954,10.792,9.354c-1.068,5.994-12.927,4.357-17.424,4.855c-16.476,1.822-33.505,0.465-49.373,6.178
			c-4.888,1.76-10.842,5.313-10.338,11.328c0.427,5.09,10.001,6.16,13.487,7.84c15.806,7.619-21.723,27.291-27.184,30.711
			c-1.104,0.69,0.612,0.811,1.169,0.463c7.104-4.449,14.49-8.367,21.292-13.301c4.299-3.119,12.847-9.199,9.895-15.567
			c-2.371-5.114-10.865-4.892-14.984-7.87c-3.04-2.198-1.624-6.338,0.374-8.714c2.93-3.485,8.356-4.82,12.553-5.875
			c17.01-4.274,34.996-3.255,52.353-4.737c6.217-0.531,14.582-5.531,7.28-11.512c-2.791-2.286-6.683-3.659-10.134-4.533
			c-4.59-1.162-11.947-0.697-11.391-7.331c0.58-6.912,20.535-8.206,25.143-8.311c9.99-0.227,19.915,1.807,29.901,1.383
			C175.248,297.883,176.687,296.871,175.391,296.926L175.391,296.926z"/>
	</g>
</g>
<g>
	<g>
		<path fill="none" stroke="#000000" stroke-miterlimit="10" d="M198.377,262.988c4.763-1.318,11.376-1.014,16.142,0.051
			c0.579,0.129,2.274-0.765,1.194-1.007c-5.294-1.183-12.299-1.411-17.579,0.051C196.985,262.4,197.225,263.307,198.377,262.988
			L198.377,262.988z"/>
	</g>
</g>
<g>
	<g>
		<path fill="none" stroke="#000000" stroke-miterlimit="10" d="M279.564,272.54c1.332-0.16,3.396,1.152,4.563,1.666
			c3.146,1.389,6.205,2.979,9.241,4.59c4.796,2.544,9.87,5.176,14.025,8.712c0.647,0.551,2.34-0.388,1.49-1.109
			c-5.009-4.262-11.253-7.305-17.062-10.301c-3.113-1.606-8.396-5.403-12.086-4.961C278.672,271.264,278.248,272.697,279.564,272.54
			L279.564,272.54z"/>
	</g>
</g>
<g>
	<g>
		<path fill="none" stroke="#000000" stroke-miterlimit="10" d="M178.036,283.922c-1.953,7.998,6.034,9.73,12.273,9.744
			c3.458,0.008,6.892-0.446,10.322-0.829c6.718-0.749,13.889,0.341,20.404,1.941c14.311,3.514,27.199,11.16,41.379,15.152
			c13.773,3.879,28.104,3.563,41.04-2.947c10.866-5.469,20.887-14.742,21.263-27.656c0.275-9.453-7.12-24.342-18.32-23.165
			c-0.705,0.074-0.733,1.089,0,1.117c12.283,0.466,18.346,16.472,16.182,26.806c-2.661,12.706-16.425,21.305-27.896,25.006
			c-30.035,9.692-55.74-14.969-84.688-17.379c-6.525-0.543-12.728,0.647-19.206,0.793c-5.627,0.126-13.234-0.935-11.846-8.333
			C179.05,283.585,178.181,283.329,178.036,283.922L178.036,283.922z"/>
	</g>
</g>
<image display="none" overflow="visible" opacity="0.28" enable-background="new    " width="188" height="188" xlink:href="B029619A.jpeg"  transform="matrix(0.7325 -0.6807 0.6807 0.7325 192.6465 302.1094)">
</image>
<g>
	<g>
		<path fill="none" stroke="#000000" stroke-miterlimit="10" d="M312.83,398.144c1.911-0.379,3.321-2.035,4.698-3.329
			c2.988-2.811,5.859-5.744,8.67-8.733c2.823-3.004,5.575-6.086,8.137-9.317c1.281-1.617,4.077-4.427,3.979-6.67
			c-0.019-0.41-0.588-0.753-0.895-0.369c-1.595,1.994-2.736,4.403-4.357,6.438c-2.588,3.246-5.399,6.316-8.243,9.339
			c-3.951,4.198-8.193,8.294-12.134,12.396C312.578,398.007,312.688,398.172,312.83,398.144L312.83,398.144z"/>
	</g>
</g>
<g>
	<g>
		<path fill="none" stroke="#000000" stroke-miterlimit="10" d="M313.126,395.921c1.813,2.068,4.896,3.541,7.236,4.937
			c2.78,1.657,5.891,3.124,9.129,3.558c6.596,0.882,13.306-2.334,16.662-8.104c5.516-9.479,0.222-24.062-9.948-27.951
			c-0.628-0.24-1.066,0.804-0.458,1.084c9.425,4.355,14.47,16.813,9.309,26.227c-3.342,6.096-10.88,8.658-17.386,7.003
			c-2.785-0.709-5.352-2.147-7.79-3.629c-1.992-1.209-4.109-3.187-6.415-3.703C313.116,395.262,312.896,395.658,313.126,395.921
			L313.126,395.921z"/>
	</g>
</g>
<g>
	<g>
		<path fill="none" stroke="#000000" stroke-miterlimit="10" d="M321.242,389.703c-1.807,2.781,1.977,5.162,4.241,6.044
			c4.308,1.679,9.569,1.237,12.527-2.694c2.674-3.553,2.169-8.275,0.059-11.965c-1.762-3.076-6.9-5.77-9.812-2.503
			c-0.23,0.261,0.002,0.585,0.315,0.542c1.658-0.225,2.95-0.984,4.688-0.617c1.721,0.363,2.963,1.711,3.858,3.133
			c1.773,2.814,1.957,6.906,0.325,9.795c-2.028,3.588-6.513,4.308-10.173,3.386c-1.373-0.347-6.579-2.544-5.491-4.806
			C321.955,389.657,321.463,389.361,321.242,389.703L321.242,389.703z"/>
	</g>
</g>
<g>
	<g>
		<path fill="none" stroke="#000000" stroke-miterlimit="10" d="M325.055,394.313c-0.882-0.178-0.594-1.375-1.635-1.559
			c0.123,0.303,0.245,0.604,0.368,0.906c1.074-1.85,2.817-3.475,5.103-2.858c2.359,0.636,1.929,3.132,2.188,4.96
			c0.033,0.233,0.404,0.328,0.549,0.146c1.65-2.098,0.313-5.264-1.951-6.246c-2.873-1.247-5.725,0.863-6.953,3.376
			c-0.181,0.371,0.027,0.987,0.532,0.928c0.047-0.006,0.338,0.394,0.45,0.438c0.418,0.173,0.837,0.322,1.294,0.314
			C325.228,394.715,325.29,394.359,325.055,394.313L325.055,394.313z"/>
	</g>
</g>
<g>
	<g>
		<path fill="none" stroke="#000000" stroke-miterlimit="10" d="M358.407,354.709c0.274,0.303-0.128,0.654,0.311,0.197
			c0.222-0.229,0.493-0.393,0.717-0.633c0.725-0.777,1.431-1.573,2.146-2.358c2.304-2.521,4.616-5.03,6.935-7.536
			c4.063-4.389,8.503-8.629,12.194-13.343c0.521-0.666-0.34-1.604-0.955-0.955c-4.393,4.631-8.629,9.426-12.947,14.126
			c-2.234,2.434-4.477,4.863-6.663,7.34c-0.649,0.736-2.479,2.27-2.398,3.421c0.013,0.188,0.111,0.302,0.28,0.369
			c0.005,0.001,0.009,0.003,0.014,0.005C358.417,355.493,358.64,354.964,358.407,354.709L358.407,354.709z"/>
	</g>
</g>
<g>
	<g>
		<path fill="none" stroke="#000000" stroke-miterlimit="10" d="M357.141,354.396c0.422,5.776,6.807,8.567,11.73,9.799
			c5.938,1.486,12.489,0.986,17.099-3.321c8.91-8.327,4.262-26.162-5.393-32.067c-0.651-0.397-1.438,0.574-0.828,1.073
			c7.864,6.444,13.438,19.662,6.334,28.698c-3.8,4.834-9.976,5.347-15.625,4.316c-4.833-0.883-11-3.396-12.496-8.609
			C357.835,353.843,357.105,353.913,357.141,354.396L357.141,354.396z"/>
	</g>
</g>
<g>
	<g>
		<path fill="none" stroke="#000000" stroke-miterlimit="10" d="M361.717,348c0.188,4.176,3.396,8.52,7.54,9.43
			c3.825,0.842,7.747-1.228,10.447-3.785c2.815-2.668,4.826-6.691,4.322-10.631c-0.626-4.892-5.146-7.625-9.425-9.053
			c-0.848-0.281-1.212,1.059-0.366,1.334c3.86,1.262,7.967,3.619,8.504,8.044c0.413,3.404-1.504,6.691-3.829,9.009
			c-2.317,2.309-5.49,3.992-8.832,3.707c-4.554-0.392-5.73-4.922-7.444-8.303C362.413,347.316,361.695,347.52,361.717,348
			L361.717,348z"/>
	</g>
</g>
<g>
	<g>
		<path fill="none" stroke="#000000" stroke-miterlimit="10" d="M364.503,351.641c0.583-1.619,2.416-1.811,3.662-0.762
			c0.572,0.482,0.815,1.141,0.6,1.862c-0.371,1.243-1.846,1.575-2.308,2.706c-0.112,0.275,0.164,0.504,0.403,0.529
			c0.894,0.094,1.646-0.668,2.233-1.268c0.5-0.511,0.89-1.157,1.055-1.854c0.27-1.14-0.245-2.279-1.118-3.008
			c-1.878-1.564-5.111-1.219-5.627,1.488C363.266,352.061,364.254,352.333,364.503,351.641L364.503,351.641z"/>
	</g>
</g>
<g>
	<g>
		<path fill="none" stroke="#000000" stroke-miterlimit="10" d="M362.963,378.643c0.337,0.424,0.575,0.977,0.839,1.449
			c0.325,0.584,0.518,1.21,1.213,1.417c0.212,0.063,0.4-0.075,0.472-0.268c0.247-0.675-0.182-1.269-0.491-1.847
			c-0.322-0.601-0.704-1.119-1.213-1.571C363.212,377.318,362.508,378.064,362.963,378.643L362.963,378.643z"/>
	</g>
</g>
<g>
	<g>
		<path fill="none" stroke="#000000" stroke-miterlimit="10" d="M229.07,255.698c-3.784-0.263-17.839,2.097-13.042,8.713
			c1.649,2.274,5.659,2.521,8.162,2.81c4.513,0.521,9.095,0.451,13.63,0.437c1.673-0.005,3.347-0.02,5.019,0.04
			c2.61,0.092,5.152,1.153,7.546,2.118c6.021,2.428,11.707,5.876,18.174,7.034c3.584,0.642,7.974,0.304,10.123-3.03
			c1.639-2.541,0.575-5.831-1.257-7.917c-1.753-1.995-4.502-2.827-7.075-2.841c-0.826-0.004-0.816,1.236,0,1.273
			c3.715,0.168,7.526,2.246,7.838,6.322c0.381,4.982-5.78,5.504-9.301,5c-9.508-1.36-17.369-9.011-27.093-9.205
			c-7.137-0.142-14.619,0.622-21.612-1.132c-1.141-0.286-2.54-0.717-3.265-1.715c-1.362-1.876,0.161-3.621,1.734-4.57
			c3.03-1.829,6.976-2.143,10.418-2.454C229.634,256.53,229.642,255.738,229.07,255.698L229.07,255.698z"/>
	</g>
</g>
<g>
	<g>
		<path fill="none" stroke="#000000" stroke-miterlimit="10" d="M367.101,412.295c-3.723-2.966-5.281-6.409-5.072-11.208
			c0.237-5.502,2.662-10.892,5.74-15.366c3.102-4.511,7.505-8.432,12.822-10.012c2.618-0.777,5.372-0.755,8.008-0.092
			c1.485,0.373,2.878,1.018,4.208,1.764c1.599,0.896,2.896,2.414,4.56,3.125c0.542,0.232,1.157-0.256,0.839-0.839
			c-1.461-2.674-5.522-4.455-8.29-5.386c-2.883-0.971-5.995-1-8.944-0.348c-5.96,1.319-10.824,5.808-14.29,10.621
			c-3.508,4.871-5.916,10.885-6.147,16.92c-0.168,4.365,1.475,10.116,6.237,11.389C367.076,412.944,367.379,412.517,367.101,412.295
			L367.101,412.295z"/>
	</g>
</g>
<g>
	<g>
		<path fill="none" stroke="#000000" stroke-miterlimit="10" d="M339.535,366.714c0.141,0,0.141-0.219,0-0.219
			C339.394,366.495,339.395,366.714,339.535,366.714L339.535,366.714z"/>
	</g>
</g>
<g>
	<g>
		<path fill="none" stroke="#000000" stroke-miterlimit="10" d="M356.747,380.206c1.53,1.466,4.527-1.156,5.715-2.108
			c1.437-1.15,3.811-2.931,4.355-4.798c0.058-0.196,0.002-0.454-0.157-0.592c-0.879-0.769-2.683,1.994-3.175,2.487
			c-1.076,1.08-2.23,2.092-3.483,2.959c-0.995,0.691-2.263,0.871-3.188,1.541C356.648,379.814,356.585,380.05,356.747,380.206
			L356.747,380.206z"/>
	</g>
</g>
<g>
	<g>
		<path fill="none" stroke="#000000" stroke-miterlimit="10" d="M36.192,115.823c-9.516,3.359-14.655,13.274-16.792,22.549
			c-2.183,9.473-1.964,20.676,2.869,29.324c3.422,6.124,9.817,10.327,16.941,9.964c6.325-0.321,11.658-4.504,13.78-10.398
			c1.928-5.356,0.694-11.359-1.425-16.446c-0.183-0.439-0.679-0.766-1.145-0.466c-5.256,3.388-9.755,7.882-14.132,12.31
			c-0.734,0.742,0.401,1.877,1.144,1.144c4.338-4.286,8.612-8.798,13.775-12.108c-0.382-0.155-0.764-0.311-1.145-0.466
			c3.027,7.322,3.708,16.636-3.23,21.992c-5.744,4.434-13.771,3.344-19.063-1.208c-7.81-6.717-8.804-18.696-7.86-28.257
			c1.108-11.237,6.313-21.896,16.536-27.335C36.771,116.25,36.545,115.699,36.192,115.823L36.192,115.823z"/>
	</g>
</g>
<g>
	<g>
		<path fill="none" stroke="#000000" stroke-miterlimit="10" d="M53.779,128.786c-0.854,2.207-0.289,4.632,0.33,6.826
			c0.917,3.253,2.117,6.496,3.334,9.645c0.681,1.761,1.386,3.513,2.084,5.268c0.706,1.775,1.766,3.72,2.102,5.6
			c0.138,0.77,0.375,1.516,0.605,2.262c0.123,0.396,0.253,0.79,0.38,1.184c0.309,0.96-0.042,0.635,0.464,0.124
			c0.377,0,0.754,0,1.132,0c-0.302-0.26-0.538-0.62-0.796-0.92c-0.38-0.441-1.039,0.033-0.921,0.536
			c0.106,0.451,0.208,0.954,0.46,1.354c0.238,0.379,0.701,0.499,1.095,0.287c0.98-0.526,0.078-2.327-0.143-3.024
			c-0.841-2.665-1.688-5.242-2.733-7.854c-1.408-3.52-2.761-7.036-4.018-10.609c-1.144-3.251-2.876-6.862-2.328-10.387
			C54.934,128.383,54.033,128.127,53.779,128.786L53.779,128.786z"/>
	</g>
</g>
<g>
	<g>
		<path fill="none" stroke="#000000" stroke-miterlimit="10" d="M53.628,134.744c-0.404-7.373,6.944-13.982,13.421-15.892
			c1.035-0.305,3.289-0.896,3.855,0.488c0.58,1.416-0.21,3.34-0.698,4.665c-1.702,4.621-4.635,8.888-7.493,12.856
			c-2.354,3.269-4.956,6.981-8.218,9.429c0.376,0.289,0.753,0.579,1.129,0.868c0.705-3.717,2.694-5.6,6.507-5.26
			c3.053,0.272,6.001,1.625,8.911,2.501c7.864,2.369,16.495,2.263,22.547-4.089c0.368-0.385-0.103-1.02-0.573-0.742
			c-4.75,2.811-8.941,5.089-14.642,4.755c-3.797-0.223-7.542-1.679-11.138-2.831c-2.683-0.86-5.597-1.629-8.404-0.949
			c-2.89,0.7-4.176,3.552-4.691,6.206c-0.113,0.584,0.533,1.312,1.129,0.868c3.994-2.973,7.085-7.471,9.901-11.507
			c2.99-4.284,6.601-9.428,7.383-14.727c0.672-4.561-3.308-4.906-6.74-3.801c-7.002,2.253-13.705,9.4-13.165,17.162
			C52.695,135.367,53.663,135.375,53.628,134.744L53.628,134.744z"/>
	</g>
</g>
<g>
	<g>
		<path fill="none" stroke="#000000" stroke-miterlimit="10" d="M264.441,248.259c-4.534-3.292-11.088-3.1-16.389-2.58
			c-4.561,0.447-8.695,1.614-12.593,4.059c-2.496,1.565-5.371,3.837-6.213,6.798c-0.764,2.687,1.812,4.032,4.021,4.438
			c5.605,1.029,10.973-1.627,16.537-1.209c6.043,0.454,9.397,6.361,15.239,7.17c3.329,0.461,7.279-1.429,8.369-4.693
			c1.101-3.295-1.046-7.103-2.948-9.63c-2.146-2.852-5.479-5.92-9.188-6.288c-0.721-0.071-0.836,1.054-0.168,1.235
			c3.645,0.989,6.562,3.562,8.722,6.586c1.921,2.688,3.767,6.964,0.951,9.679c-4.407,4.252-9.979-0.087-13.734-2.763
			c-3.896-2.774-8.345-3.143-12.952-2.296c-2.824,0.52-5.576,1.038-8.464,1.02c-1.498-0.01-3.877-0.104-4.865-1.47
			c-1.643-2.27,3.16-5.824,4.569-6.831c3.6-2.571,7.643-3.828,11.984-4.402c5.638-0.747,11.492-0.677,16.606,2.054
			C264.518,249.45,264.964,248.638,264.441,248.259L264.441,248.259z"/>
	</g>
</g>
<g>
	<g>
		<path fill="none" stroke="#000000" stroke-miterlimit="10" d="M240.746,254.91c6.591-5.128,18.523-3.133,23.443,3.427
			c0.504,0.672,1.641,0.058,1.154-0.674c-4.838-7.29-18.822-9.64-25.394-3.549C239.404,254.62,240.191,255.341,240.746,254.91
			L240.746,254.91z"/>
	</g>
</g>
<g>
	<g>
		<path fill="none" stroke="#000000" stroke-miterlimit="10" d="M84.841,110.25c-0.353,2.023,1.282,4.722,2.035,6.549
			c1.347,3.271,2.898,6.484,4.977,9.358c1.481,2.048,3.6,4.308,6.25,4.646c2.456,0.314,5.149-0.365,6.836-2.241
			c3.567-3.968,1.506-11.147,0.204-15.586c-1.542-5.252-3.807-10.247-5.949-15.272c-0.362-0.848-1.822-0.232-1.492,0.629
			c1.576,4.115,3.504,8.073,4.968,12.238c1.631,4.644,3.719,10.663,1.955,15.54c-0.871,2.408-3.304,3.181-5.645,3.231
			c-3.206,0.069-5.54-3.333-7.069-5.71c-1.73-2.688-3.058-5.645-4.266-8.596c-0.628-1.533-1.019-3.917-2.384-4.957
			C85.121,109.973,84.871,110.081,84.841,110.25L84.841,110.25z"/>
	</g>
</g>
<g>
	<g>
		<path fill="none" stroke="#000000" stroke-miterlimit="10" d="M107.763,92.884c-0.096,4.087,2.246,8.54,3.707,12.249
			c0.794,2.016,1.589,4.031,2.312,6.074c0.38,1.075,1.097,2.611,1.064,3.77c-0.014,0.479,0.542,0.614,0.86,0.356
			c1.96-1.587-1.292-7.41-1.93-9.018c-1.781-4.49-3.561-8.925-4.816-13.593C108.778,92.047,107.779,92.201,107.763,92.884
			L107.763,92.884z"/>
	</g>
</g>
<g>
	<g>
		<path fill="none" stroke="#000000" stroke-miterlimit="10" d="M108.601,93.856c3.098-2.266,9.217,3.687,11.387,5.436
			c0.443,0.357,1.276,0.313,1.404-0.371c1.118-5.972,0.696-12.137,2.343-18.019c-0.523,0.068-1.046,0.137-1.569,0.205
			c2.324,4.337,4.108,8.964,5.837,13.563c0.891,2.37,1.733,4.758,2.533,7.16c0.507,1.524,0.764,3.429,1.692,4.755
			c0.387,0.554,1.146,0.322,1.216-0.329c0.171-1.602-0.724-3.396-1.218-4.892c-0.794-2.404-1.658-4.786-2.545-7.157
			c-1.771-4.734-3.634-9.508-6.032-13.966c-0.358-0.666-1.375-0.492-1.569,0.205c-1.641,5.894-1.218,12.047-2.308,18.028
			c0.468-0.124,0.936-0.248,1.404-0.371c-2.507-2-10.256-9.29-13.195-4.867C107.737,93.603,108.232,94.126,108.601,93.856
			L108.601,93.856z"/>
	</g>
</g>
<g>
	<g>
		<path fill="none" stroke="#000000" stroke-miterlimit="10" d="M136.174,77.768c0.009,0.13-0.029-0.531-0.052-0.449
			c-0.323,0.042-0.646,0.084-0.968,0.127c0.182,0.325,0.213,1.619,0.324,2.084c0.273,1.147,0.556,2.293,0.804,3.448
			c0.377,1.758,0.838,3.322,1.424,5.034c0.918,2.683,1.784,5.387,2.593,8.104c0.335,1.126,0.65,2.258,0.931,3.399
			c0.103,0.417,0.196,0.838,0.288,1.259c0.263,1.2,0.194,0.15,0.712,0.333c-0.456-0.161-0.774,0.386-0.583,0.757
			c0.771,1.491,1.636-0.512,1.563-1.32c-0.283-3.128-1.633-6.369-2.599-9.332c-0.774-2.373-2.023-4.847-2.421-7.306
			c-0.349-2.154-0.794-5.231-2.121-6.997c-0.234-0.312-0.896-0.387-0.969,0.126c-0.042,0.302,0.047,0.569,0.138,0.857
			C135.395,78.388,136.215,78.324,136.174,77.768L136.174,77.768z"/>
	</g>
</g>
<g>
	<g>
		<path fill="none" stroke="#000000" stroke-miterlimit="10" d="M133.307,79.232c1.429-3.38,3.743-6.509,7.024-8.276
			c2.702-1.456,7.592-0.071,6.753,3.596c-1.168,5.106-6.631,8.607-10.192,11.968c-0.658,0.622,0.181,1.636,0.942,1.221
			c2.84-1.548,5.343-4.357,7.416-6.78c1.955-2.284,4.208-5.331,3.624-8.516c-0.61-3.326-5.416-4.229-8.089-3.521
			c-4.079,1.081-7.699,5.872-8.57,9.846C132.077,79.399,133.031,79.884,133.307,79.232L133.307,79.232z"/>
	</g>
</g>
<g>
	<g>
		<path fill="none" stroke="#000000" stroke-miterlimit="10" d="M151.917,64.396c0.417,4.16,3.812,7.735,7.148,9.922
			c2.789,1.829,8.769,3.451,10.757-0.383c0.183-0.352-0.116-0.812-0.529-0.689c-1.535,0.457-2.728,1.216-4.394,1.248
			c-1.768,0.035-3.482-0.79-4.962-1.668c-3.243-1.924-5.578-5.071-6.763-8.6C152.958,63.576,151.842,63.641,151.917,64.396
			L151.917,64.396z"/>
	</g>
</g>
<g>
	<g>
		<path fill="none" stroke="#000000" stroke-miterlimit="10" d="M168.224,55.505c-3.468,10.003-4.811,20.748-5.253,31.287
			c-0.226,5.384-0.105,10.78,0.249,16.155c0.176,2.667,0.442,5.327,0.779,7.978c0.305,2.401,0.452,5.019,1.449,7.241
			c0.25,0.558,0.997,0.21,1.041-0.282c0.203-2.282-0.403-4.691-0.672-6.959c-0.315-2.652-0.559-5.314-0.755-7.978
			c-0.396-5.375-0.46-10.771-0.277-16.155c0.357-10.501,2.11-20.775,4.667-30.948C169.653,55.04,168.49,54.736,168.224,55.505
			L168.224,55.505z"/>
	</g>
</g>
<g>
	<g>
		<path fill="none" stroke="#000000" stroke-miterlimit="10" d="M223.63,59.228c-2.52-0.551-2.2,8.718-2.235,9.824
			c-0.11,3.442-0.076,6.892-0.053,10.335c0.015,2.337-0.269,5.004,0.279,7.296c0.167,0.697,1.244,0.7,1.409,0
			c0.398-1.692,0.171-3.6,0.164-5.322c-0.013-2.831-0.062-5.662-0.056-8.493c0.006-2.735,0.026-5.473,0.151-8.205
			c0.046-0.997,0.097-1.99,0.186-2.985c0.042-0.469,0.276-1.38,0.014-1.398C224.092,60.322,224.217,59.356,223.63,59.228
			L223.63,59.228z"/>
	</g>
</g>
<g>
	<g>
		<path fill="none" stroke="#000000" stroke-miterlimit="10" d="M220.278,59.101c5.758,3.373,9.153,8.762,12.316,14.47
			c0.389,0.702,1.428,0.512,1.647-0.215c2.521-8.338,8.175-15.163,12.711-22.453c-0.567-0.154-1.136-0.308-1.703-0.461
			c0.021,5.531,0.466,11.047,0.897,16.558c0.215,2.744,0.43,5.488,0.601,8.235c0.14,2.252,0.021,4.584,0.418,6.807
			c0.132,0.734,1.358,0.741,1.483,0c0.804-4.771-0.278-10.25-0.658-15.042c-0.438-5.511-0.887-11.027-0.913-16.558
			c-0.005-0.925-1.228-1.228-1.703-0.461c-4.617,7.435-10.325,14.388-12.871,22.896c0.549-0.072,1.099-0.144,1.647-0.215
			c-3.063-5.466-6.937-12.75-13.409-14.66C220.081,57.807,219.692,58.758,220.278,59.101L220.278,59.101z"/>
	</g>
</g>
<g>
	<g>
		<path fill="none" stroke="#000000" stroke-miterlimit="10" d="M267.532,57.484c-7.345,1.269-8.618,11.904-7.759,17.749
			c0.457,3.107,1.865,6.424,4.729,8.002c2.516,1.385,5.859,0.583,8.129-0.921c5.123-3.395,5.77-10.923,5.115-16.448
			c-0.582-4.915-2.628-11.832-7.951-13.511c-2.148-0.678-4.552,0.101-6.035,1.732c-0.365,0.402-0.014,1.252,0.586,1.005
			c2.008-0.827,3.907-1.663,5.977-0.542c2.141,1.161,3.424,3.686,4.263,5.86c1.981,5.137,2.392,11.706-0.01,16.772
			c-1.099,2.317-2.962,4.03-5.466,4.665c-3.487,0.885-5.799-1.369-6.92-4.473c-2.131-5.895-0.979-16.218,5.629-18.858
			C268.456,58.261,268.219,57.365,267.532,57.484L267.532,57.484z"/>
	</g>
</g>
<g>
	<g>
		<path fill="none" stroke="#000000" stroke-miterlimit="10" d="M288.561,59.572c-1.334,4.569-1.584,9.909-0.86,14.594
			c0.604,3.918,2.875,9.25,7.851,7.708c4.33-1.343,5.788-8.091,6.682-11.821c0.72-3.001,1.199-6.063,1.61-9.121
			c0.177-1.307,0.331-2.616,0.476-3.926c0.058-0.512,0.111-1.024,0.164-1.536c0.022-0.224,0.047-0.447,0.068-0.671
			c0.096-0.919,0.182-0.232-0.549-0.322c-0.297-0.297-0.594-0.594-0.891-0.891c0.078,0.838,0.219,1.457,0.943,1.932
			c0.313,0.205,0.748-0.063,0.74-0.425c-0.012-0.508,0.089-1,0.098-1.507c0.006-0.384-0.274-0.77-0.654-0.859
			c-0.024-0.006-0.049-0.012-0.074-0.018c-0.4-0.095-0.791,0.06-1.01,0.411c-0.774,1.242-0.584,3.313-0.73,4.739
			c-0.254,2.464-0.572,4.921-0.974,7.367c-0.746,4.56-1.654,10.354-4.843,13.929c-1.338,1.501-3.437,1.691-4.977,0.358
			c-1.753-1.518-2.191-4.386-2.453-6.549c-0.516-4.272-0.171-8.827,0.633-13.047C289.966,59.104,288.797,58.76,288.561,59.572
			L288.561,59.572z"/>
	</g>
</g>
<g>
	<g>
		<path fill="none" stroke="#000000" stroke-miterlimit="10" d="M329.849,64.245c-0.723-4.211-4.004-7.974-8.576-7.659
			c-3.291,0.227-8.318,4.356-8.545,7.809c-0.101,1.538-0.279,3.571,1.046,4.677c0.965,0.805,2.444,0.586,3.604,0.608
			c3.45,0.065,8.029,3.57,10.011,6.342c3.16,4.422-5.736,5.407-8.249,5.546c-1.699,0.094-11.309,0.269-10.78-3.065
			c0.1-0.635-0.7-1.047-1.071-0.452c-2.339,3.753,5.193,4.94,7.258,5.164c4.377,0.474,10.32,0.368,13.92-2.547
			c4.735-3.834-3.009-9.105-5.79-10.84c-1.709-1.066-3.266-1.816-5.297-1.918c-0.745-0.037-1.502,0.066-2.237-0.086
			c-1.112-0.232-0.749-2.966-0.563-3.663c0.697-2.625,3.979-5.04,6.431-5.778c3.714-1.118,7.007,3.07,7.752,6.164
			C328.93,65.267,329.97,64.952,329.849,64.245L329.849,64.245z"/>
	</g>
</g>
<g>
	<g>
		<path fill="none" stroke="#000000" stroke-miterlimit="10" d="M344.427,63.479c-2.027,3.714-3.003,8.115-4.145,12.16
			c-0.617,2.187-1.215,4.379-1.804,6.574c-0.175,0.651-0.493,1.42-0.485,2.104c0.003,0.226-0.034,1.353,0.092,0.866
			c-0.175,0.673,0.865,0.959,1.039,0.286c-0.12,0.468,0.259-0.346,0.385-0.515c0.378-0.505,0.479-1.299,0.633-1.893
			c0.563-2.143,1.14-4.281,1.728-6.417c1.15-4.184,2.1-8.639,3.771-12.654C345.934,63.287,344.78,62.83,344.427,63.479
			L344.427,63.479z"/>
	</g>
</g>
<g>
	<g>
		<path fill="none" stroke="#000000" stroke-miterlimit="10" d="M343.072,65.375c2.431-2.377,7.092-2.594,10.259-2.616
			c1.942-0.014,3.889,0.24,5.721,0.895c1.705,0.609,2.263,1.641,2.854,3.215c0.151,0.404,0.786,0.608,1.014,0.132
			c1.959-4.096-5.085-5.611-7.603-5.854c-4.068-0.393-10.186,0.059-13.04,3.432C341.814,65.125,342.547,65.889,343.072,65.375
			L343.072,65.375z"/>
	</g>
</g>
<g>
	<g>
		<path fill="none" stroke="#000000" stroke-miterlimit="10" d="M340.479,75.335c2.25-0.743,5.239-0.57,7.561-0.438
			c1.553,0.089,3.072,0.347,4.569,0.76c1.613,0.446,2.775,1.471,4.252,2.126c0.615,0.273,1.295-0.295,0.944-0.946
			c-1.431-2.668-5.878-3.267-8.549-3.563c-3.096-0.343-6.183-0.046-9.039,1.111C339.646,74.618,339.864,75.538,340.479,75.335
			L340.479,75.335z"/>
	</g>
</g>
<g>
	<g>
		<path fill="none" stroke="#000000" stroke-miterlimit="10" d="M336.454,85.15c5.098,4.481,14.906,8.097,21.021,3.538
			c0.468-0.349,0.206-1.105-0.406-0.964c-3.563,0.821-6.569,1.505-10.236,0.752c-3.505-0.72-6.552-2.604-9.682-4.228
			C336.594,83.959,335.943,84.701,336.454,85.15L336.454,85.15z"/>
	</g>
</g>
</svg>
