<svg version="1.1" id="Layer_1" x="0px" y="0px"
	 width="464px" height="600px" viewBox="0 0 464 600" enable-background="new 0 0 464 600" xml:space="preserve">
<image display="none" overflow="visible" opacity="0.82" enable-background="new    " width="640" height="683" xlink:href="AB296398.jpeg"  transform="matrix(0.5995 -0.3299 0.3299 0.5995 -80.3101 258.2646)">
</image>
<g>
	<g>
		<path fill="none" stroke="#000000" stroke-miterlimit="10" d="M184.026,439.807c-2.307,1.386-4.382,3.156-6.561,4.73
			c-2.291,1.655-5.084,2.514-7.311,4.156c-0.29,0.213-0.186,0.629,0.179,0.662c2.582,0.235,5.199-1.731,7.228-3.107
			c2.493-1.69,4.822-3.645,7.203-5.484C185.321,440.334,184.606,439.458,184.026,439.807L184.026,439.807z"/>
	</g>
</g>
<g>
	<g>
		<path fill="none" stroke="#000000" stroke-miterlimit="10" d="M179.937,448.538c-10.706-5.112-17.592,7.149-20.874,15.241
			c-2.442,6.021-4.216,12.293-6.261,18.454c-0.962,2.898-1.986,5.784-3.232,8.574c-1.036,2.321-2.565,4.345-3.638,6.624
			c-0.183,0.39,0.213,0.913,0.636,0.637c3.599-2.359,5.241-8.349,6.624-12.17c2.086-5.765,3.753-11.671,5.779-17.455
			c1.854-5.292,3.981-10.853,7.672-15.166c3.567-4.17,7.737-4.757,12.881-3.763C180.085,449.625,180.517,448.814,179.937,448.538
			L179.937,448.538z"/>
	</g>
</g>
<g>
	<g>
		<path fill="none" stroke="#000000" stroke-miterlimit="10" d="M156.868,503.703c0.001,0.006,0.003,0.012,0.005,0.018
			c0.023,0.078,0.128,0.137,0.202,0.082c0.663-0.485,0.917-0.351,1.355-1.275c1.087-2.299,1.932-4.733,2.854-7.101
			c1.142-2.933,2.265-5.871,3.378-8.813c0.808-2.135,2.127-4.642,2.175-6.945c0.009-0.415-0.573-0.7-0.86-0.355
			c-1.23,1.473-1.785,3.605-2.483,5.377c-1.143,2.897-2.23,5.82-3.339,8.732c-0.917,2.406-1.853,4.807-2.768,7.213
			c-0.239,0.63-0.761,1.464-0.569,2.164c0.099,0.36,0.09,0.214,0.314,0.833C157.073,503.467,156.817,503.532,156.868,503.703
			L156.868,503.703z"/>
	</g>
</g>
<g>
	<g>
		<path fill="none" stroke="#000000" stroke-miterlimit="10" d="M164.006,484.893c4.375,2.08,8.27-0.792,10.894-4.203
			c1.728-2.246,2.935-4.877,4.013-7.48c0.804-1.94,2.333-4.854,1.876-7.001c-0.073-0.345-0.555-0.46-0.79-0.208
			c-1.077,1.154-1.375,3.119-1.887,4.577c-0.831,2.365-1.854,4.655-3.084,6.839c-2.289,4.062-5.55,7.432-10.523,6.293
			C163.818,483.55,163.316,484.564,164.006,484.893L164.006,484.893z"/>
	</g>
</g>
<g>
	<g>
		<path fill="none" stroke="#000000" stroke-miterlimit="10" d="M170.659,464.532c0.957,1.287,3.365,1.396,4.833,1.627
			c2.335,0.366,4.707,0.511,7.066,0.588c5.628,0.185,11.297-0.298,16.813-1.43c5.021-1.029,10.056-2.777,14.258-5.771
			c2.8-1.994,7.71-6.808,6.666-10.722c-0.116-0.435-0.777-0.685-1.09-0.287c-1.135,1.433-1.449,3.46-2.44,5.036
			c-1.23,1.958-3.035,3.524-4.929,4.813c-4.168,2.835-9.198,4.278-14.094,5.231c-4.986,0.972-10.112,1.265-15.184,1.155
			c-2.28-0.05-4.545-0.253-6.812-0.497c-1.447-0.157-3.569-0.92-4.946-0.287C170.62,464.075,170.54,464.371,170.659,464.532
			L170.659,464.532z"/>
	</g>
</g>
<g>
	<g>
		<path fill="none" stroke="#000000" stroke-miterlimit="10" d="M153,510.454c0.156,0,0.156-0.242,0-0.242
			S152.844,510.454,153,510.454L153,510.454z"/>
	</g>
</g>
<g>
	<g>
		<path fill="none" stroke="#000000" stroke-miterlimit="10" d="M152.755,510.751c2.461,1.698,3.961-0.109,4.3-2.789
			c0.471-3.721,0.129-9.158-1.792-12.448c-0.164-0.28-0.539-0.134-0.568,0.153c-0.173,1.728,2.233,15.533-1.566,14.199
			C152.581,509.674,152.329,510.457,152.755,510.751L152.755,510.751z"/>
	</g>
</g>
<g>
	<g>
		<path fill="none" stroke="#000000" stroke-miterlimit="10" d="M153.685,510.333c-0.197,3.168-0.031,6.345-0.326,9.51
			c-0.153,1.641-0.502,3.329-1.39,4.736c-1.072,1.699-2.724,0.899-4.303,1.07c-0.521,0.057-0.998,0.743-0.483,1.167
			c3.011,2.479,6.319-0.56,7.289-3.413c1.388-4.088,0.81-8.859,0.51-13.07C154.922,509.5,153.737,509.495,153.685,510.333
			L153.685,510.333z"/>
	</g>
</g>
<g>
	<g>
		<path fill="none" stroke="#000000" stroke-miterlimit="10" d="M138.282,488.753c1.773,3.172,3.871,6.158,5.8,9.235
			c2.002,3.193,3.432,7.201,5.89,10.041c0.286,0.33,0.904,0.072,0.874-0.362c-0.244-3.521-2.856-7.021-4.647-9.939
			c-2.048-3.337-4.224-6.613-6.479-9.813C139.109,487.049,137.75,487.802,138.282,488.753L138.282,488.753z"/>
	</g>
</g>
<g>
	<g>
		<path fill="none" stroke="#000000" stroke-miterlimit="10" d="M135.359,502.692c4.621-4.844,5.25-13.164,4.111-19.403
			c-1.462-8.012-6.597-14.898-12.494-20.266c-0.771-0.702-1.912,0.178-1.429,1.103c2.358,4.517,2.883,9.95,3.125,14.958
			c0.22,4.542,0.104,9.293-1.165,13.688c-0.316,1.094,1.237,1.438,1.649,0.454c1.776-4.225,1.508-9.675,1.335-14.144
			c-0.205-5.325-0.874-11.092-3.375-15.876c-0.477,0.367-0.953,0.734-1.429,1.103c5.43,4.938,9.884,10.914,11.807,18.081
			c0.911,3.396,0.989,6.979,0.398,10.434c-0.576,3.365-2.266,6.207-3.385,9.374C134.338,502.685,135.02,503.048,135.359,502.692
			L135.359,502.692z"/>
	</g>
</g>
<g>
	<g>
		<path fill="none" stroke="#000000" stroke-miterlimit="10" d="M126.56,469c0.025-1.265-1.001-2.146-1.598-3.219
			c-0.968-1.738-1.377-3.778-1.741-5.713c-0.646-3.434-0.781-7.075-2.245-10.302c-2.22-4.891-7.318-7.463-12.559-7.074
			c-4.349,0.321-8.621,2.654-11.091,6.259c-2.295,3.349-1.765,8.555,2.005,10.622c0.554,0.304,1.295-0.33,0.908-0.908
			c-1.062-1.587-2.344-2.892-2.513-4.889c-0.161-1.891,0.843-3.662,2.043-5.034c2.807-3.208,7.562-4.809,11.739-4.227
			c5.877,0.819,8.392,5.85,9.342,11.144c0.536,2.982,0.835,5.979,1.823,8.863c0.562,1.642,1.653,4.613,3.66,4.703
			C126.459,469.232,126.558,469.119,126.56,469L126.56,469z"/>
	</g>
</g>
<g>
	<g>
		<path fill="none" stroke="#000000" stroke-miterlimit="10" d="M122.162,460.829c-0.158,0.146-0.808,0.285-1.075,0.468
			c-0.281,0.191-0.613,0.416-0.96,0.448c-0.602,0.056-1.024-0.397-1.349-0.854c-1.147-1.606-1.585-3.804-1.823-5.726
			c-0.186-1.491-0.467-3.658,0.333-5.031c0.092-0.158,0.096-0.091,0.034-0.088c0.018-0.001,0.359,0.198,0.53,0.354
			c0.804,0.733,1.248,2.138,2.339,2.449c0.273,0.079,0.597-0.092,0.663-0.376c0.389-1.675-2.565-5.188-4.454-3.907
			c-1.779,1.207-1.404,4.589-1.212,6.383c0.269,2.521,0.864,5.36,2.53,7.355c0.627,0.751,1.638,1.289,2.634,1.097
			c0.488-0.097,1.022-0.351,1.388-0.691c0.226-0.209,0.424-0.439,0.607-0.687c0.239-0.32,0.039-0.63,0.196-0.903
			C122.682,460.88,122.362,460.642,122.162,460.829L122.162,460.829z"/>
	</g>
</g>
<g>
	<g>
		<path fill="none" stroke="#000000" stroke-miterlimit="10" d="M94.702,453.036c-3.678-2.355-2.444-5.902,0.427-8.388
			c1.291-1.118,2.996-1.901,4.714-1.932c0.812-0.014,1.532,0.273,2.196,0.717c0.822,0.551,1.097,1.657,2.002,2.064
			c0.342,0.154,0.733,0.04,0.85-0.346c0.656-2.179-2.456-4.024-4.222-4.281c-2.38-0.347-4.82,0.744-6.629,2.227
			c-3.657,2.997-5.433,8.897-0.075,11.199C94.812,454.661,95.516,453.557,94.702,453.036L94.702,453.036z"/>
	</g>
</g>
<g>
	<g>
		<path fill="none" stroke="#000000" stroke-miterlimit="10" d="M86.698,449.303c-1.751-2.17-1.394-5.104,0.38-7.124
			c0.839-0.956,1.995-1.563,3.273-1.57c1.764-0.01,2.965,1.56,3.903,2.827c0.647,0.877,2.046,0.124,1.491-0.87
			c-2.117-3.792-6.457-4.978-9.703-1.855c-2.67,2.566-3.194,7.146,0.031,9.403C86.591,450.475,87.038,449.723,86.698,449.303
			L86.698,449.303z"/>
	</g>
</g>
<g>
	<g>
		<path fill="none" stroke="#000000" stroke-miterlimit="10" d="M79.667,445.8c0.171,0,0.171-0.266,0-0.266
			S79.495,445.8,79.667,445.8L79.667,445.8z"/>
	</g>
</g>
<g>
	<g>
		<path fill="none" stroke="#000000" stroke-miterlimit="10" d="M79.815,445.667c-0.102-0.79-0.891-0.487,0.246,0.173
			c1.014,0.59,2.209,0.955,3.278,1.417c2.402,1.038,4.671,2.372,6.866,3.789c4.561,2.946,8.667,6.554,12.533,10.349
			c7.078,6.947,13.379,14.852,19.253,22.826c11.866,16.111,22.53,34.153,27.447,53.693c0.294,1.169,2.039,0.671,1.793-0.494
			c-2.042-9.679-6.35-18.945-10.931-27.653c-5.107-9.708-11.111-18.956-17.653-27.755c-6.027-8.106-12.525-16.051-19.812-23.06
			c-3.813-3.667-7.943-7.034-12.412-9.87c-2.2-1.396-4.521-2.588-6.92-3.602c-1.095-0.464-3.133-1.645-4.354-1.52
			c-0.467,0.048-0.879,0.542-0.577,1.005c0.249,0.381,0.643,0.59,1.021,0.828C79.679,445.851,79.83,445.78,79.815,445.667
			L79.815,445.667z"/>
	</g>
</g>
<g>
	<g>
		<path fill="none" stroke="#000000" stroke-miterlimit="10" d="M78.448,443.78c-3.197,3.526-6.562,6.725-10.1,9.9
			c-0.772,0.692,0.267,2.068,1.117,1.447c3.841-2.806,7.425-6.552,10.209-10.401C80.198,444.004,79.038,443.13,78.448,443.78
			L78.448,443.78z"/>
	</g>
</g>
<g>
	<g>
		<path fill="none" stroke="#000000" stroke-miterlimit="10" d="M70.549,452.549c-0.302,0.252-0.403-0.048-0.03,0.374
			c0.235,0.267,0.442,0.501,0.731,0.712c1.009,0.737,2.052,1.409,3.102,2.087c3.204,2.071,6.369,4.203,9.528,6.343
			c6.913,4.681,13.875,9.387,20.414,14.585c2.893,2.299,5.245,5.104,7.704,7.852c3.964,4.43,7.823,8.953,11.501,13.624
			c7.737,9.828,15.052,20.717,18.482,32.872c1.102,3.906,1.619,7.948,1.423,12.004c-0.058,1.199,1.802,1.193,1.859,0
			c0.551-11.369-4.488-22.222-10.26-31.716c-6.266-10.307-14.103-19.621-22.128-28.587c-2.406-2.688-4.719-5.339-7.544-7.585
			c-2.909-2.313-5.931-4.486-8.959-6.639c-6.83-4.85-13.766-9.563-20.826-14.071c-0.305-0.194-5.276-3.491-5.506-2.15
			C69.987,452.559,70.308,452.75,70.549,452.549L70.549,452.549z"/>
	</g>
</g>
<g>
	<g>
		<path fill="none" stroke="#000000" stroke-miterlimit="10" d="M70.487,452.442c-5.235-1.845-3.131,5.901-2.337,8.209
			c2.487,7.227,6.354,14.049,10.19,20.628c3.482,5.973,6.892,11.355,12.176,15.93c9.317,8.063,21.101,13.271,28.332,23.604
			c1.908,2.727,2.937,6.129,4.158,9.191c1.52,3.813,3.093,7.654,5.352,11.097c1.723,2.626,4.137,5.179,7.385,5.656
			c4.051,0.599,7.467-2.284,9.928-5.086c0.804-0.915-0.533-2.264-1.343-1.342c-2.613,2.975-6.441,6.052-10.499,3.771
			c-3.194-1.795-5.066-5.76-6.573-8.923c-1.705-3.579-3.007-7.329-4.562-10.973c-1.672-3.917-4.067-7.113-7.066-10.153
			c-8.548-8.667-20.163-13.582-28.37-22.642c-4.067-4.488-6.962-10.387-9.878-15.64c-2.672-4.813-5.278-9.724-7.273-14.861
			c-0.521-1.342-3.298-7.817,0.072-7.352C70.905,453.658,71.207,452.696,70.487,452.442L70.487,452.442z"/>
	</g>
</g>
<g>
	<g>
		<path fill="none" stroke="#000000" stroke-miterlimit="10" d="M144.261,542.208c-0.396,0.18-1.124,0.072-0.922,0.807
			c0.202,0.735,1.706,0.586,2.152,0.313c2.726-1.674,4.833-4.391,6.292-7.203c0.537-1.036-1.03-1.953-1.565-0.914
			c-0.889,1.725-2.009,3.283-3.339,4.696c-0.68,0.722-1.443,1.371-2.25,1.943c-0.468,0.333-0.152,0.423-0.444,1.021
			c0.069-0.144,0.079-0.329,0.222-0.414C144.569,542.36,144.427,542.133,144.261,542.208L144.261,542.208z"/>
	</g>
</g>
<g>
	<g>
		<path fill="none" stroke="#000000" stroke-miterlimit="10" d="M83.234,470.734c0.036-0.02,0.225-0.081,0.041-0.026
			c-0.214-0.122-0.428-0.243-0.643-0.365c0.001,0.002,0.001,0.004,0.002,0.005c0.045-0.17,0.09-0.34,0.135-0.51
			c-0.235,0.297-0.527,0.454-0.711,0.842c-0.372,0.784-0.461,1.614-0.343,2.472c0.18,1.308,0.896,2.628,1.651,3.706
			c0.814,1.16,2.17,2.208,3.493,1.109c0.95-0.789,1.115-2.424,1.16-3.559c0.054-1.383-0.153-2.895-0.837-4.115
			c-1.63-2.91-5.586-0.751-6.037,1.896c-0.08,0.472,0.346,0.83,0.792,0.608c0.904-0.451,1.604-1.358,2.315-1.819
			c0.346-0.225,0.253-0.192,0.658-0.271c-0.28,0.055,0.074,0.008,0.166,0.016c-0.265-0.021,0.178,0.098,0,0.012
			c0.05,0.023,0.097,0.054,0.144,0.084c0.171,0.106-0.167-0.144-0.01-0.012c0.091,0.077,0.17,0.166,0.246,0.258
			c-0.177-0.213,0.064,0.111,0.104,0.179c0.043,0.073,0.233,0.491,0.145,0.273c0.115,0.28,0.197,0.572,0.266,0.866
			c0.108,0.459,0.109,0.529,0.141,0.872c0.03,0.329,0.039,0.659,0.035,0.99c-0.002,0.161-0.01,0.323-0.021,0.483
			c-0.006,0.094-0.065,0.595-0.034,0.372c-0.041,0.284-0.102,0.564-0.183,0.842c-0.036,0.123-0.08,0.243-0.128,0.362
			c0.105-0.265-0.068,0.114-0.112,0.187c-0.047,0.077-0.032,0.074-0.125,0.127c0.13-0.073-0.075-0.021,0.155-0.038
			c-0.154,0.013,0.195,0.078-0.108-0.025c0.289,0.1-0.04-0.033-0.122-0.09c-0.184-0.124,0.158,0.134-0.022-0.021
			c-0.058-0.05-0.111-0.104-0.165-0.156c-0.317-0.314-0.444-0.522-0.693-0.918c-0.665-1.053-1.279-2.19-1.159-3.469
			c0.048-0.518,0.296-1.05,0.186-1.565c0.067,0.314,0.039,0.042,0.047-0.109c0.01-0.2-0.101-0.366-0.263-0.474
			c-0.177-0.115-0.497-0.094-0.633,0.082c-0.069,0.09-0.117,0.164-0.168,0.264C82.381,470.52,82.814,470.949,83.234,470.734
			L83.234,470.734z"/>
	</g>
</g>
<g>
	<g>
		<path fill="none" stroke="#000000" stroke-miterlimit="10" d="M85.122,480.773c3.204-1.245,6.744-3.49,8.771-6.31
			c0.153-0.212-0.146-0.502-0.358-0.356c-1.447,0.983-2.792,2.104-4.252,3.073c-1.472,0.977-3.025,1.81-4.513,2.758
			C84.352,480.205,84.619,480.969,85.122,480.773L85.122,480.773z"/>
	</g>
</g>
<g>
	<g>
		<path fill="none" stroke="#000000" stroke-miterlimit="10" d="M88.034,486.548c0.75-1.218,2.345-2.181,3.448-3.049
			c1.496-1.177,3.018-2.3,4.367-3.649c0.211-0.211-0.057-0.544-0.312-0.404c-1.721,0.938-3.291,2.072-4.831,3.277
			c-1.232,0.965-2.647,1.991-3.407,3.396C87.037,486.602,87.746,487.016,88.034,486.548L88.034,486.548z"/>
	</g>
</g>
<g>
	<g>
		<path fill="none" stroke="#000000" stroke-miterlimit="10" d="M92.103,489.438c1.517-1.285,2.969-2.646,4.488-3.93
			c1.595-1.35,3.355-2.607,4.696-4.221c0.293-0.354-0.068-0.854-0.492-0.638c-1.709,0.873-3.215,2.179-4.688,3.397
			c-1.701,1.407-3.424,2.848-4.876,4.517C90.704,489.168,91.497,489.95,92.103,489.438L92.103,489.438z"/>
	</g>
</g>
<g>
	<g>
		<path fill="none" stroke="#000000" stroke-miterlimit="10" d="M95.903,494.071c1.229-0.808,2.445-1.597,3.623-2.503
			c1.709-1.317,3.871-2.604,5.145-4.371c0.198-0.274-0.13-0.686-0.441-0.574c-2,0.713-3.763,2.437-5.421,3.717
			c-1.227,0.947-2.343,1.961-3.474,2.996C94.943,493.694,95.457,494.364,95.903,494.071L95.903,494.071z"/>
	</g>
</g>
<g>
	<g>
		<path fill="none" stroke="#000000" stroke-miterlimit="10" d="M99.245,496.751c1.616-0.806,3.157-1.665,4.697-2.638
			c1.957-1.234,4.497-2.376,6.037-4.135c0.289-0.329,0.015-0.845-0.429-0.737c-2.096,0.502-4.06,2.177-5.841,3.332
			c-1.639,1.063-3.254,2.404-4.953,3.342C98.205,496.219,98.69,497.027,99.245,496.751L99.245,496.751z"/>
	</g>
</g>
<g>
	<g>
		<path fill="none" stroke="#000000" stroke-miterlimit="10" d="M103.946,499.479c1.17-0.677,2.205-1.511,3.263-2.348
			c1.34-1.06,2.835-2.007,4.076-3.18c0.309-0.292-0.016-0.752-0.392-0.672c-2.928,0.62-5.376,3.518-7.619,5.328
			C102.773,499.013,103.416,499.786,103.946,499.479L103.946,499.479z"/>
	</g>
</g>
<g>
	<g>
		<path fill="none" stroke="#000000" stroke-miterlimit="10" d="M107.296,502.839c1.17-0.642,2.311-1.276,3.421-2.028
			c0.941-0.639,3.336-1.815,3.383-3.144c0.008-0.237-0.204-0.433-0.434-0.434c-0.575-0.003-1.083,0.457-1.531,0.769
			c-0.809,0.563-1.611,1.133-2.43,1.681c-1.026,0.687-1.999,1.435-3.001,2.146C106.096,502.258,106.623,503.208,107.296,502.839
			L107.296,502.839z"/>
	</g>
</g>
<g>
	<g>
		<path fill="none" stroke="#000000" stroke-miterlimit="10" d="M112.474,505.158c0.087,0.07,0.173,0.144,0.26,0.215
			c0,0.181,0,0.362,0,0.543c-0.128,0.219-0.178,0.145,0.003,0.074c0.207-0.081,0.419-0.151,0.622-0.24
			c0.645-0.278,1.295-0.544,1.942-0.816c1.105-0.466,2.403-0.827,3.273-1.692c0.23-0.229,0.038-0.546-0.24-0.58
			c-1.396-0.172-2.863,0.666-4.104,1.202c-0.644,0.276-2.286,0.814-2.479,1.639c-0.06,0.254,0.043,0.462,0.248,0.608
			c0.099,0.069,0.218,0.088,0.336,0.085C112.925,506.178,113.056,505.32,112.474,505.158L112.474,505.158z"/>
	</g>
</g>
<g>
	<g>
		<path fill="none" stroke="#000000" stroke-miterlimit="10" d="M116.558,510.718c0.795-0.478,1.701-0.819,2.527-1.289
			c0.925-0.524,2.584-1.267,3.011-2.311c0.09-0.222-0.096-0.495-0.311-0.548c-1.077-0.264-2.411,0.896-3.248,1.428
			c-0.895,0.569-1.596,1.339-2.428,1.95C115.657,510.28,116.055,511.02,116.558,510.718L116.558,510.718z"/>
	</g>
</g>
<g>
	<g>
		<path fill="none" stroke="#000000" stroke-miterlimit="10" d="M119.869,512.333c0.011,0.568-0.006,1.123,0.542,1.433
			c0.627,0.355,1.384,0.012,1.953-0.294c1.653-0.886,3.455-2.601,4.318-4.269c0.188-0.363-0.187-0.738-0.55-0.551
			c-1.203,0.622-2.204,1.667-3.228,2.534c-0.47,0.398-0.96,0.773-1.484,1.099c-0.201,0.124-0.384,0.211-0.615,0.257
			c0.119-0.005,0.091-0.029-0.085-0.073c0.136,0.201,0.163,0.155,0.081-0.136C120.758,511.741,119.856,511.729,119.869,512.333
			L119.869,512.333z"/>
	</g>
</g>
<g>
	<g>
		<path fill="none" stroke="#000000" stroke-miterlimit="10" d="M121.258,518.774c0.924-0.452,1.904-0.825,2.833-1.299
			c1.146-0.584,3.065-1.147,3.882-2.17c0.19-0.236,0.156-0.645-0.191-0.725c-1.315-0.303-3.036,0.909-4.151,1.481
			c-1.032,0.529-1.933,1.199-2.889,1.827C120.187,518.255,120.667,519.064,121.258,518.774L121.258,518.774z"/>
	</g>
</g>
<g>
	<g>
		<path fill="none" stroke="#000000" stroke-miterlimit="10" d="M125.437,521.12c0.037-0.203-0.57,0.017-0.12,0.017
			c0.187,0,0.311-0.081,0.455-0.188c0.357-0.268,0.771-0.475,1.166-0.678c0.985-0.511,2.191-0.9,3.017-1.651
			c0.283-0.257,0.042-0.668-0.287-0.693c-1.225-0.095-2.635,0.652-3.657,1.268c-0.749,0.448-1.344,0.913-1.463,1.807
			C124.479,521.506,125.346,521.62,125.437,521.12L125.437,521.12z"/>
	</g>
</g>
<g>
	<g>
		<path fill="none" stroke="#000000" stroke-miterlimit="10" d="M125.829,525.588c2.592-0.741,5.878-2.175,7.522-4.383
			c0.212-0.285-0.138-0.709-0.458-0.597c-1.329,0.466-2.517,1.367-3.744,2.057c-1.175,0.659-2.396,1.239-3.644,1.747
			C124.798,524.7,125.053,525.81,125.829,525.588L125.829,525.588z"/>
	</g>
</g>
<g>
	<g>
		<path fill="none" stroke="#000000" stroke-miterlimit="10" d="M128.637,530.854c2.407-1.418,5.099-2.502,7.253-4.297
			c0.258-0.215-0.021-0.597-0.308-0.527c-2.71,0.641-5.31,2.166-7.553,3.785C127.413,530.259,127.955,531.254,128.637,530.854
			L128.637,530.854z"/>
	</g>
</g>
<g>
	<g>
		<path fill="none" stroke="#000000" stroke-miterlimit="10" d="M132.637,533.52c1.482-0.675,3.255-1.207,4.554-2.191
			c0.282-0.214,0.219-0.708-0.191-0.706c-1.746,0.008-3.479,1.044-4.97,1.859C131.337,532.859,131.945,533.834,132.637,533.52
			L132.637,533.52z"/>
	</g>
</g>
<g>
	<g>
		<path fill="none" stroke="#000000" stroke-miterlimit="10" d="M134.454,535.23c0.069,0.207,0.138,0.416,0.208,0.625
			c0.049-0.062,0.071-0.073,0.068-0.04c0.215-0.008,0.415-0.139,0.601-0.232c0.57-0.288,1.14-0.574,1.702-0.879
			c0.897-0.486,2.738-1.17,3.018-2.267c0.049-0.189-0.061-0.455-0.278-0.488c-0.798-0.122-1.572,0.479-2.228,0.866
			c-0.83,0.489-1.685,0.946-2.479,1.494c-0.33,0.229-2.146,1.681-0.732,1.811C134.84,536.166,134.958,535.303,134.454,535.23
			L134.454,535.23z"/>
	</g>
</g>
<g>
	<g>
		<path fill="none" stroke="#000000" stroke-miterlimit="10" d="M136.781,540.114c1.198-0.97,3.075-1.55,3.856-2.938
			c0.141-0.251-0.044-0.501-0.304-0.528c-0.946-0.104-1.78,0.477-2.532,0.969c-0.689,0.451-1.371,0.98-1.915,1.603
			C135.34,539.842,136.153,540.623,136.781,540.114L136.781,540.114z"/>
	</g>
</g>
<g>
	<g>
		<path fill="none" stroke="#000000" stroke-miterlimit="10" d="M77.927,470.778c0.997-0.439,1.843-1.104,2.651-1.824
			c0.758-0.676,1.997-1.543,2.126-2.621c0.022-0.185-0.187-0.394-0.371-0.371c-0.929,0.111-1.622,1.041-2.263,1.652
			c-0.829,0.79-1.692,1.662-2.665,2.272C76.831,470.249,77.33,471.041,77.927,470.778L77.927,470.778z"/>
	</g>
</g>
<g>
	<g>
		<path fill="none" stroke="#000000" stroke-miterlimit="10" d="M75.816,466.209c2.405-0.76,4.509-2.713,5.67-4.925
			c0.285-0.544-0.447-1.185-0.884-0.683c-1.48,1.702-2.932,3.622-5.085,4.522C74.87,465.396,75.105,466.434,75.816,466.209
			L75.816,466.209z"/>
	</g>
</g>
<g>
	<g>
		<path fill="none" stroke="#000000" stroke-miterlimit="10" d="M75.155,460.895c0.929-0.366,1.873-0.701,2.803-1.067
			c0.695-0.273,1.721-0.567,2.053-1.292c0.103-0.226,0.031-0.521-0.238-0.585c-0.808-0.197-1.742,0.356-2.476,0.658
			c-0.893,0.364-1.756,0.734-2.59,1.223C74.152,460.154,74.527,461.142,75.155,460.895L75.155,460.895z"/>
	</g>
</g>
<image display="none" overflow="visible" opacity="0.74" enable-background="new    " width="188" height="188" xlink:href="AB296398.jpeg"  transform="matrix(1.1575 0 0 1.1575 156.8662 111.1777)">
</image>
<g>
	<g>
		<g>
			<path fill="none" stroke="#000000" stroke-miterlimit="10" d="M248.965,272.214c-0.425,0.34,1.529,0.152,1.917,0.122
				c1.603-0.125,3.211-0.174,4.816-0.224c4.739-0.148,9.479-0.236,14.22-0.295c4.836-0.061,9.673-0.092,14.509-0.111
				c2.414-0.009,5.644,0.555,7.974-0.19c0.611-0.195,0.611-1.04,0-1.235c-2.44-0.781-5.861-0.167-8.389-0.157
				c-5.386,0.022-10.771,0.064-16.158,0.14c-4.783,0.067-9.57,0.137-14.349,0.393c-0.599,0.032-5.577-0.128-5.103,1.41
				C248.484,272.326,248.77,272.371,248.965,272.214L248.965,272.214z"/>
		</g>
	</g>
	<g>
		<g>
			<path fill="none" stroke="#000000" stroke-miterlimit="10" d="M249.277,271.308c-2.158,4.599,0.721,9.631,4.106,12.703
				c4.015,3.641,9.74,5.876,15.066,6.57c5.69,0.742,11.401-0.761,15.798-4.474c2.168-1.831,3.822-4.242,5.191-6.703
				c1.406-2.528,3.19-5.943,3.25-8.866c0.011-0.477-0.619-0.605-0.858-0.232c-1.39,2.154-1.931,4.941-3.058,7.262
				c-1.119,2.306-2.561,4.416-4.338,6.262c-3.808,3.951-9.602,5.645-14.974,5.176c-4.696-0.409-9.394-2.301-13.26-4.943
				c-1.979-1.354-3.691-3.098-4.88-5.183c-1.344-2.357-1.1-4.687-0.904-7.262C250.465,271.021,249.534,270.76,249.277,271.308
				L249.277,271.308z"/>
		</g>
	</g>
	<g>
		<g>
			<path fill="none" stroke="#000000" stroke-miterlimit="10" d="M261.837,270.745c-1.222,7.284,4.521,13.094,11.683,12.708
				c6.86-0.37,12.943-6.59,12.213-13.634c-0.09-0.874-1.34-0.906-1.383,0c-0.15,3.281-0.776,6.063-3.099,8.52
				c-1.896,2.004-4.631,3.149-7.339,3.46c-2.607,0.301-5.328-0.349-7.389-2.003c-2.752-2.211-3.185-5.621-3.56-8.898
				C262.896,270.31,261.953,270.052,261.837,270.745L261.837,270.745z"/>
		</g>
	</g>
	<g>
		<g>
			<path fill="none" stroke="#000000" stroke-miterlimit="10" d="M175.814,271.005c-0.804-0.218-1.592-0.575-2.39-0.822
				c-0.065,0.485-0.131,0.969-0.197,1.454c7.902,0.31,15.823,0.337,23.729,0.605c7.888,0.268,15.838,0.737,23.729,0.433
				c0.902-0.035,0.901-1.361,0-1.398c-7.902-0.327-15.822-0.376-23.729-0.646c-7.884-0.27-15.84-0.761-23.729-0.474
				c-1.065,0.039-0.879,1.614,0.197,1.454c0.756-0.113,1.556-0.046,2.32-0.092C176.034,271.502,176.109,271.085,175.814,271.005
				L175.814,271.005z"/>
		</g>
	</g>
	<g>
		<g>
			<path fill="none" stroke="#000000" stroke-miterlimit="10" d="M175.264,270.776c-1.68,1.333-0.113,5.814,0.488,7.438
				c0.958,2.589,2.596,4.865,4.599,6.745c4.199,3.941,10.063,5.75,15.714,6.045c5.86,0.306,11.941-1.302,16.646-4.856
				c2.289-1.729,4.101-4.003,5.437-6.531c1.227-2.322,2.626-5.847,1.907-8.482c-0.121-0.444-0.775-0.444-0.896,0
				c-0.727,2.664-1.005,5.234-2.27,7.747c-1.234,2.454-3.145,4.494-5.331,6.129c-4.285,3.205-9.782,4.458-15.057,4.339
				c-5.265-0.118-10.625-1.868-14.659-5.304c-1.984-1.689-3.531-3.855-4.507-6.268c-0.492-1.214-0.795-2.504-1.009-3.793
				c-0.17-1.022,0.043-2.478-0.819-3.208C175.429,270.71,175.342,270.714,175.264,270.776L175.264,270.776z"/>
		</g>
	</g>
	<g>
		<g>
			<path fill="none" stroke="#000000" stroke-miterlimit="10" d="M184.279,270.195c-1.379,0.355-1.437,2.931-1.386,4.079
				c0.068,1.536,0.701,3.045,1.65,4.24c2.202,2.771,5.77,4.25,9.214,4.667c8.069,0.977,15.997-4.672,13.948-13.552
				c-0.182-0.788-1.391-0.601-1.389,0.188c0.012,3.782-0.106,7.311-3.396,9.798c-2.481,1.876-5.791,2.275-8.8,1.98
				c-2.964-0.291-5.995-1.542-8.031-3.75c-0.902-0.978-1.483-2.252-1.627-3.572c-0.128-1.184,0.813-2.923,0.218-3.916
				C184.597,270.22,184.435,270.155,184.279,270.195L184.279,270.195z"/>
		</g>
	</g>
	<g>
		<g>
			<path fill="none" stroke="#000000" stroke-miterlimit="10" d="M218.025,132.235c-0.571,0.356-0.694,1.015-0.915,1.618
				c-0.646,1.767-1.353,3.497-2.194,5.182c-1.5,3.004-4.277,4.588-6.265,7.181c-1.371,1.789-1.123,3.993,0.212,5.663
				c1.272,1.592,4.254,3.778,6.274,4.174c0.439,0.086,0.998-0.406,0.657-0.854c-1.147-1.509-3.675-2.271-5.16-3.491
				c-3.344-2.746-0.259-5.674,2.048-7.729c1.968-1.751,3.132-3.755,4.191-6.155c0.547-1.239,2.268-4.109,1.541-5.485
				C218.344,132.203,218.153,132.155,218.025,132.235L218.025,132.235z"/>
		</g>
	</g>
	<g>
		<g>
			<path fill="none" stroke="#000000" stroke-miterlimit="10" d="M236.146,133.325c0.043,1.175,1.563,2.668,2.177,3.634
				c1.214,1.911,2.377,3.864,3.741,5.674c1.559,2.068,3.852,4.228,4.093,6.966c0.258,2.924-3.007,5.32-4.71,7.239
				c-0.555,0.624,0.271,1.413,0.9,0.9c2.1-1.708,4.256-3.947,5.094-6.585c0.726-2.284-0.578-4.643-1.821-6.46
				c-1.735-2.536-3.649-4.893-5.315-7.49c-0.711-1.109-2.098-4.29-3.646-4.39C236.389,132.795,236.137,133.059,236.146,133.325
				L236.146,133.325z"/>
		</g>
	</g>
	<g>
		<g>
			<path fill="none" stroke="#000000" stroke-miterlimit="10" d="M214.548,148.824c-0.35,0.439-0.365,0.595-0.046,0.468
				c0.288-0.071,0.588-0.241,0.866-0.344c0.732-0.271,1.494-0.481,2.239-0.711c1.468-0.454,2.952-0.879,4.46-1.173
				c6.362-1.238,12.787-0.666,18.75,1.853c0.822,0.348,1.557-0.789,0.722-1.234c-6.183-3.301-14.554-3.548-21.229-1.76
				c-2.058,0.551-4.171,1.112-6.086,2.062c-0.564,0.279-0.986,1.525-0.009,1.422C214.524,149.373,214.67,149.107,214.548,148.824
				L214.548,148.824z"/>
		</g>
	</g>
	<g>
		<g>
			<path fill="none" stroke="#000000" stroke-miterlimit="10" d="M220.199,145.297c-1.521,1.487-2.191,3.922-3.028,5.84
				c-1.045,2.396-2.123,4.775-3.182,7.164c-2.149,4.849-4.208,9.741-5.979,14.742c-3.539,9.995-5.589,20.648-3.522,31.187
				c0.189,0.967,1.672,0.558,1.477-0.407c-2.14-10.561,0.24-21.188,3.768-31.172c1.81-5.122,4.002-10.098,6.184-15.069
				c0.937-2.136,1.879-4.269,2.801-6.412c0.763-1.772,1.876-3.775,1.79-5.746C220.499,145.269,220.314,145.184,220.199,145.297
				L220.199,145.297z"/>
		</g>
	</g>
	<g>
		<g>
			<path fill="none" stroke="#000000" stroke-miterlimit="10" d="M234.218,146.632c1.996,1.878,3.291,4.385,4.486,6.827
				c1.938,3.959,3.519,8.109,4.942,12.277c4.197,12.271,5.084,25.07,5.43,37.93c0.025,0.941,1.439,0.942,1.461,0
				c0.296-13.499-1.521-27.379-6.057-40.125c-0.642-1.803-7.444-19.974-10.264-17.169
				C234.148,146.441,234.146,146.564,234.218,146.632L234.218,146.632z"/>
		</g>
	</g>
	<g>
		<g>
			<path fill="none" stroke="#000000" stroke-miterlimit="10" d="M217.09,134.083c1.466-0.119,2.914-0.73,4.353-1.045
				c2.039-0.446,4.126-0.663,6.208-0.778c1.931-0.107,3.886-0.038,5.791,0.313c1.178,0.217,2.387,1.24,3.547,1.075
				c0.189-0.027,0.354-0.263,0.341-0.448c-0.199-2.641-6.643-2.508-8.385-2.511c-2.239-0.002-4.476,0.27-6.678,0.654
				c-1.806,0.315-4.093,0.639-5.545,1.847C216.376,133.476,216.649,134.119,217.09,134.083L217.09,134.083z"/>
		</g>
	</g>
	<g>
		<g>
			<path fill="none" stroke="#000000" stroke-miterlimit="10" d="M238.896,137.61c0.082,0.012,0.094,0.056,0.037-0.008
				c0.375,0.425,1.08,0.079,1.08-0.447c0-0.526-0.705-0.873-1.08-0.447c0.057-0.064,0.045-0.02-0.037-0.008
				C238.441,136.762,238.441,137.547,238.896,137.61L238.896,137.61z"/>
		</g>
	</g>
	<g>
		<g>
			<path fill="none" stroke="#000000" stroke-miterlimit="10" d="M239.408,137.182c3.24-3.612,8.175-9.157,2.729-13.216
				c-4.193-3.127-10.785-3.454-15.821-3.305c-5.102,0.151-11.857,0.61-15.488,4.701c-1.645,1.853-1.773,4.281-0.733,6.436
				c1.142,2.365,4.157,5.178,6.383,6.508c0.357,0.213,0.887-0.141,0.734-0.564c-1.433-3.98-9.453-6.569-4.99-11.654
				c3.031-3.454,9.361-3.747,13.585-3.965c4.38-0.227,8.71,0.212,12.888,1.602c2.912,0.968,5.537,2.797,4.451,6.298
				c-0.793,2.554-3.356,4.192-4.599,6.497C238.264,137.051,238.979,137.66,239.408,137.182L239.408,137.182z"/>
		</g>
	</g>
	<g>
		<g>
			<path fill="none" stroke="#000000" stroke-miterlimit="10" d="M214.439,199.945c-5.298,1.156-10.487,3.746-15.216,6.325
				c-4.62,2.52-9.63,5.558-12.993,9.687c-2.934,3.602-4.492,8.217-5.478,12.691c-0.922,4.187-1.619,9.043-1.013,13.314
				c0.118,0.829,1.329,0.554,1.381-0.187c0.302-4.305,0.206-8.456,1.063-12.733c0.901-4.501,2.552-8.975,5.467-12.57
				c3.129-3.86,8.008-6.593,12.278-8.994c4.746-2.667,9.761-4.513,14.777-6.562C215.297,200.676,215.089,199.804,214.439,199.945
				L214.439,199.945z"/>
		</g>
	</g>
	<g>
		<g>
			<path fill="none" stroke="#000000" stroke-miterlimit="10" d="M179.509,240.187c-0.526,2.082-0.196,4.421-0.125,6.549
				c0.094,2.834,0.271,5.667,0.397,8.5c0.112,2.5,0.186,5.002,0.192,7.506c0.007,2.473-0.371,4.976-0.278,7.437
				c0.031,0.81,1.191,0.991,1.419,0.192c1.255-4.395,0.57-9.772,0.389-14.282c-0.114-2.84-0.275-5.678-0.407-8.517
				c-0.111-2.394,0.119-5.062-0.488-7.385C180.467,239.645,179.647,239.639,179.509,240.187L179.509,240.187z"/>
		</g>
	</g>
	<g>
		<g>
			<path fill="none" stroke="#000000" stroke-miterlimit="10" d="M179.762,284.56c-0.671,13.702-0.358,27.48-0.755,41.197
				c-0.424,14.666-1.025,29.363-2.504,43.966c-0.744,7.344-1.827,14.646-3.214,21.896c-1.217,6.358-2.678,12.662-3.51,19.091
				c-0.769,5.945-0.864,12.048,0.717,17.871c1.46,5.377,5.951,9.031,9.863,12.703c0.527,0.495,1.436-0.147,1.025-0.79
				c-1.358-2.126-3.229-3.752-4.995-5.531c-2.222-2.239-3.607-4.537-4.437-7.58c-1.743-6.388-1.008-13.364-0.012-19.808
				c0.961-6.216,2.468-12.332,3.55-18.526c1.232-7.051,2.208-14.119,2.905-21.244c1.367-13.966,1.887-28.025,2.3-42.048
				c0.403-13.674,1.042-27.526,0.38-41.197C181.034,283.714,179.804,283.714,179.762,284.56L179.762,284.56z"/>
		</g>
	</g>
	<g>
		<g>
			<path fill="none" stroke="#000000" stroke-miterlimit="10" d="M177.902,264.832c8.85,0.885,18.787,0.054,26.973-3.588
				c4.267-1.898,7.411-5.408,11.765-7.212c4.564-1.892,9.601-2.451,14.5-2.529c5.112-0.082,10.228,0.551,15.25,1.457
				c4.84,0.872,9.211,2.036,13.404,4.689c3.62,2.291,6.945,4.492,11.279,5.12c6.04,0.875,12.564,0.319,18.641,0.056
				c0.715-0.031,0.717-1.083,0-1.109c-6.318-0.232-12.749,0.604-19.035-0.304c-4.52-0.652-8.074-3.618-11.879-5.872
				c-3.922-2.323-8.354-3.132-12.783-3.925c-4.666-0.835-9.396-1.329-14.138-1.365c-4.603-0.036-9.229,0.517-13.63,1.886
				c-4.341,1.351-7.395,3.996-11.082,6.458c-8.43,5.628-19.594,5.101-29.266,5.426C177.37,264.038,177.389,264.781,177.902,264.832
				L177.902,264.832z"/>
		</g>
	</g>
	<g>
		<g>
			<path fill="none" stroke="#000000" stroke-miterlimit="10" d="M188.082,270.476c-0.784,0.591-1.493,1.441-1.55,2.469
				c-0.064,1.163,0.602,2.126,1.475,2.837c1.22,0.994,2.809,1.016,4.166,0.296c1.06-0.563,2.068-1.756,1.983-3.02
				c-0.099-1.473-1.866-2.362-3.16-1.798c-0.305,0.133-0.232,0.563,0,0.715c0.5,0.327,1.781,0.417,1.833,1.179
				c0.05,0.722-0.666,1.368-1.215,1.71c-0.738,0.46-1.645,0.549-2.423,0.145c-0.615-0.319-1.175-0.952-1.36-1.612
				c-0.221-0.789,0.504-1.659,0.919-2.252C189.022,270.754,188.472,270.182,188.082,270.476L188.082,270.476z"/>
		</g>
	</g>
	<g>
		<g>
			<path fill="none" stroke="#000000" stroke-miterlimit="10" d="M265.189,271.176c-0.494-0.202-0.002-0.376-0.412-0.157
				c-0.178,0.096-0.31,0.26-0.437,0.413c-0.327,0.394-0.542,0.848-0.715,1.326c-0.429,1.193,0.009,2.363,0.767,3.297
				c1.159,1.433,3.08,2.109,4.801,1.298c1.449-0.684,2.396-2.09,2.57-3.669c0.078-0.706-0.139-1.444-0.539-2.021
				c-0.431-0.616-1.302-1.398-2.099-1.108c-0.22,0.08-0.326,0.308-0.212,0.522c0.313,0.589,1.027,0.722,1.402,1.284
				c0.313,0.47,0.332,1.054,0.215,1.589c-0.258,1.154-1.279,2.133-2.408,2.415c-1.58,0.395-3.425-1.246-3.382-2.793
				c0.012-0.393,1.315-2.801,0.602-2.953C264.971,270.54,264.852,271.038,265.189,271.176L265.189,271.176z"/>
		</g>
	</g>
	<g>
		<g>
			<path fill="none" stroke="#000000" stroke-miterlimit="10" d="M212.947,323.029c0.648-6.424,1.555-12.455,5.424-17.829
				c4.209-5.846,11.458-8.805,18.504-8.897c14.786-0.193,24.438,14.946,23.713,28.523c-0.046,0.855,1.164,0.928,1.42,0.191
				c1.402-4.033-0.369-9.183-1.777-13.033c-1.185-3.24-2.967-6.211-5.164-8.86c-4.354-5.246-10.758-8.26-17.532-8.49
				c-15.52-0.526-26.919,13.388-25.649,28.396C211.943,323.717,212.879,323.709,212.947,323.029L212.947,323.029z"/>
		</g>
	</g>
	<g>
		<g>
			<path fill="none" stroke="#000000" stroke-miterlimit="10" d="M233.984,291.391c-0.029,1.531-0.317,3.797,0.676,5.08
				c0.262,0.338,0.879,0.14,0.96-0.253c0.151-0.734-0.05-1.465-0.11-2.203c-0.072-0.872-0.063-1.75-0.08-2.624
				C235.411,290.459,234.002,290.458,233.984,291.391L233.984,291.391z"/>
		</g>
	</g>
	<g>
		<g>
			<path fill="none" stroke="#000000" stroke-miterlimit="10" d="M230.268,292.202c1.393,0.191,2.763,0.049,4.186-0.094
				c1.054-0.106,2.245-0.065,3.085-0.718c0.289-0.224,0.1-0.689-0.205-0.777c0.307,0.088-0.118-0.07-0.162-0.087
				c-0.215-0.08-0.417-0.083-0.643-0.05c-0.69,0.1-1.383,0.183-2.075,0.263c-1.401,0.163-2.814,0.336-4.186,0.558
				C229.823,291.37,229.813,292.14,230.268,292.202L230.268,292.202z"/>
		</g>
	</g>
	<g>
		<g>
			<path fill="none" stroke="#000000" stroke-miterlimit="10" d="M178.814,338.459c1.22-0.795,2.697-0.076,3.917,0.289
				c1.138,0.341,2.2,0.439,3.382,0.521c2.411,0.166,4.832,0.15,7.247,0.207c5.551,0.129,10.237,1.442,15.184,3.943
				c4.054,2.051,7.977,4.297,12.354,5.6c4.904,1.459,10.315,1.164,15.37,1.071c5.346-0.099,10.688-0.43,16.021-0.747
				c4.456-0.266,7.723-1.816,11.285-4.437c1.947-1.433,3.85-2.775,6.117-3.66c2.195-0.856,4.673-1.201,6.979-1.627
				c4.767-0.879,9.611-1.392,14.313-2.597c0.896-0.23,0.517-1.616-0.383-1.388c-8.854,2.269-18.951,1.662-26.605,7.212
				c-1.794,1.299-3.561,2.535-5.459,3.68c-2.264,1.365-5.268,1.369-7.82,1.498c-5.771,0.291-11.531,0.65-17.313,0.688
				c-5.717,0.036-11.063-0.303-16.371-2.581c-4.583-1.966-8.775-4.759-13.478-6.459c-4.256-1.54-8.859-1.552-13.323-1.613
				c-2.674-0.037-5.311-0.015-7.901-0.758c-1.466-0.42-2.955-0.77-3.981,0.555C178.105,338.175,178.418,338.718,178.814,338.459
				L178.814,338.459z"/>
		</g>
	</g>
	<g>
		<g>
			<path fill="none" stroke="#000000" stroke-miterlimit="10" d="M203.362,210.924c-2.875-2.331-7.526,1.812-9.246,3.882
				c-2.68,3.229-5.414,8.306-5.518,12.589c-0.012,0.472,0.599,0.579,0.837,0.227c2.108-3.114,3.015-6.942,5.059-10.145
				c1.096-1.717,2.482-3.251,4.201-4.355c1.446-0.929,3.22-0.678,4.583-1.547C203.483,211.443,203.578,211.1,203.362,210.924
				L203.362,210.924z"/>
		</g>
	</g>
	<g>
		<g>
			<path fill="none" stroke="#000000" stroke-miterlimit="10" d="M244.105,198.274c-0.041,1.593,3.453,2.75,4.506,3.255
				c3.842,1.841,7.789,3.462,11.688,5.178c3.626,1.597,7.328,3.168,10.717,5.24c4.537,2.775,7.228,8.583,8.939,13.395
				c2.179,6.122,2.967,12.687,3.654,19.113c0.791,7.388,1.591,14.774,2.127,22.186c1.176,16.253,1.385,32.559,1.945,48.839
				c0.367,10.664,1.086,21.308,1.448,31.971c0.354,10.445,0.56,20.926,1.772,31.316c0.55,4.707,1.279,9.394,2.17,14.047
				c0.939,4.918,2.926,9.445,4.734,14.09c1.82,4.674,3.524,9.561,2.728,14.636c-0.728,4.623-3.679,8.598-6.91,11.819
				c-0.532,0.529,0.248,1.261,0.808,0.807c4.575-3.715,7.519-8.645,7.939-14.582c0.48-6.753-3.249-13.524-5.588-19.644
				c-2.783-7.282-3.658-15.345-4.57-23.046c-0.93-7.854-1.128-15.804-1.396-23.703c-0.547-16.155-1.506-32.289-1.983-48.447
				c-0.481-16.278-0.916-32.569-2.526-48.784c-0.859-8.66-1.49-17.49-3.473-25.982c-1.541-6.601-4.547-14.633-10.281-18.754
				c-4.462-3.206-10.084-5.133-15.093-7.286c-2.603-1.118-5.209-2.227-7.78-3.412c-0.617-0.284-4.248-1.827-4.238-2.251
				C245.459,197.412,244.128,197.415,244.105,198.274L244.105,198.274z"/>
		</g>
	</g>
	<g>
		<g>
			<path fill="none" stroke="#000000" stroke-miterlimit="10" d="M178.16,438.878c4.88,5.081,12.383,7.507,19.001,9.207
				c8.691,2.232,17.723,3.092,26.667,3.418c6.482,0.235,12.975,0.104,19.453-0.222c6.934-0.349,13.93-0.76,20.726-2.249
				c5.729-1.256,11.246-3.364,16.494-5.964c5.554-2.75,11.337-6.22,15.804-10.557c0.543-0.525-0.177-1.501-0.818-1.062
				c-6.204,4.25-11.983,8.543-18.895,11.65c-6.509,2.929-13.525,4.786-20.613,5.565c-13.004,1.43-26.311,1.75-39.358,0.771
				c-11.735-0.881-25.061-2.768-35.052-9.566c-0.867-0.59-1.7-1.224-2.485-1.917C178.456,437.402,177.572,438.267,178.16,438.878
				L178.16,438.878z"/>
		</g>
	</g>
</g>
<g>
	<g>
		<path fill="none" stroke="#000000" stroke-miterlimit="10" d="M272.07,445.82c0.02,0.087,0.039,0.174,0.059,0.261
			c0.023,0.414,0.25,0.661,0.619,0.813c2.088,0.861,4.636,0.604,6.822,0.437c3.707-0.285,7.391-0.938,11.037-1.627
			c3.763-0.712,7.498-1.571,11.22-2.475c2.603-0.631,5.756-1.097,8.101-2.45c0.443-0.257,0.253-0.964-0.261-0.961
			c-2.57,0.017-5.31,1.027-7.795,1.607c-3.902,0.909-7.812,1.771-11.742,2.54c-3.646,0.714-7.317,1.336-11.022,1.634
			c-1.328,0.106-2.662,0.14-3.994,0.063c-0.504-0.029-0.993-0.112-1.48-0.241c-0.225-0.06-1.102,0.006-1.146-0.016
			C272.23,445.277,271.893,445.547,272.07,445.82L272.07,445.82z"/>
	</g>
</g>
<g>
	<g>
		<path fill="none" stroke="#000000" stroke-miterlimit="10" d="M294.163,443.377c-0.022,0.027-0.048,0.056-0.072,0.083
			c-0.223-0.081-0.5,0.015-0.661,0.175c-2.375,2.368-3.853,5.503-4.285,8.818c-0.506,3.868,1.862,8.58,5.689,9.815
			c0.646,0.21,0.977-0.6,0.607-1.045c-1.291-1.562-2.864-2.609-3.844-4.457c-0.824-1.552-0.878-3.428-0.6-5.12
			c0.432-2.633,1.916-5.087,3.498-7.188c0.15-0.201,0.095-0.48,0-0.687c0.042,0.021,0.084,0.043,0.126,0.063
			C294.813,443.568,294.432,443.176,294.163,443.377L294.163,443.377z"/>
	</g>
</g>
<g>
	<g>
		<path fill="none" stroke="#000000" stroke-miterlimit="10" d="M290.061,457.94c-0.078-0.076-1.021,2.567-1.063,2.701
			c-0.651,2.038-1.49,4.022-2.401,5.956c-1.457,3.099-4.072,5.435-6.297,7.97c-1.568,1.788-2.943,3.798-2.97,6.252
			c-0.029,2.781,2.431,5.47,4.668,6.758c0.687,0.395,1.288-0.488,0.81-1.05c-2.408-2.824-5.048-4.999-2.795-8.804
			c1.57-2.649,4.139-4.65,6.002-7.087c1.024-1.337,7.305-12.527,4.424-13.344C290.063,457.188,289.784,457.669,290.061,457.94
			L290.061,457.94z"/>
	</g>
</g>
<g>
	<g>
		<path fill="none" stroke="#000000" stroke-miterlimit="10" d="M278.212,482.879c-1.669,1.44-3.134,3.213-4.853,4.686
			c-2.123,1.818-4.334,3.804-5.201,6.548c-1.243,3.929,2.318,9.6,6.431,10.02c4.923,0.503,9.796-3.106,13.611-5.737
			c3.884-2.678,8.228-7.068,12.995-8.019c0.931-0.186,0.533-1.59-0.391-1.416c-4,0.752-7.674,3.964-10.888,6.26
			c-4.019,2.869-8.428,6.401-13.416,7.28c-2.144,0.378-4.024-0.474-5.254-2.234c-1.87-2.679-2.173-5.641-0.149-8.253
			c1.676-2.166,4-3.753,5.951-5.647c0.85-0.824,2.385-2.29,1.404-3.484C278.393,482.803,278.275,482.822,278.212,482.879
			L278.212,482.879z"/>
	</g>
</g>
<g>
	<g>
		<path fill="none" stroke="#000000" stroke-miterlimit="10" d="M304.268,422.267c-0.203,0.21-0.524,0.439-0.658,0.7
			c-0.029,0.061,0.031,0.121,0.092,0.091c0.261-0.133,0.488-0.454,0.699-0.657C304.486,422.315,304.352,422.18,304.268,422.267
			L304.268,422.267z"/>
	</g>
</g>
<g>
	<g>
		<path fill="none" stroke="#000000" stroke-miterlimit="10" d="M298.673,424.227c4.89,2.254,10.476,1.131,15.648,0.75
			c4.779-0.351,11.489-0.238,15.148,3.443c2.297,2.312,0.564,5.492-1.263,7.425c-2.736,2.896-6.419,3.962-10.015,5.317
			c-0.533,0.201-0.481,1.025,0.14,1.028c5.702,0.019,16.189-6.07,13.585-13.066c-1.429-3.838-6.488-5.031-10.022-5.62
			c-7.595-1.264-15.195,1.578-22.723-0.462C298.48,422.854,297.99,423.912,298.673,424.227L298.673,424.227z"/>
	</g>
</g>
<g>
	<g>
		<path fill="none" stroke="#000000" stroke-miterlimit="10" d="M327.834,436.041c-2.669,3.95-5.186,7.804-8.369,11.385
			c-3.428,3.857-7.117,7.474-10.723,11.162c-3.534,3.617-6.961,7.33-10.036,11.35c-2.836,3.709-6.028,8.242-7.051,12.877
			c-0.166,0.753,0.896,1.271,1.284,0.541c2.312-4.354,4.229-8.582,7.22-12.567c3.231-4.306,7.008-8.197,10.765-12.042
			c3.59-3.674,7.239-7.293,10.592-11.189c2.826-3.284,5.87-6.956,7.375-11.068C329.128,435.838,328.182,435.527,327.834,436.041
			L327.834,436.041z"/>
	</g>
</g>
<g>
	<g>
		<path fill="none" stroke="#000000" stroke-miterlimit="10" d="M294.063,477.592c-0.562,3.046,8.02,1.296,9.231,1.085
			c2.999-0.521,5.964-1.29,8.839-2.291c1.82-0.635,4.292-1.39,5.245-3.165c0.221-0.41-0.209-0.772-0.599-0.599
			c-3.65,1.64-7.322,3.012-11.258,3.938c-2.375,0.559-4.793,0.983-7.228,1.147c-0.929,0.063-2.951,0.394-3.763-0.239
			C294.383,477.353,294.104,477.36,294.063,477.592L294.063,477.592z"/>
	</g>
</g>
<g>
	<g>
		<path fill="none" stroke="#000000" stroke-miterlimit="10" d="M296.747,500.219c-0.677-2.434,1.333-5.207,2.631-7.074
			c2.296-3.304,5.202-6.226,8.084-9.014c5.444-5.27,11.423-10.523,17.961-14.407c0.939-0.559,0.116-1.913-0.846-1.446
			c-1.815,0.88-3.659,1.56-5.635,1.963c-0.318,0.063-3.514,0.54-3.598-0.159c-0.125-1.04,2.948-2.313,3.626-2.65
			c2.014-0.998,4.187-1.676,6.395-2.073c0.949-0.173,2.749-0.404,3.376,0.572c0.479,0.746-0.262,2.072-0.601,2.708
			c-1.378,2.591-3.854,4.678-6.231,6.306c-6.651,4.551-12.24,11.194-16.961,17.639c-1.488,2.031-2.527,4.527-4.332,6.308
			c-1.909,1.883-5.367,1.71-7.813,2.063c-0.844,0.122-0.619,1.465,0.197,1.458c3.068-0.023,6.717-0.306,9.023-2.577
			c0.986-0.972,1.683-2.267,2.406-3.431c1.506-2.419,3.187-4.693,4.969-6.918c3.61-4.51,7.771-8.492,12.221-12.164
			c3.112-2.569,6.53-4.763,8.332-8.533c0.826-1.729,0.928-4.167-1.233-4.921c-3.873-1.353-9.17,1.214-12.403,3.126
			c-1.51,0.893-3.942,3.16-1.617,4.607c2.911,1.814,8.118-0.626,10.727-1.876c-0.282-0.481-0.563-0.965-0.846-1.446
			c-7.181,4.226-13.727,9.994-19.614,15.839c-2.952,2.932-5.809,6.081-7.961,9.66c-1.153,1.917-2.391,4.665-1.04,6.773
			C296.221,500.954,296.881,500.7,296.747,500.219L296.747,500.219z"/>
	</g>
</g>
<g>
	<g>
		<path fill="none" stroke="#000000" stroke-miterlimit="10" d="M305.975,492.692c2.323,2.443,6.164,3.566,9.367,4.271
			c3.341,0.734,6.796,0.723,10.143,0.052c3.316-0.665,6.365-2.263,8.916-4.459c2.33-2.007,6.062-6.291,5.764-9.556
			c-0.038-0.416-0.52-0.676-0.847-0.351c-1.132,1.118-1.547,2.854-2.349,4.231c-0.889,1.528-2.038,2.887-3.324,4.093
			c-2.393,2.242-5.461,3.627-8.628,4.346c-3.203,0.725-6.596,0.529-9.783-0.155c-3.125-0.673-5.771-2.342-8.766-3.32
			C305.967,491.68,305.639,492.339,305.975,492.692L305.975,492.692z"/>
	</g>
</g>
<g>
	<g>
		<path fill="none" stroke="#000000" stroke-miterlimit="10" d="M331.976,481.876c2.819,4.147,10.015,4.285,14.517,3.672
			c4.825-0.657,8.649-4.18,10.431-8.595c1.647-4.087,1.957-8.78,0.193-12.878c-1.382-3.213-6.281-6.6-9.696-4.167
			c-0.329,0.233-0.327,0.786,0.117,0.898c1.599,0.406,3.224,0.011,4.803,0.683c1.542,0.654,2.558,2.006,3.259,3.473
			c1.557,3.251,1.089,7.357-0.031,10.648c-1.339,3.93-4.313,6.9-8.326,7.998c-2.729,0.744-5.775,0.521-8.521,0.018
			c-1.792-0.328-4.713-0.943-6.092-2.252C332.295,481.061,331.703,481.475,331.976,481.876L331.976,481.876z"/>
	</g>
</g>
<g>
	<g>
		<path fill="none" stroke="#000000" stroke-miterlimit="10" d="M350.436,457.294c-2.33-0.688-5.164,2.979-6.362,4.48
			c-2.088,2.618-3.745,5.827-3.873,9.226c0.196-0.258,0.392-0.515,0.588-0.771c-3.119,0.626-6.241,1.246-9.331,2.006
			c0.325,0.325,0.651,0.651,0.978,0.978c1.696-8.617,12.182-12.437,18.992-16.148c0.973-0.529,0.119-1.899-0.852-1.457
			c-7.358,3.348-17.928,8.38-19.674,17.185c-0.117,0.595,0.36,1.128,0.978,0.979c3.092-0.756,6.215-1.371,9.335-1.994
			c0.355-0.071,0.575-0.436,0.588-0.772c0.121-3.21,1.833-6.179,3.765-8.657c0.751-0.964,1.612-1.824,2.524-2.635
			c0.776-0.688,1.8-1.033,2.518-1.768C350.813,457.73,350.716,457.377,350.436,457.294L350.436,457.294z"/>
	</g>
</g>
<g>
	<g>
		<path fill="none" stroke="#000000" stroke-miterlimit="10" d="M329.369,468.964c3.286-1.769,5.825-4.542,8.318-7.257
			c2.896-3.152,5.965-5.667,10.099-7.003c1.762-0.569,3.545-1.019,5.296-1.637c1.405-0.497,2.933-1.085,4.43-0.696
			c2.051,0.531,3.147,4.167,3.236,5.943c0.143,2.843-2.074,5.635-4.604,6.667c-0.854,0.349-0.531,1.504,0.38,1.37
			c4.438-0.646,6.695-6.351,5.573-10.271c-1.168-4.078-3.828-6.289-7.988-5.14c-4.769,1.315-9.797,2.733-13.734,5.818
			c-4.271,3.343-7.185,7.86-11.742,10.94C327.855,468.227,328.532,469.414,329.369,468.964L329.369,468.964z"/>
	</g>
</g>
<g>
	<g>
		<path fill="none" stroke="#000000" stroke-miterlimit="10" d="M357.263,450.596c2.188-1.793,1.011-4.038-1.593-4.318
			c-3.217-0.348-7.429,2.697-7.938,5.891c-0.091,0.563,0.582,1.116,1.045,0.608c0.865-0.953,1.435-2.097,2.361-3.009
			c0.871-0.854,1.98-1.431,3.154-1.733c1.738-0.449,3.325,0.147,2.388,2.112C356.493,450.536,356.934,450.864,357.263,450.596
			L357.263,450.596z"/>
	</g>
</g>
<g>
	<g>
		<path fill="none" stroke="#000000" stroke-miterlimit="10" d="M268.164,497.498c-0.398,0.365-1.036,0.559-1.492,1.004
			c-1.326,1.298-2.561,2.715-4.09,3.784c-0.318,0.224-0.465,0.545-0.38,0.934c0.506,2.3,0.882,4.629,1.261,6.953
			c0.244,1.492,0.186,3.311,1.178,4.521c0.271,0.326,0.723,0.091,0.85-0.226c0.523-1.305-0.047-2.881-0.27-4.213
			c-0.416-2.494-0.787-5.024-1.423-7.475c-0.127,0.312-0.254,0.623-0.38,0.934c1.469-1.082,2.732-2.401,3.914-3.786
			c0.592-0.691,0.785-1.474,1.207-2.141C268.688,497.551,268.357,497.321,268.164,497.498L268.164,497.498z"/>
	</g>
</g>
<g>
	<g>
		<path fill="none" stroke="#000000" stroke-miterlimit="10" d="M261.885,503.404c-1.648,3.044,8.26,3.505,9.393,3.601
			c8.313,0.698,16.705,0.675,25.039,0.529c3.771-0.066,7.541-0.187,11.307-0.403c2.186-0.126,4.504-0.16,6.641-0.686
			c5.688-1.401,11.233-3.629,16.646-5.834c13.409-5.466,27.749-12.067,38.132-22.427c3.645-3.638,6.975-8.347,6.894-13.707
			c-0.11-7.386-7.147-12.027-13.984-8.803c-0.797,0.376-0.228,1.613,0.587,1.393c3.033-0.826,6.235-1.142,8.876,0.904
			c1.414,1.097,2.146,3.11,2.535,4.798c0.664,2.884-0.246,5.836-1.634,8.354c-3.673,6.662-10.718,11.417-17.003,15.343
			c-7.455,4.657-15.445,8.481-23.548,11.867c-5.661,2.366-11.454,4.626-17.386,6.228c-3.189,0.861-6.713,0.793-9.99,0.938
			c-5.656,0.248-11.32,0.315-16.98,0.298c-5.514-0.019-11.04-0.135-16.538-0.585c-0.711-0.058-8.187-0.901-8.033-1.407
			C263.005,503.241,262.165,502.886,261.885,503.404L261.885,503.404z"/>
	</g>
</g>
<g>
	<g>
		<path fill="none" stroke="#000000" stroke-miterlimit="10" d="M262.333,515.734c14.106,0.255,28.124,2.319,42.229,2.318
			c10.142,0,20.104-2.088,29.821-4.848c9.65-2.739,19.146-6.38,27.843-11.416c7.717-4.468,15.136-10.445,19.177-18.566
			c2.694-5.417,3.666-11.954,1.116-17.608c-2.71-6.015-8.785-11.003-15.688-9.889c-0.743,0.12-0.495,1.186,0.167,1.235
			c6.491,0.494,11.641,3.8,14.142,9.939c1.99,4.885,1.061,10.296-1.05,14.967c-3.93,8.697-12.246,14.765-20.332,19.297
			c-8.944,5.013-18.754,8.471-28.635,11.113c-10.778,2.883-21.465,4.309-32.647,3.864c-11.951-0.474-24.186-2.964-36.145-1.878
			C261.404,514.35,261.372,515.717,262.333,515.734L262.333,515.734z"/>
	</g>
</g>
<g>
	<g>
		<path fill="none" stroke="#000000" stroke-miterlimit="10" d="M176.124,334.119c-1.986,2.501-4.791,4.309-7.401,6.088
			c-3.332,2.271-6.72,4.457-10.011,6.787c-2.807,1.986-5.606,4.105-7.872,6.711c-2,2.3-2.63,4.923-2.669,7.936
			c-0.171,13.277,16.082,16.476,23.382,24.486c0.579,0.637,1.729-0.229,1.203-0.928c-6.553-8.708-22.558-10.463-22.988-23.561
			c-0.24-7.31,7.038-11.507,12.346-15.16c5.03-3.465,11.262-6.631,15.054-11.556C177.625,334.328,176.591,333.531,176.124,334.119
			L176.124,334.119z"/>
	</g>
</g>
<g>
	<g>
		<path fill="none" stroke="#000000" stroke-miterlimit="10" d="M178.229,348.225c0.045-0.045,0.104-0.093,0.13-0.151
			c0.052-0.119-0.004-0.315-0.17-0.296c-0.145,0.017-0.482,0.33-0.58,0.273c-0.195-0.113-0.494-0.139-0.687,0
			c-2.941,2.102-5.738,4.415-8.548,6.688c-1.372,1.109-2.742,2.222-4.111,3.334c-0.44,0.357-0.985,0.685-1.24,1.207
			c-0.1,0.205-0.431,0.691-0.22,0.519c-0.41,0.335,0.174,0.912,0.58,0.58c-0.35,0.286,0.003,0.063,0.287-0.007
			c0.535-0.132,0.873-0.404,1.295-0.75c1.399-1.146,2.8-2.293,4.201-3.438c2.87-2.344,5.747-4.678,8.581-7.063
			c0.181-0.152,0.235-0.442,0.175-0.662c0.068,0.246,0.545-1.071,0.036-0.505C177.794,348.136,178.05,348.396,178.229,348.225
			L178.229,348.225z"/>
	</g>
</g>
<g>
	<g>
		<path fill="none" stroke="#000000" stroke-miterlimit="10" d="M157.094,359.35c5.428,0.455,9.933,3.301,13.671,7.127
			c1.685,1.726,3.121,3.678,4.366,5.737c0.917,1.519,1.421,3.238,2.473,4.659c0.346,0.467,0.992,0.29,1.056-0.286
			c0.211-1.919-0.953-3.729-1.885-5.334c-1.398-2.407-3.194-4.601-5.14-6.581c-3.792-3.861-8.967-7.049-14.54-6.846
			C156.102,357.861,156.125,359.27,157.094,359.35L157.094,359.35z"/>
	</g>
</g>
<g>
	<g>
		<path fill="none" stroke="#000000" stroke-miterlimit="10" d="M290.846,319.333c-0.541-0.548-1.078-1.101-1.535-1.724
			c-0.388-0.524-1.276-0.016-0.886,0.519c1.705,2.315,4.042,3.388,6.457,4.876c3.45,2.125,6.78,4.438,10.249,6.533
			c7.041,4.253,14.676,6.656,22.955,6.005c-0.317-0.317-0.636-0.636-0.953-0.953c-0.816,6.328-4.555,11.896-8.423,16.788
			c-4.175,5.281-8.983,10.034-13.617,14.903c-1.685,1.771-3.698,3.563-5.024,5.626c-1.115,1.738-1.9,3.718-2.727,5.604
			c-0.838,1.913-1.634,3.85-2.596,5.705c-0.211,0.409-0.473,1.045-0.855,1.328c0.727-0.534,0.863,0.613,0.637-0.393
			c-0.129-0.574-0.233-1.146-0.377-1.719c-0.139-0.55-0.996-0.565-1.123,0c-0.241,1.064-0.618,3.135,0.643,3.778
			c1.313,0.671,2.24-1.144,2.725-2.032c2.598-4.783,3.871-9.834,7.605-13.931c5.342-5.858,11.085-11.332,16.068-17.515
			c4.265-5.293,8.096-11.276,8.972-18.146c0.063-0.487-0.481-0.991-0.953-0.952c-8.296,0.662-15.545-1.873-22.592-6.057
			c-3.097-1.838-6.072-3.871-9.138-5.758c-2.447-1.508-4.929-2.7-7.23-4.396c-0.533-0.392-1.043,0.498-0.518,0.885
			c0.621,0.459,1.175,0.996,1.723,1.535C290.665,320.176,291.174,319.667,290.846,319.333L290.846,319.333z"/>
	</g>
</g>
<g>
	<g>
		<path fill="none" stroke="#000000" stroke-miterlimit="10" d="M290.49,342.441c2.479,0.625,4.824,1.47,7.371,1.963
			c4.007,0.773,8.136,1.511,12.226,1.563c-0.078-0.576-0.156-1.152-0.234-1.729c-8.482,2.229-13.823,8.847-16.788,16.809
			c-2.623,7.051-3.844,15.521-3.285,23.038c0.078,1.043,1.537,1.04,1.617,0c0.539-6.944,0.734-13.7,2.744-20.449
			c2.443-8.2,7.59-15.411,16.182-17.7c0.97-0.258,0.756-1.719-0.234-1.729c-3.954-0.039-7.888-0.775-11.773-1.438
			c-2.525-0.43-5.141-0.563-7.627-1.037C290.227,341.646,290.025,342.325,290.49,342.441L290.49,342.441z"/>
	</g>
</g>
<g>
	<g>
		<path fill="none" stroke="#000000" stroke-miterlimit="10" d="M147.708,51.667c0.23,3.945,1.702,8.002,2.534,11.856
			c1.068,4.951,1.48,10.118,2.686,15.014c0.215,0.875,1.452,0.63,1.504-0.204c0.293-4.727-1.319-9.989-2.327-14.569
			c-0.887-4.035-1.498-8.639-3.232-12.413C148.613,50.785,147.673,51.065,147.708,51.667L147.708,51.667z"/>
	</g>
</g>
<g>
	<g>
		<g>
			<path fill="none" stroke="#000000" stroke-miterlimit="10" d="M40.615,85.851c-13.86-7.163-20.665,12.163-22.856,22.139
				c-1.655,7.533-2.383,15.335-2.302,23.043c0.076,7.206,1.467,13.491,4.874,19.937c2.387,4.517,6.117,8.896,11.319,10.021
				c4.434,0.959,8.74-1.085,12.08-3.856c9.141-7.583,12.775-21.396,11.48-32.801c-0.068-0.604-0.71-1.166-1.319-0.757
				c-6.487,4.351-12.582,9.387-19.349,13.307c-1.01,0.585-0.096,2.157,0.915,1.565c6.751-3.949,12.832-9.004,19.318-13.359
				c-0.439-0.252-0.879-0.504-1.319-0.757c1.071,9.399-1.239,19.154-6.704,26.912c-4.147,5.888-11.496,10.855-18.479,6.489
				c-4.365-2.729-6.906-7.975-8.712-12.588c-1.135-2.9-1.843-5.706-2.137-8.797c-0.697-7.338-0.176-14.878,0.906-22.15
				c1.09-7.326,2.848-14.991,6.724-21.389c1.542-2.546,3.598-4.848,6.32-6.14c2.813-1.334,5.988-0.766,8.81,0.202
				C40.785,87.078,41.176,86.141,40.615,85.851L40.615,85.851z"/>
		</g>
	</g>
	<g>
		<g>
			<path fill="none" stroke="#000000" stroke-miterlimit="10" d="M62.088,107.42c-0.354-0.533-0.778-1.515-1.085-2.145
				c-0.344-0.703-1.461-0.354-1.444,0.391c0.229,9.878,3.61,19.505,4.543,29.333c0.558-0.151,1.116-0.302,1.674-0.454
				c-0.498-0.713-0.473-1.725-0.957-2.497c-0.363-0.579-1.11-0.171-1.028,0.433c0.149,1.108-0.144,2,0.433,2.971
				c0.439,0.739,1.725,0.464,1.674-0.454c-0.543-9.871-3.548-19.534-4.79-29.333c-0.441,0.183-0.882,0.365-1.323,0.548
				c0.456,0.425,1.101,1.268,1.536,1.797C61.674,108.441,62.394,107.878,62.088,107.42L62.088,107.42z"/>
		</g>
	</g>
	<g>
		<g>
			<path fill="none" stroke="#000000" stroke-miterlimit="10" d="M57.565,109.822C59.094,101.166,68.25,92.809,77,91.879
				c-0.293-0.293-0.586-0.586-0.879-0.879c0.298,4.692-3.873,9.522-6.656,12.877c-3.164,3.813-6.796,7.566-10.909,10.363
				c0.296,0.506,0.592,1.013,0.888,1.52c5.384-3.74,10.636,2.662,14.754,5.563c1.922,1.354,4.281,2.546,6.701,2.2
				c2.987-0.426,5.438-2.882,6.637-5.542c0.274-0.608-0.456-1.298-0.975-0.752c-2.149,2.257-4.161,5.176-7.69,4.428
				c-2.609-0.553-4.873-2.646-6.89-4.259c-3.902-3.121-8.581-6.53-13.425-3.156c-0.922,0.642-0.055,2.162,0.888,1.52
				c4.607-3.141,8.584-7.333,12.085-11.64c2.838-3.492,6.655-8.318,6.35-13.12c-0.028-0.438-0.38-0.932-0.879-0.879
				c-9.051,0.961-20.278,9.895-20.586,19.545C56.393,110.318,57.449,110.48,57.565,109.822L57.565,109.822z"/>
		</g>
	</g>
	<g>
		<g>
			<path fill="none" stroke="#000000" stroke-miterlimit="10" d="M90.562,84.744c-1.332,1.833-0.022,5.855,0.394,7.798
				c0.791,3.685,1.935,7.443,4.392,10.359c2.639,3.133,6.684,5.399,9.688,1.503c3.088-4.005,3.333-10.517,3.625-15.329
				c0.311-5.131,0.382-10.614-0.737-15.663c-0.267-1.205-2.113-0.694-1.846,0.509c0.925,4.158,0.888,8.606,0.777,12.84
				c-0.126,4.833-0.513,9.925-2.259,14.479c-0.52,1.354-1.382,3.025-2.892,3.432c-1.777,0.478-3.668-1.617-4.706-2.727
				c-2.379-2.543-3.328-5.964-4.167-9.266c-0.596-2.345-1.491-5.229-1.323-7.677C91.546,84.447,90.83,84.374,90.562,84.744
				L90.562,84.744z"/>
		</g>
	</g>
	<g>
		<g>
			<path fill="none" stroke="#000000" stroke-miterlimit="10" d="M114.465,70.333c0.279,4.021,1.342,7.998,2.054,11.969
				c0.399,2.229,0.78,4.471,0.955,6.729c0.045,0.579-0.146,2.453,0.86,2.453c2.754,0-2.069-19.109-2.817-21.293
				C115.33,69.647,114.421,69.701,114.465,70.333L114.465,70.333z"/>
		</g>
	</g>
	<g>
		<g>
			<path fill="none" stroke="#000000" stroke-miterlimit="10" d="M112.496,70.254c5.322-1.555,10.89,4.658,14.736,7.489
				c0.584,0.43,1.232-0.172,1.295-0.743c0.949-8.612,4.367-17.085,9.267-24.203c-0.56-0.073-1.12-0.146-1.681-0.219
				c0.849,6.015,1.594,12.044,2.327,18.074c0.344,2.829,0.68,5.66,1.01,8.491c0.212,1.817,0.184,3.849,1.014,5.504
				c0.243,0.484,1.01,0.355,1.135-0.148c0.469-1.892-0.086-4.028-0.313-5.938c-0.343-2.875-0.695-5.748-1.051-8.62
				c-0.74-5.956-1.498-11.911-2.348-17.852c-0.124-0.865-1.287-0.793-1.681-0.219c-5.005,7.3-8.695,16.258-9.4,25.13
				c0.432-0.248,0.864-0.496,1.295-0.743c-4.292-3.086-10.219-9.636-16.075-7.117C111.382,69.417,111.846,70.444,112.496,70.254
				L112.496,70.254z"/>
		</g>
	</g>
	<g>
		<g>
			<path fill="none" stroke="#000000" stroke-miterlimit="10" d="M146.933,55.832c0.84-3.099,2.737-5.927,5.581-7.488
				c1.832-1.004,4.332-1.52,6.302-0.601c1.911,0.891,2.022,2.861,1.214,4.609c-0.771,1.671-2.08,3.052-3.405,4.297
				c-2.084,1.958-4.706,3.257-6.748,5.229c-0.451,0.435,0.007,1.289,0.627,1.077c2.833-0.967,5.469-3.248,7.636-5.273
				c1.453-1.358,2.818-2.955,3.617-4.793c1.061-2.442,0.647-5.166-1.782-6.564c-2.426-1.396-5.605-0.876-7.985,0.325
				c-3.466,1.75-5.421,5.193-6.256,8.852C145.557,56.28,146.722,56.607,146.933,55.832L146.933,55.832z"/>
		</g>
	</g>
	<g>
		<g>
			<path fill="none" stroke="#000000" stroke-miterlimit="10" d="M166.314,39.189c0.76,2.151,2.703,4.006,4.247,5.604
				c2.642,2.734,5.699,5.165,8.955,7.123c2.621,1.575,5.683,2.926,8.798,2.504c2.957-0.4,4.565-3.329,4.429-6.086
				c-0.019-0.377-0.577-0.599-0.764-0.207c-1.077,2.248-2.048,4.536-4.872,4.613c-2.802,0.077-5.62-1.643-7.893-3.088
				c-2.704-1.72-5.181-3.806-7.484-6.027c-1.391-1.341-3.317-2.96-4.045-4.813C167.357,37.975,166.005,38.313,166.314,39.189
				L166.314,39.189z"/>
		</g>
	</g>
	<g>
		<g>
			<path fill="none" stroke="#000000" stroke-miterlimit="10" d="M188.262,34.13c-2.488,6.664-2.009,13.987-1.703,20.962
				c0.155,3.529,0.291,7.053,0.118,10.583c-0.195,3.967-1.53,7.343-2.32,11.146c-0.161,0.775,0.772,1.112,1.221,0.515
				c1.747-2.323,2.282-5.691,2.623-8.514c0.452-3.745,0.418-7.497,0.277-11.26c-0.291-7.762-0.957-15.46,1.262-23.026
				C190.021,33.574,188.601,33.222,188.262,34.13L188.262,34.13z"/>
		</g>
	</g>
	<g>
		<g>
			<path fill="none" stroke="#000000" stroke-miterlimit="10" d="M242.089,35.248c-1.655,0.854-2.063,3.412-2.416,5.017
				c-0.823,3.763-1.254,7.616-1.724,11.436c-0.539,4.383-1.028,8.775-1.721,13.138c-0.268,1.678-0.58,3.351-1.002,4.999
				c-0.252,0.988-0.912,2.135-0.824,3.163c0.041,0.479,0.47,0.708,0.898,0.516c1.869-0.839,2.135-5.114,2.44-6.807
				c0.696-3.865,1.13-7.78,1.584-11.679c0.478-4.086,0.92-8.18,1.562-12.244c0.268-1.686,0.426-5.527,1.788-6.777
				C243.098,35.622,242.561,35.004,242.089,35.248L242.089,35.248z"/>
		</g>
	</g>
	<g>
		<g>
			<path fill="none" stroke="#000000" stroke-miterlimit="10" d="M234.225,43.154c1.851-7.058,8.118-11.505,15.004-12.924
				c4.201-0.865,13.609-1.078,14.992,4.403c1.031,4.085-3.017,8.848-5.451,11.623c-3.238,3.693-7.179,7.039-11.563,9.289
				c0.417,0.416,0.833,0.833,1.249,1.249c3.569-5.277,10.185-6.17,15.97-4.629c4.426,1.179,10.857,4.913,9.823,10.39
				c-0.622,3.294-3.892,5.532-6.573,7.085c-4.795,2.777-10.336,3.843-15.783,4.393c-10.773,1.088-21.917-0.168-32.453,2.808
				c-1.063,0.3-0.617,1.909,0.455,1.649c12.685-3.072,25.853-1.109,38.605-3.631c6.466-1.279,17.794-5.44,17.652-13.704
				c-0.102-5.884-6.743-9.526-11.664-10.839c-6.469-1.725-13.704-0.187-17.608,5.555c-0.55,0.809,0.491,1.635,1.249,1.249
				c5.266-2.685,9.956-6.894,13.602-11.511c2.711-3.435,5.846-8.465,3.742-12.92c-2.563-5.437-11.97-5.051-16.713-4.163
				c-7.52,1.408-14.035,6.71-15.648,14.319C232.956,43.571,234.034,43.879,234.225,43.154L234.225,43.154z"/>
		</g>
	</g>
	<g>
		<g>
			<path fill="none" stroke="#000000" stroke-miterlimit="10" d="M289.509,61.094c-5.995,1.401-10.646,9.346-9.378,15.268
				c1.317,6.148,10.268,6.089,13.934,2.334c3.55-3.635,3.51-9.966,1.641-14.365c-1.736-4.086-7.857-6.395-10.51-1.606
				c-0.217,0.391,0.145,0.975,0.617,0.803c1.697-0.617,3.063-2.033,5.017-1.671c1.678,0.311,2.729,1.91,3.401,3.336
				c1.645,3.483,1.41,8.208-0.662,11.447c-2.506,3.915-10.318,4.265-11.754-0.742c-1.459-5.092,3.418-11.919,8.012-13.658
				C290.531,61.972,290.268,60.917,289.509,61.094L289.509,61.094z"/>
		</g>
	</g>
	<g>
		<g>
			<path fill="none" stroke="#000000" stroke-miterlimit="10" d="M306.333,62.52c-2.235-0.099-0.926,0.575-0.336,0.593
				c0.535,0.017,1.07,0.019,1.604,0.02c1.392,0.003,2.781,0.011,4.173,0.021c3.481,0.023,6.962,0.065,10.44,0.22
				c3.369,0.15,6.758,0.381,10.08,0.982c1.414,0.256,4.143,0.576,4.799,2.137c0.191,0.456,0.793,0.621,1.085,0.142
				c2.401-3.939-10.739-4.68-12.23-4.79c-4.069-0.302-8.155-0.371-12.234-0.392c-2.925-0.015-5.995-0.192-8.899,0.204
				c-0.25,0.034-0.412,0.281-0.491,0.491c-0.043,0.113-0.087,0.227-0.13,0.34c-0.075,0.199,0.008,0.494,0.166,0.631
				c0.586,0.505,1.224,0.378,1.975,0.363C306.954,63.467,306.95,62.547,306.333,62.52L306.333,62.52z"/>
		</g>
	</g>
	<g>
		<g>
			<path fill="none" stroke="#000000" stroke-miterlimit="10" d="M319.746,63.323c-2.437,4.075-3.521,9.095-4.882,13.599
				c-1.209,4.004-2.379,8.096-4.319,11.812c-0.201,0.385,0.131,0.93,0.596,0.774c1.279-0.427,1.762-1.592,2.264-2.745
				c0.974-2.237,1.675-4.595,2.388-6.925c1.646-5.371,3.187-10.743,5.197-15.992C321.271,63.108,320.13,62.682,319.746,63.323
				L319.746,63.323z"/>
		</g>
	</g>
	<g>
		<g>
			<path fill="none" stroke="#000000" stroke-miterlimit="10" d="M346.333,68.822c1.646,0.197,3.461,1.088,4.996,1.673
				c2.421,0.922,4.772,2.041,7.11,3.157c4.528,2.164,8.953,4.539,13.441,6.787c0.15-0.556,0.301-1.111,0.451-1.667
				c-0.884,0.026-1.664-0.06-2.553-0.183c-0.371-0.051-0.778,0.4-0.414,0.712c0.914,0.782,1.754,1.191,2.967,1.26
				c0.877,0.05,1.24-1.271,0.451-1.667c-4.684-2.354-9.317-4.802-14.058-7.043c-3.758-1.777-8.14-4.242-12.395-4.005
				C345.69,67.881,345.719,68.749,346.333,68.822L346.333,68.822z"/>
		</g>
	</g>
	<g>
		<g>
			<path fill="none" stroke="#000000" stroke-miterlimit="10" d="M357.977,73.723c-4.673,3.168-7.813,8.986-10.418,13.824
				c-2.571,4.778-5.605,10.622-6.076,16.12c-0.084,0.978,1.424,1.13,1.673,0.227c2.938-10.671,7.758-21.137,15.679-29.06
				C359.39,74.276,358.654,73.263,357.977,73.723L357.977,73.723z"/>
		</g>
	</g>
	<g>
		<g>
			<path fill="none" stroke="#000000" stroke-miterlimit="10" d="M383.907,83.908c-7.431,8.929-12.167,19.841-17.707,29.958
				c-0.339,0.619,0.086,1.382,0.8,1.394c3.64,0.057,7.308,0.97,10.819,1.854c1.837,0.463,3.658,0.996,5.444,1.631
				c0.604,0.215,1.188,0.466,1.766,0.741c0.214,0.102,0.424,0.214,0.63,0.33c0.5,0.28-0.016,0.149,0.071-0.315
				c-0.099,0.527,0.41,0.991,0.918,0.706c2.761-1.554-4.626-3.856-5.15-4.017c-4.606-1.412-9.652-2.713-14.498-2.782
				c0.267,0.465,0.533,0.929,0.8,1.394c5.309-10.289,10.452-20.62,17.054-30.164C385.24,84.077,384.345,83.383,383.907,83.908
				L383.907,83.908z"/>
		</g>
	</g>
	<g>
		<g>
			<path fill="none" stroke="#000000" stroke-miterlimit="10" d="M407.127,102.018c-3.129,5.25-6.483,10.433-9.227,15.888
				c-1.03,2.051-2.078,4.093-3.2,6.096c-0.475,0.846-0.974,1.679-1.508,2.487c-0.219,0.328-0.464,0.633-0.698,0.947
				c-0.246,0.328,0.673,0.586,0.372-0.082c-0.241-0.534-0.967-0.298-1.128,0.147c-0.494,1.364,0.753,2.021,1.829,1.316
				c1.795-1.173,2.915-4.254,3.872-6.062c1.241-2.348,2.396-4.741,3.563-7.127c1.038-2.122,2.563-4.104,3.74-6.164
				c1.294-2.262,2.517-4.563,3.527-6.967C408.552,101.83,407.479,101.429,407.127,102.018L407.127,102.018z"/>
		</g>
	</g>
	<g>
		<g>
			<path fill="none" stroke="#000000" stroke-miterlimit="10" d="M405.319,104.88c3.17-1.748,7.751-0.584,10.966,0.452
				c1.802,0.58,3.587,1.442,5.025,2.685c1.5,1.295,1.372,2.394,1.095,4.153c-0.073,0.462,0.417,1.062,0.905,0.697
				c4.018-2.991-1.933-7.272-4.423-8.408c-4.086-1.864-10.098-3.118-14.208-0.671C403.979,104.205,404.604,105.274,405.319,104.88
				L405.319,104.88z"/>
		</g>
	</g>
	<g>
		<g>
			<path fill="none" stroke="#000000" stroke-miterlimit="10" d="M401.667,118.303c2.529,0.063,4.874,0.388,7.102,1.663
				c0.934,0.534,1.767,1.341,2.18,2.345c0.378,0.918,0.028,1.883,0.253,2.817c0.067,0.285,0.459,0.471,0.711,0.29
				c2.316-1.67,0.354-4.964-1.291-6.305c-2.413-1.967-6.112-2.748-9.122-2.062C400.779,117.216,400.965,118.286,401.667,118.303
				L401.667,118.303z"/>
		</g>
	</g>
	<g>
		<g>
			<path fill="none" stroke="#000000" stroke-miterlimit="10" d="M390.841,130.91c3.239,1.145,5.649,4.892,8.101,7.138
				c2.614,2.396,7.14,5.421,10.853,4.075c0.464-0.168,0.432-0.732,0-0.911c-2.027-0.84-4.183-0.939-6.183-1.972
				c-1.888-0.973-3.474-2.444-4.972-3.923c-2.25-2.22-4.27-4.828-7.479-5.559C390.401,129.584,390.119,130.654,390.841,130.91
				L390.841,130.91z"/>
		</g>
	</g>
</g>
</svg>
