<svg version="1.1" id="Layer_1" x="0px" y="0px"
	 width="464px" height="600px" viewBox="0 0 464 600" enable-background="new 0 0 464 600" xml:space="preserve">
<g>
	<g>
		<path fill="none" stroke="#000000" stroke-miterlimit="10" d="M136.977,302.5c-1.443,12.059,0.729,24.587,2.143,36.552
			c0.699,5.919,1.121,11.735,0.622,17.688c-0.515,6.15-1.644,12.226-2.556,18.324c-0.795,5.313-1.72,10.828-1.25,16.207
			c0.41,4.699,2.308,9.004,3.994,13.348c1.769,4.558,2.805,9.312,4.331,13.939c0.771,2.339,2.043,4.293,3.292,6.389
			c1.052,1.765,2.943,3.008,4.118,4.747c0.254,0.376,0.764,0.128,0.7-0.295c-0.268-1.77-1.198-2.929-2.397-4.2
			c-1.669-1.771-2.846-4.181-3.728-6.43c-1.711-4.36-2.596-8.946-4.478-13.273c-2.103-4.836-4.117-9.741-4.579-15.045
			c-0.504-5.801,0.798-11.977,1.64-17.692c1.667-11.319,2.686-22.288,1.38-33.706c-0.694-6.07-1.461-12.135-1.945-18.229
			c-0.487-6.131-0.351-12.188-0.24-18.323C138.036,301.809,137.055,301.85,136.977,302.5L136.977,302.5z"/>
	</g>
</g>
<g>
	<g>
		<path fill="none" stroke="#000000" stroke-miterlimit="10" d="M322.559,296c-0.349,10.742,0.396,21.868,2.038,32.48
			c2.011,12.98,6.659,25.326,10.243,37.908c3.452,12.119,5.525,24.131,4.114,36.744c-1.367,12.216-5.812,23.807-12.284,34.172
			c-0.228,0.363,0.326,0.809,0.603,0.464c7.128-8.896,11.327-19.964,13.132-31.134c1.982-12.294,0.562-24.351-2.622-36.3
			c-3.532-13.258-8.745-26.042-11.369-39.543c-1.207-6.21-1.672-12.533-1.99-18.842c-0.27-5.33-0.146-10.791-0.995-16.069
			C323.344,295.373,322.574,295.522,322.559,296L322.559,296z"/>
	</g>
</g>
<g>
	<g>
		<path fill="none" stroke="#000000" stroke-miterlimit="10" d="M326.5,438.05c0.064,0,0.064-0.1,0-0.1S326.436,438.05,326.5,438.05
			L326.5,438.05z"/>
	</g>
</g>
<g>
	<g>
		<path fill="none" stroke="#000000" stroke-miterlimit="10" d="M337.146,410.207c1.671,3.021,2.751,5.42,2.653,8.98
			c-0.052,1.938-0.503,3.806-1.121,5.633c-0.537,1.589-1.518,2.988-1.986,4.595c-0.074,0.25,0.235,0.535,0.471,0.361
			c4.59-3.424,7.178-17.6,0.447-20.174C337.254,409.469,336.985,409.918,337.146,410.207L337.146,410.207z"/>
	</g>
</g>
<g>
	<g>
		<path fill="none" stroke="#000000" stroke-miterlimit="10" d="M139.548,401.827c-2.181-0.913-3.128,3.064-3.314,4.477
			c-0.405,3.071,0.045,7.305,2.396,9.566c0.377,0.363,1.01,0.002,0.875-0.509c-0.704-2.672-1.866-4.771-1.871-7.64
			c-0.004-2.265,1.025-3.787,2.021-5.633C139.715,401.979,139.656,401.872,139.548,401.827L139.548,401.827z"/>
	</g>
</g>
<g>
	<g>
		<path fill="none" stroke="#000000" stroke-miterlimit="10" d="M247.865,177.101c2.185-10.427,8.508-19.758,15.035-27.999
			c6.396-8.076,13.166-16.462,21.474-22.652c3.701-2.758,8.101-5.145,12.843-4.951c5.69,0.233,9.559,5.428,11.954,10.011
			c6.136,11.728,9.298,25.25,9.901,38.421c0.334,7.297-0.604,14.299-2.171,21.404c-0.177,0.789,0.928,1.079,1.195,0.33
			c4.146-11.494,2.938-25.201,0.613-36.941c-1.257-6.351-3.18-12.575-5.686-18.542c-2.074-4.937-4.517-10.091-8.812-13.482
			c-7.22-5.701-16.025-1.246-22.279,3.611c-8.024,6.231-14.664,14.586-20.896,22.549c-3.649,4.664-6.933,9.639-9.733,14.855
			c-2.055,3.822-4.898,8.898-4.172,13.386C247.195,177.472,247.791,177.455,247.865,177.101L247.865,177.101z"/>
	</g>
</g>
<g>
	<g>
		<path fill="none" stroke="#000000" stroke-miterlimit="10" d="M186,176.836c-12.183-1.311-21.289-11.368-32.012-16.355
			c-6.061-2.818-13.024-3.417-19.591-4.141c-6.759-0.745-14.199-0.711-20.604-3.173c-5.2-1.999-16.914-9.301-20.051-0.681
			c-1.614,4.434-0.363,9.123,1.224,13.377c1.932,5.178,4.721,10.018,7.482,14.788c6.302,10.887,11.317,22.784,19.224,32.677
			c0.351,0.439,0.941-0.119,0.73-0.563c-3.243-6.81-7.918-12.979-11.507-19.629c-2.7-5.003-5.209-10.055-8.009-15.011
			c-2.838-5.023-5.585-10.219-7.239-15.768c-1.099-3.688-2.121-11.471,3.381-12.102c4.243-0.486,8.911,2.41,12.653,4.017
			c5.375,2.308,11.261,2.707,17.026,3.319c7.521,0.799,15.526,1.138,22.682,3.781c5.849,2.16,11.034,6.077,16.218,9.452
			c5.299,3.449,11.766,7.779,18.392,7.339C186.867,178.106,186.842,176.927,186,176.836L186,176.836z"/>
	</g>
</g>
<g>
	<g>
		<path fill="none" stroke="#000000" stroke-miterlimit="10" d="M125.5,203.918c-0.14,0.003-0.412-0.049-0.53,0.031
			c-0.038,0.026-0.038,0.076,0,0.102c0.118,0.08,0.39,0.028,0.53,0.031C125.606,204.084,125.606,203.916,125.5,203.918
			L125.5,203.918z"/>
	</g>
</g>
<g>
	<g>
		<path fill="none" stroke="#000000" stroke-miterlimit="10" d="M123.452,205.264c1.788-3.701,4.734-6.76,8.361-8.729
			c0.67-0.364,0.168-1.225-0.478-1.134c-2.398,0.337-4.343-0.588-6.487-1.497c0.105,0.259,0.211,0.519,0.316,0.778
			c0.924-5.18,10.843-3.019,14.138-1.964c0.803,0.257,1.328-0.976,0.574-1.362c-3.272-1.679-6.545-3.703-8.718-6.741
			c-0.091,0.348-0.183,0.695-0.273,1.043c5.62-3.015,12.509,1.757,16.151,5.806c0.513,0.57,1.38-0.158,1.03-0.795
			c-2.966-5.415-12.289-9.389-17.951-6.327c-0.34,0.184-0.511,0.713-0.273,1.043c2.344,3.253,5.754,5.46,9.282,7.259
			c0.191-0.454,0.383-0.908,0.574-1.362c-3.979-1.262-14.955-3.309-15.862,3.036c-0.058,0.403,0.096,0.698,0.481,0.847
			c2.458,0.954,4.69,1.797,7.348,1.434c-0.16-0.378-0.319-0.756-0.478-1.134c-3.508,1.813-7.878,5.299-8.692,9.396
			C122.386,205.411,123.179,205.828,123.452,205.264L123.452,205.264z"/>
	</g>
</g>
<g>
	<g>
		<path fill="none" stroke="#000000" stroke-miterlimit="10" d="M142.743,185.257c-0.704-0.876-2.419-2.043-2.497-3.193
			c-0.053-0.793,0.029-1.752,0.98-1.878c1.788-0.238,3.864,1.025,5.375,1.806c1.881,0.972,3.684,2.09,5.502,3.173
			c1.036,0.616,2.159,1.401,3.396,1.286c0.446-0.042,0.611-0.577,0.227-0.837c-3.853-2.604-8.177-5.667-12.753-6.837
			c-1.495-0.382-3.447-0.247-4.056,1.434c-1.097,3.027,1.159,4.287,3.41,5.588C142.686,186.005,142.977,185.548,142.743,185.257
			L142.743,185.257z"/>
	</g>
</g>
<g>
	<g>
		<path fill="none" stroke="#000000" stroke-miterlimit="10" d="M151,184.027c4.814-0.609,9.608-1.197,14.439-1.683
			c5.028-0.505,9.949-1.541,14.927-2.376c11.861-1.991,23.809-2.958,35.833-2.917c8.943,0.031,17.841,0.203,26.779-0.074
			c3.813-0.118,7.631-0.11,11.432,0.259c1.468,0.143,9.929,1.288,9.506,3.604c-0.114,0.626,0.82,1.14,1.105,0.467
			c2.172-5.104-13.088-5.828-15.666-5.898c-4.039-0.11-8.082,0.103-12.117,0.252c-5.123,0.19-10.257,0.004-15.38-0.081
			c-12.46-0.206-24.763,0.402-37.092,2.279c-6.174,0.94-12.278,2.353-18.487,3.048c-5.064,0.567-10.529,0.533-15.419,2.086
			C150.319,183.163,150.386,184.105,151,184.027L151,184.027z"/>
	</g>
</g>
<g>
	<g>
		<path fill="none" stroke="#000000" stroke-miterlimit="10" d="M261.361,178.236c1.264,0.737,3.3,0.323,4.705,0.288
			c2.297-0.058,4.885,0.01,7.012-0.967c5.494-2.525,9.938-8.218,16.422-7.937c-0.199-0.262-0.398-0.523-0.598-0.785
			c-1.309,3.2-3.857,5.394-6.563,7.409c-2.366,1.762-5.3,2.688-7.583,4.513c-0.295,0.236,0.033,0.632,0.335,0.575
			c3.196-0.606,6.522-2.97,9.089-4.881c2.567-1.913,4.737-4.284,5.918-7.286c0.152-0.391-0.229-0.774-0.599-0.785
			c-5.567-0.168-9.606,3.742-14.006,6.573c-2.813,1.812-5.525,2.185-8.782,2.349c-1.578,0.08-3.949-0.357-5.35,0.462
			C261.186,177.868,261.186,178.132,261.361,178.236L261.361,178.236z"/>
	</g>
</g>
<g>
	<g>
		<path fill="none" stroke="#000000" stroke-miterlimit="10" d="M281.73,177.895c2.813-1.295,5.617-2.439,8.629-3.202
			c2.981-0.755,7.731-1.724,10.18,0.768c0-0.307,0-0.614,0-0.921c-2.104,1.783-4.434,3.167-6.938,4.307
			c-2.818,1.282-5.733,1.6-8.695,2.314c-0.327,0.079-0.346,0.611,0,0.678c5.638,1.083,12.435-2.894,16.555-6.378
			c0.271-0.231,0.232-0.684,0-0.921c-2.297-2.343-5.984-2.013-8.952-1.562c-3.704,0.564-8.21,1.807-11.239,4.128
			C280.805,177.461,281.188,178.145,281.73,177.895L281.73,177.895z"/>
	</g>
</g>
<g>
	<g>
		<path fill="none" stroke="#000000" stroke-miterlimit="10" d="M290.367,180.482c5.865,2.182,12.93-3.834,18.175,0.476
			c0-0.305,0-0.611,0-0.916c-1.531,1.381-3.418,2.03-5.397,2.477c-0.94,0.212-2.008,0.133-2.875,0.587
			c-0.285,0.15-0.311,0.647,0,0.789c1.116,0.512,2.67-0.008,3.795-0.26c1.993-0.447,3.876-1.302,5.396-2.676
			c0.242-0.219,0.266-0.702,0-0.916c-5.522-4.468-12.604,0.745-18.825-0.524C289.996,179.388,289.766,180.258,290.367,180.482
			L290.367,180.482z"/>
	</g>
</g>
<g>
	<g>
		<path fill="none" stroke="#000000" stroke-miterlimit="10" d="M299.5,183.918c2.516-0.326,4.471,0.676,6.808,1.393
			c2.031,0.623,4.013,0.157,6.065-0.05c1.23-0.124,3.304,0.258,3.768,1.646c0.307,0.91,0.271,1.995,0.394,2.944
			c0.206,1.587,0.71,3.31,2.216,4.081c0.431,0.221,0.953-0.234,0.684-0.684c-1.343-2.237-1.408-4.242-1.96-6.708
			c-0.334-1.5-2.215-2.418-3.618-2.593c-2.711-0.338-5.15,0.706-7.895-0.104c-2.268-0.669-4.232-1.707-6.568-0.744
			C298.996,183.259,298.99,183.984,299.5,183.918L299.5,183.918z"/>
	</g>
</g>
<g>
	<g>
		<path fill="none" stroke="#000000" stroke-miterlimit="10" d="M316.612,188.727c1.694,2.793,5.081,3.938,6.947,6.63
			c2.187,3.146,2.86,7.254,3.469,10.95c0.618,3.765,0.761,7.599,1.313,11.375c0.768,5.217,1.381,10.458,1.917,15.704
			c1.036,10.137,1.607,20.321,1.647,30.511c0.019,4.705,0.04,9.456-0.313,14.15c-0.18,2.407-0.624,4.756-1.198,7.096
			c-0.281,1.149-1.6,6.239-2.896,6.34c0.173,0.173,0.346,0.345,0.519,0.518c-0.261-3.817,1.189-8.926-2.81-11.357
			c-0.379-0.23-0.736,0.211-0.566,0.566c0.765,1.59,1.612,2.982,1.964,4.74c0.381,1.903,0.534,4.119,0.376,6.051
			c-0.022,0.297,0.257,0.498,0.52,0.518c2.336,0.182,3.858-6.07,4.373-7.816c1.342-4.558,1.207-9.455,1.333-14.149
			c0.307-11.453-0.257-22.922-1.304-34.327c-0.921-10.045-2.223-20.1-3.531-30.101c-0.501-3.815-1.203-7.668-3.228-11.002
			c-1.899-3.134-5.173-4.583-7.826-6.941C316.947,187.853,316.337,188.273,316.612,188.727L316.612,188.727z"/>
	</g>
</g>
<g>
	<g>
		<path fill="none" stroke="#000000" stroke-miterlimit="10" d="M319.446,290.153c0.715,2.253,1.747,4.217,1.396,6.666
			c-0.076,0.532,0.442,1.139,1,0.769c2.188-1.453,3.769-3.394,4.808-5.803c0.829-1.92,1.587-4.883,0.75-6.895
			c-0.146-0.344-0.696-0.442-0.801,0c-0.442,1.915-0.295,3.836-0.938,5.757c-0.799,2.375-2.447,4.375-4.504,5.765
			c0.334,0.256,0.667,0.513,1,0.769c0.361-2.699-0.461-5.072-1.66-7.471C320.203,289.125,319.251,289.536,319.446,290.153
			L319.446,290.153z"/>
	</g>
</g>
<g>
	<g>
		<path fill="none" stroke="#000000" stroke-miterlimit="10" d="M123.141,205.012c1.197-0.292,0.07,0.642-0.35,1.303
			c-0.839,1.32-1.463,2.769-2.051,4.213c-1.501,3.691-2.365,7.631-3.121,11.53c-1.355,6.988-2.193,14.099-3.146,21.151
			c-0.936,6.937-1.514,13.98-0.82,20.967c0.56,5.645,2.248,13.193,7.539,16.349c0.6,0.358,1.224-0.466,0.738-0.957
			c-9.225-9.326-7.602-24.175-6.043-36.167c0.819-6.303,1.661-12.629,2.74-18.894c1.111-6.442,2.406-13.832,6.392-19.205
			c0.172-0.232,0.061-0.532-0.094-0.729c-0.824-1.048-1.024-0.985-2.066-0.587C122.229,204.229,122.464,205.177,123.141,205.012
			L123.141,205.012z"/>
	</g>
</g>
<g>
	<g>
		<path fill="none" stroke="#000000" stroke-miterlimit="10" d="M123.184,266.413c-0.393,2.145,0.04,4.53-0.268,6.75
			c-0.325,2.345-0.796,4.663-1.033,7.021c-0.458,4.548,0.598,9.375,4.808,11.846c0.397,0.233,0.929-0.063,0.923-0.529
			c-0.065-4.981-0.093-10.231-1.376-15.065c-0.072-0.272-0.478-0.21-0.483,0.065c-0.093,5.005,0.644,9.987,0.633,15
			c0.349-0.145,0.698-0.289,1.047-0.434c-1.927-1.634-3.332-3.186-3.987-5.691c-0.632-2.414-0.259-5.079,0.075-7.507
			c0.417-3.037,2.298-8.814,0.262-11.534C123.633,266.134,123.241,266.101,123.184,266.413L123.184,266.413z"/>
	</g>
</g>
<g>
	<g>
		<path fill="none" stroke="#000000" stroke-miterlimit="10" d="M126.008,289c-0.001,4.762,3.749,9.506,8.288,10.742
			c0.691,0.188,1.153-0.541,0.869-1.13c-2-4.159-1.02-9.847-4.438-13.338c-0.21-0.214-0.662,0.003-0.536,0.312
			c1.796,4.386,2.526,9.016,3.567,13.62c0.316-0.315,0.631-0.631,0.947-0.947c-4.505-1.188-6.451-5.305-7.73-9.389
			C126.81,288.344,126.008,288.433,126.008,289L126.008,289z"/>
	</g>
</g>
<g>
	<g>
		<path fill="none" stroke="#000000" stroke-miterlimit="10" d="M131.977,296.645c0.706,3.621,3.756,6.548,6.521,8.776
			c3.555,2.866,7.726,4.972,11.92,6.728c4.728,1.979,9.602,3.547,14.563,4.822c3.984,1.024,8.36,2.409,12.52,2.232
			c0.184-0.008,0.301-0.292,0.103-0.379c-3.461-1.504-7.402-2.037-11.041-2.98c-4.516-1.17-8.988-2.58-13.342-4.256
			c-4.344-1.672-8.563-3.745-12.376-6.429c-3.439-2.421-5.702-5.403-7.875-8.933C132.635,295.684,131.86,296.05,131.977,296.645
			L131.977,296.645z"/>
	</g>
</g>
<g>
	<g>
		<path fill="none" stroke="#000000" stroke-miterlimit="10" d="M319.195,292.689c-2.155,6.205-7.88,10.073-13.326,13.31
			c-5.289,3.144-11.005,5.118-16.551,7.69c-0.322,0.148-0.166,0.692,0.182,0.67c2.764-0.194,5.348-1.248,7.873-2.324
			c3.584-1.528,7.068-3.27,10.421-5.258c4.662-2.762,12.639-7.68,12.932-13.881C320.77,291.975,319.472,291.894,319.195,292.689
			L319.195,292.689z"/>
	</g>
</g>
<g>
	<g>
		<path fill="none" stroke="#000000" stroke-miterlimit="10" d="M174.327,411.452c-0.333,1.803,0.428,3.761,0.843,5.515
			c0.625,2.646,1.285,5.284,2.016,7.902c1.522,5.454,3.252,10.847,4.859,16.273c1.51,5.101,2.854,10.248,3.791,15.485
			c0.501,2.806,0.81,5.639,0.949,8.484c0.113,2.306-0.407,4.82,0.057,7.065c0.152,0.738,1.087,0.561,1.318,0
			c0.777-1.876,0.499-4.291,0.446-6.29c-0.066-2.452-0.358-4.895-0.709-7.318c-0.796-5.499-2.25-10.896-3.813-16.22
			c-1.6-5.447-3.442-10.817-5.154-16.231c-0.826-2.614-1.658-5.229-2.393-7.87c-0.601-2.16-0.693-4.938-1.882-6.841
			C174.579,411.287,174.356,411.291,174.327,411.452L174.327,411.452z"/>
	</g>
</g>
<g>
	<g>
		<path fill="none" stroke="#000000" stroke-miterlimit="10" d="M220.665,409.407c-0.764,3.124-0.189,6.846,0.028,10.027
			c0.249,3.628,0.695,7.239,1.148,10.848c0.927,7.369,2.383,14.66,3.752,21.956c1.458,7.771,2.832,15.565,3.627,23.438
			c0.369,3.648,0.55,7.313,0.624,10.979c0.037,1.836-0.016,3.67-0.05,5.506c-0.033,1.789-0.446,3.561-0.415,5.338
			c0.012,0.679,1.094,0.875,1.22,0.165c2.542-14.275-0.188-29.069-2.869-43.151c-1.435-7.531-2.997-15.045-4.255-22.609
			c-0.639-3.84-1.15-7.687-1.489-11.563c-0.311-3.557,0.102-7.462-0.651-10.933C221.262,409.069,220.745,409.08,220.665,409.407
			L220.665,409.407z"/>
	</g>
</g>
<g>
	<g>
		<path fill="none" stroke="#000000" stroke-miterlimit="10" d="M186.787,472.287c-1.538,1.396-2.501,3.321-4.083,4.74
			c-2.037,1.828-4.425,3.239-6.769,4.631c-4.478,2.653-9.168,5.183-12.738,9.056c-3.227,3.501-4.534,8.622-2.602,13.102
			c1.895,4.393,6.824,8.901,11.904,8.729c0.498-0.017,0.795-0.774,0.274-1.012c-2.463-1.122-4.857-1.813-6.998-3.568
			c-2.091-1.718-3.487-4.062-4.155-6.662c-1.464-5.701,2.593-10.396,6.996-13.323c3.846-2.557,7.97-4.657,11.803-7.233
			c2.503-1.686,7.023-4.795,6.881-8.242C187.29,472.232,186.984,472.108,186.787,472.287L186.787,472.287z"/>
	</g>
</g>
<g>
	<g>
		<path fill="none" stroke="#000000" stroke-miterlimit="10" d="M186.895,493.619c-4.775,1.354-10.129,3.744-14.07,6.757
			c-2.896,2.213-4.455,6.501-2.793,9.923c2.967,6.11,14.738,9.116,19.844,4.077c0.461-0.455-0.121-1.061-0.644-0.835
			c-5.417,2.343-15.042,2.229-17.741-4.313c-1.61-3.901,1.62-7.322,4.636-9.232c3.473-2.198,7.774-3.241,11.072-5.653
			C187.543,494.089,187.353,493.49,186.895,493.619L186.895,493.619z"/>
	</g>
</g>
<g>
	<g>
		<path fill="none" stroke="#000000" stroke-miterlimit="10" d="M201.09,498.672c-1.946-0.513-4.135,1.166-5.598,2.25
			c-2.286,1.692-4.292,3.844-5.708,6.317c-1.083,1.893-1.85,4.362-0.788,6.438c1.244,2.436,4.271,3.563,6.833,3.869
			c6.805,0.822,13.67-3.623,19.079-7.16c3.217-2.104,6.313-4.429,9.243-6.916c2.051-1.738,5.05-3.771,6.317-6.196
			c0.243-0.468-0.259-1.041-0.743-0.743c-1.817,1.115-3.284,3.021-4.888,4.432c-2.385,2.098-4.886,4.077-7.443,5.958
			c-5.082,3.737-10.915,7.305-17.14,8.671c-4.874,1.068-12.184-1.051-9.425-7.224c2.027-4.536,6.285-6.792,10.341-9.075
			C201.428,499.149,201.373,498.747,201.09,498.672L201.09,498.672z"/>
	</g>
</g>
<g>
	<g>
		<path fill="none" stroke="#000000" stroke-miterlimit="10" d="M219.181,420.047c2.215,1.109,4.774-0.84,5.595-2.889
			c1.158-2.89,1.593-6.769,0.477-9.729c-0.082-0.218-0.455-0.278-0.505,0c-0.412,2.29-0.219,4.638-0.704,6.928
			c-0.237,1.114-0.753,2.195-1.459,3.093c-0.888,1.125-2.063,0.974-3.252,1.438C218.87,419.071,218.641,419.775,219.181,420.047
			L219.181,420.047z"/>
	</g>
</g>
<g>
	<g>
		<path fill="none" stroke="#000000" stroke-miterlimit="10" d="M234.529,406.37c-0.596,3.801-0.313,7.81-0.324,11.646
			c-0.014,4.522,0.133,9.042,0.255,13.563c0.233,8.683,0.317,17.345-0.012,26.027c-0.285,7.521-0.689,15.021-1.479,22.503
			c-0.541,5.132-1.446,11.633,1.285,16.323c0.563,0.968,2.008,0.111,1.49-0.87c-2.58-4.913-1.434-11.522-0.859-16.799
			c0.799-7.341,1.026-14.736,1.252-22.115c0.258-8.36,0.119-16.714-0.156-25.069c-0.138-4.198-0.266-8.396-0.393-12.596
			c-0.124-4.14,0.247-8.368-0.102-12.484C235.445,405.989,234.62,405.791,234.529,406.37L234.529,406.37z"/>
	</g>
</g>
<g>
	<g>
		<path fill="none" stroke="#000000" stroke-miterlimit="10" d="M282.604,414.891c-1.439,4.036-1.819,8.638-2.484,12.856
			c-0.753,4.772-1.432,9.562-2.107,14.347c-1.342,9.452-2.869,18.838-4.806,28.188c-0.214,1.033,1.336,1.477,1.59,0.438
			c2.267-9.252,3.425-18.79,4.695-28.217c0.646-4.798,1.261-9.599,1.948-14.391c0.625-4.328,1.766-8.745,1.972-13.111
			C283.434,414.513,282.753,414.476,282.604,414.891L282.604,414.891z"/>
	</g>
</g>
<g>
	<g>
		<path fill="none" stroke="#000000" stroke-miterlimit="10" d="M281.754,474.746c0.04,0.04,0.08,0.08,0.121,0.121
			c0.1,0.417,0.465,0.596,0.85,0.646c5.121,0.688,9.711-5.005,12.539-8.43c1.952-2.366,3.762-4.852,5.413-7.436
			c1.173-1.833,3.263-4.379,3.609-6.569c0.048-0.304-0.257-0.479-0.496-0.289c-1.403,1.108-2.379,3.32-3.403,4.778
			c-1.771,2.521-3.535,5.045-5.475,7.442c-2.865,3.545-7.217,8.715-12.188,8.738c-0.31,0.002-0.608,0.166-0.764,0.437
			c-0.02-0.008-0.037-0.016-0.057-0.021C281.668,474.245,281.557,474.557,281.754,474.746L281.754,474.746z"/>
	</g>
</g>
<g>
	<g>
		<path fill="none" stroke="#000000" stroke-miterlimit="10" d="M234.548,496.375c-0.423,2.065,1.335,3.961,2.634,5.361
			c2.289,2.469,5.174,4.439,7.977,6.272c5.563,3.64,12.081,7.411,18.631,8.906c5.995,1.368,15.021-0.187,17.626-6.576
			c3.194-7.842-4.2-13.286-10.774-15.838c-0.586-0.228-0.834,0.625-0.396,0.942c2.738,1.989,5.744,3.396,8.158,5.839
			c2.813,2.843,2.729,6.653,0.646,9.9c-3.391,5.282-11.894,5.263-17.114,3.444c-5.595-1.945-10.934-4.923-15.918-8.084
			c-4.201-2.664-8.447-5.683-10.606-10.283C235.234,495.9,234.627,495.992,234.548,496.375L234.548,496.375z"/>
	</g>
</g>
<g>
	<g>
		<path fill="none" stroke="#000000" stroke-miterlimit="10" d="M277.602,513.682c6.52,4.504,14.5-0.645,15.891-7.54
			c1.779-8.843-6.246-16.159-14.49-16.892c-0.295-0.026-0.318,0.404-0.064,0.491c4.182,1.431,8.215,2.998,10.975,6.617
			c2.01,2.635,2.613,5.771,2.102,9c-0.438,2.76-2.019,5.354-4.373,6.878c-3.154,2.039-6.162,0.891-9.427,0.003
			C277.311,511.994,276.886,513.188,277.602,513.682L277.602,513.682z"/>
	</g>
</g>
<g>
	<g>
		<path fill="none" stroke="#000000" stroke-miterlimit="10" d="M293.234,507.5c0.005-0.453-0.193-0.598-0.534-0.843
			c-0.134,0.229-0.267,0.457-0.4,0.686c3.543,1.98,8.37-0.807,10.282-3.882c2.307-3.708,1.936-8.724,0.764-12.729
			c-1.591-5.432-5.678-9.08-10.162-12.265c-5.849-4.148-12.99-7.524-19.953-9.304c-1.094-0.279-1.51,1.312-0.461,1.672
			c5.898,2.031,11.584,4.169,16.963,7.387c4.477,2.678,9.024,6.059,11.272,10.895c1.669,3.592,2.132,7.97,0.919,11.758
			c-0.585,1.828-1.802,3.367-3.436,4.358c-1.92,1.164-4.076,0.702-6.094,1.386c-0.438,0.146-0.342,0.743,0.104,0.779
			c0.092,0.056,0.184,0.108,0.273,0.165C292.852,507.815,293.23,507.768,293.234,507.5L293.234,507.5z"/>
	</g>
</g>
<g>
	<g>
		<path fill="none" stroke="#000000" stroke-miterlimit="10" d="M299.841,489.076c1.981,0.514,4.126,0.491,6.15,0.808
			c2.323,0.362,4.615,0.916,6.887,1.515c4.641,1.218,9.174,2.827,13.722,4.346c8.896,2.968,17.947,5.366,27.4,5.041
			c0.46-0.018,0.955-0.498,0.756-0.991c-3.116-7.691-8.911-13.544-16.037-17.666c-0.418-0.242-0.9,0.349-0.523,0.681
			c5.93,5.229,11.949,10.112,15.13,17.591c0.226-0.395,0.451-0.786,0.677-1.181c-9.869,0.485-19.246-2.499-28.49-5.59
			c-4.29-1.435-8.574-2.882-12.954-4.028c-3.831-1.004-8.741-2.392-12.715-1.675C299.244,488.031,299.295,488.935,299.841,489.076
			L299.841,489.076z"/>
	</g>
</g>
<g>
	<g>
		<path fill="none" stroke="#000000" stroke-miterlimit="10" d="M353.674,498.826c1.911,1.748,5.715,1.707,8.026,0.898
			c0.324-0.111,0.547-0.373,0.554-0.727c0.126-7.146-4.018-13.602-10.033-17.378c-0.352-0.221-0.871,0.24-0.599,0.599
			c3.979,5.236,9.664,9.455,9.124,16.779c0.185-0.242,0.369-0.484,0.554-0.727c-1.875,0.571-5.227,0.74-7.065-0.174
			C353.783,497.879,353.269,498.455,353.674,498.826L353.674,498.826z"/>
	</g>
</g>
<g>
	<g>
		<path fill="none" stroke="#000000" stroke-miterlimit="10" d="M361.777,497.381c3.653,2.394,9.165-0.729,10.582-4.501
			c1.431-3.808-0.312-7.47-3.029-10.177c-3.251-3.235-7.725-5.199-11.956-6.78c-3.758-1.404-8.297-3.045-12.374-2.876
			c-0.518,0.021-0.608,0.729-0.12,0.891c2.934,0.965,6.018,1.492,8.975,2.403c3.807,1.172,7.521,2.706,10.919,4.799
			c2.965,1.827,6.075,4.516,6.554,8.171c0.687,5.278-4.908,7.814-9.325,7.248C361.53,496.498,361.447,497.165,361.777,497.381
			L361.777,497.381z"/>
	</g>
</g>
<g>
	<g>
		<path fill="none" stroke="#000000" stroke-miterlimit="10" d="M339,412.09c0.116,0,0.116-0.18,0-0.18S338.884,412.09,339,412.09
			L339,412.09z"/>
	</g>
</g>
<g>
	<g>
		<path fill="none" stroke="#000000" stroke-miterlimit="10" d="M338.911,412.324c1.633,0.604,3.482,0.492,5.198,0.81
			c1.763,0.327,3.482,0.904,5.151,1.546c3.823,1.47,7.305,3.863,10.412,6.489c6.158,5.2,11.183,12.224,13.616,19.938
			c2.417,7.654-0.404,15.486-4.396,22.077c-3.518,5.81-10.657,13.543-18.234,11.74c-0.646-0.154-1.07,0.758-0.461,1.092
			c2.974,1.636,6.691,0.229,9.466-1.236c3.473-1.838,6.282-4.811,8.654-7.881c5.001-6.479,8.479-15.166,7.209-23.4
			c-1.327-8.594-7.312-16.605-13.495-22.401c-3.354-3.143-7.227-5.733-11.436-7.579c-3.095-1.354-8.354-3.238-11.688-1.84
			C338.604,411.805,338.581,412.202,338.911,412.324L338.911,412.324z"/>
	</g>
</g>
<g>
	<g>
		<path fill="none" stroke="#000000" stroke-miterlimit="10" d="M137.225,404.615c-6.597-4.743-16.327,0.766-21.473,5.161
			c-6.57,5.609-11.145,13.699-10.444,22.479c0.808,10.13,6.39,19.586,13.475,26.629c3.633,3.611,7.925,6.585,12.591,8.691
			c4.598,2.076,9.173,2.716,14.126,2.245c0.412-0.039,0.412-0.604,0-0.643c-9.677-0.921-17.852-4.262-25.019-10.95
			c-6.798-6.346-11.767-14.915-13.307-24.119c-1.423-8.503,2.367-15.986,8.316-21.881c2.968-2.939,6.563-5.313,10.503-6.723
			c3.75-1.339,7.117-0.947,10.888-0.077C137.394,405.548,137.628,404.905,137.225,404.615L137.225,404.615z"/>
	</g>
</g>
<g>
	<g>
		<path fill="none" stroke="#000000" stroke-miterlimit="10" d="M138.567,468.255c-1.444-0.54-3.176,0.479-4.442,1.104
			c-2.196,1.089-4.253,2.461-6.237,3.892c-4.587,3.308-8.908,7.214-12.371,11.699c-2.466,3.192-5.334,7.502-4.635,11.771
			c0.765,4.67,5.896,6.752,10.118,6.759c0.561,0.001,0.629-0.772,0.128-0.943c-3.732-1.277-8.684-2.413-8.69-7.239
			c-0.005-4.137,3.258-8.208,5.784-11.18c3.247-3.821,7.083-7.189,11.149-10.111c1.747-1.256,3.572-2.411,5.481-3.403
			c1.244-0.646,2.755-1.007,3.827-1.924C138.837,468.544,138.73,468.316,138.567,468.255L138.567,468.255z"/>
	</g>
</g>
<g>
	<g>
		<path fill="none" stroke="#000000" stroke-miterlimit="10" d="M127.937,483.771c-2.415,0.737-4.462,4.621-5.712,6.628
			c-1.546,2.479-2.683,5.563-2.792,8.493c-0.251,6.771,8.937,7.479,13.257,4.433c0.308-0.218,0.194-0.672-0.189-0.699
			c-3.079-0.218-6.245,1.376-9.261,0.068c-2.127-0.921-2.272-3.364-1.943-5.357c0.409-2.477,1.581-4.745,2.751-6.935
			c0.647-1.21,1.432-2.348,2.237-3.455c0.642-0.887,1.642-1.822,1.947-2.883C128.279,483.892,128.11,483.717,127.937,483.771
			L127.937,483.771z"/>
	</g>
</g>
<g>
	<g>
		<path fill="none" stroke="#000000" stroke-miterlimit="10" d="M138.108,481.392c-2.088,4.977-12.279,21.377-2.1,23.624
			c1.895,0.418,4.029-0.065,5.882-0.469c3.069-0.663,6.058-1.719,8.977-2.861c2.725-1.064,5.5-2.224,8.014-3.729
			c1.308-0.783,3.482-1.784,3.969-3.36c0.075-0.24-0.187-0.556-0.447-0.445c-1.368,0.568-2.56,1.586-3.889,2.271
			c-2.292,1.18-4.621,2.277-7.006,3.255c-4.405,1.808-9.531,3.89-14.373,3.81c-9.742-0.16,2.097-17.962,1.771-21.982
			C138.868,481.021,138.284,480.974,138.108,481.392L138.108,481.392z"/>
	</g>
</g>
<g>
	<g>
		<path fill="none" stroke="#000000" stroke-miterlimit="10" d="M189.349,472.403c-4.395-2.45-8.344-4.78-12.087-8.221
			c-3.381-3.104-6.29-6.897-10.027-9.586c-0.374-0.269-0.901,0.265-0.636,0.638c2.788,3.927,6.531,7.414,10.058,10.672
			c3.414,3.151,7.593,6.542,12.16,7.761C189.569,473.867,190.042,472.789,189.349,472.403L189.349,472.403z"/>
	</g>
</g>
<g>
	<g>
		<path fill="none" stroke="#000000" stroke-miterlimit="10" d="M236.282,419.422c-0.195-0.727-0.73-1.086-1.15-1.705
			c-0.603-0.887-1.055-1.858-1.493-2.834c-0.877-1.948-1.273-4.664-2.81-6.212c-0.301-0.303-0.767-0.063-0.793,0.329
			c-0.165,2.469,1.645,5.563,2.703,7.751c0.593,1.228,1.739,3.714,3.409,3.002C236.268,419.702,236.313,419.537,236.282,419.422
			L236.282,419.422z"/>
	</g>
</g>
<g>
	<g>
		<path fill="none" stroke="#000000" stroke-miterlimit="10" d="M228.294,486.6c1.211,0.278,8.115,1.16,7.743-1.208
			c-0.163-1.035-2.833-0.198-3.447-0.156c-1.368,0.095-2.865,0.166-4.141,0.223C227.813,485.484,227.631,486.447,228.294,486.6
			L228.294,486.6z"/>
	</g>
</g>
<g>
	<g>
		<path fill="none" stroke="#000000" stroke-miterlimit="10" d="M198.599,301.669c1.501-0.864,2.355-2.766,3.158-4.223
			c1.289-2.342,2.632-4.64,4.102-6.875c3.57-5.427,8.765-9.005,15.195-10.107c5.925-1.015,12.124,0.885,17.096,4.047
			c2.437,1.549,4.567,3.537,6.459,5.707c0.938,1.075,2.218,2.499,2.773,3.839c0.198,0.477,0.629,0.651,1.117,0.7
			c0.852,0.086,1.038-1.333,0.201-1.489c-0.044-0.008-1.249-2.145-1.48-2.474c-0.834-1.177-1.781-2.27-2.767-3.322
			c-2.065-2.209-4.532-4.044-7.146-5.557c-4.822-2.794-10.561-4.238-16.121-3.458c-5.754,0.808-11.25,3.777-14.82,8.405
			c-1.959,2.54-3.426,5.4-4.818,8.279c-1.009,2.087-2.506,4.107-3.239,6.306C198.256,301.615,198.456,301.751,198.599,301.669
			L198.599,301.669z"/>
	</g>
</g>
<g>
	<g>
		<path fill="none" stroke="#000000" stroke-miterlimit="10" d="M211.829,265.329c-1.519,1.85-0.424,4.979,1.207,6.433
			c2.172,1.937,5.275,0.807,7.382-0.547c-0.405-0.312-0.81-0.623-1.215-0.934c-0.816,3.454,1.262,6.301,4.797,6.587
			c3.921,0.317,5.307-3.308,4.706-6.562c-0.3,0.3-0.6,0.6-0.9,0.9c4.644,1.618,10.338-3.239,7.119-7.954
			c-0.255-0.374-0.95-0.276-0.917,0.249c0.123,1.917,0.475,3.563-0.881,5.18c-1.202,1.434-3.264,1.584-4.933,1.114
			c-0.548-0.155-1.033,0.365-0.9,0.9c1.563,6.297-7.979,5.83-6.497,0.025c0.171-0.67-0.586-1.347-1.215-0.934
			c-1.736,1.141-4.037,2.18-5.861,0.622c-1.523-1.301-0.814-3.362-1.488-4.972C212.171,265.287,211.958,265.171,211.829,265.329
			L211.829,265.329z"/>
	</g>
</g>
<g>
	<g>
		<path fill="none" stroke="#000000" stroke-miterlimit="10" d="M222.629,276.717c0.051,0.063,0.094,0.132,0.13,0.205
			c0-0.152,0-0.305,0-0.457c-0.324,0.532-0.052,1.095,0.104,1.651c0.216,0.773,0.271,1.57,0.39,2.361
			c0.136,0.904,1.469,0.616,1.516-0.205c0.05-0.862-0.146-1.751-0.372-2.579c-0.108-0.399-0.285-0.733-0.48-1.091
			c-0.088-0.161-0.255-0.282-0.43-0.331c-0.463-0.127,0.044,0.141-0.183-0.075C222.962,275.872,222.334,276.308,222.629,276.717
			L222.629,276.717z"/>
	</g>
</g>
<g>
	<g>
		<path fill="none" stroke="#000000" stroke-miterlimit="10" d="M139.816,253.313c2.089,1.195,5.114,0.592,7.392,0.417
			c4.22-0.325,8.432-0.75,12.654-1.043c5.714-0.397,11.5-0.239,17.221-0.084c7.464,0.203,14.987,0.655,22.329,2.077
			c3.077,0.596,6.186,1.392,9.011,2.776c1.084,0.532,2.098,1.192,2.965,2.035c0.373,0.362,0.667,0.776,0.928,1.224
			c0.291,0.415,0.098,0.429-0.578,0.042c-0.418-0.112-0.815-0.068-1.238-0.015c-0.82,0.104-1.066,1.212-0.202,1.489
			c1.741,0.556,2.432,0.753,3.887-0.545c0.236-0.21,0.364-0.642,0.25-0.943c-1.832-4.801-8.019-6.449-12.495-7.517
			c-7.233-1.726-14.792-2.211-22.199-2.511c-5.854-0.237-11.779-0.396-17.635-0.141c-4.366,0.19-8.721,0.663-13.072,1.052
			c-3.031,0.271-6.179,0.279-9.13,1.024C139.598,252.727,139.547,253.159,139.816,253.313L139.816,253.313z"/>
	</g>
</g>
<g>
	<g>
		<path fill="none" stroke="#000000" stroke-miterlimit="10" d="M143.165,251.427c-5.267,3.063,0.12,9.752,2.855,12.394
			c5.213,5.033,11.877,8.904,18.537,11.673c7.745,3.221,17.158,2.386,24.992-0.044c4.592-1.424,8.879-3.677,12.555-6.774
			c1.875-1.58,3.483-3.438,4.941-5.402c1.467-1.977,3.405-4.268,3.681-6.773c0.087-0.796-0.98-0.882-1.354-0.367
			c-1.424,1.965-2.456,4.241-3.851,6.249c-1.312,1.887-2.919,3.554-4.626,5.083c-3.362,3.012-7.448,5.223-11.727,6.605
			c-7.03,2.271-16.027,2.829-22.996,0.082c-5.88-2.317-11.571-5.785-16.484-9.74c-2.171-1.749-4.28-3.727-5.738-6.124
			c-1.315-2.16-1.109-3.865,0.123-5.954C144.414,251.759,143.739,251.092,143.165,251.427L143.165,251.427z"/>
	</g>
</g>
<g>
	<g>
		<path fill="none" stroke="#000000" stroke-miterlimit="10" d="M240.186,258.4c2.877-4.031,8.104-5.971,12.646-7.338
			c6.747-2.031,13.828-2.928,20.835-3.426c7.122-0.507,14.302-0.474,21.418,0.105c5.142,0.418,10.663,0.993,15.449,3.058
			c1.073,0.463,2.024-1.086,0.934-1.599c-4.712-2.21-10.243-2.782-15.36-3.276c-7.643-0.737-15.369-0.708-23.021-0.186
			c-7.307,0.499-14.701,1.493-21.703,3.697c-4.602,1.448-10.188,3.647-12.564,8.164C238.332,258.518,239.598,259.223,240.186,258.4
			L240.186,258.4z"/>
	</g>
</g>
<g>
	<g>
		<path fill="none" stroke="#000000" stroke-miterlimit="10" d="M243.749,256.249c0.171-0.185,0.358-0.35,0.563-0.495
			c0.65-0.493,0.304-1.618-0.582-1.383c-2.899,0.771,0.633,6.995,1.494,8.384c2.195,3.548,5.644,6.218,9.235,8.232
			c7.875,4.415,17.127,5.61,26.021,5.23c5.945-0.254,11.72-1.85,16.939-4.693c3.499-1.905,5.766-4.351,7.948-7.618
			c2.666-3.99,8.169-14.348,0.358-16.239c-1.084-0.262-1.522,1.34-0.459,1.665c6.375,1.947-0.168,11.844-2.309,14.904
			c-5.18,7.407-14.661,10.06-23.309,10.453c-7.406,0.336-14.748-1.008-21.541-4.002c-3.321-1.465-6.424-3.453-8.992-6.028
			c-1.258-1.261-2.275-2.715-3.119-4.278c-0.189-0.353-1.949-4.476-1.688-4.629c-0.371-0.285-0.74-0.57-1.111-0.854
			c-0.1,0.416-0.109,0.774-0.041,1.194C243.202,256.35,243.586,256.438,243.749,256.249L243.749,256.249z"/>
	</g>
</g>
<g>
	<g>
		<path fill="none" stroke="#000000" stroke-miterlimit="10" d="M160.77,251c-0.569,4.992,2.749,9.832,6.776,12.401
			c4.21,2.687,9.588,3.376,14.475,2.979c4.378-0.355,9.048-1.706,12.328-4.757c2.713-2.524,3.7-7.105,1.16-10.132
			c-0.47-0.56-1.406,0.037-1.201,0.699c0.517,1.671,1.254,3.032,0.9,4.841c-0.304,1.549-1.336,2.799-2.495,3.81
			c-3.052,2.663-7.56,3.639-11.485,3.896c-4.285,0.281-8.744-0.468-12.491-2.625c-4.489-2.584-5.644-6.548-6.532-11.307
			C162.041,249.929,160.855,250.248,160.77,251L160.77,251z"/>
	</g>
</g>
<g>
	<g>
		<path fill="none" stroke="#000000" stroke-miterlimit="10" d="M255.068,248.882c-1.354-0.572-2.359,0.825-2.53,2.032
			c-0.263,1.853,1.052,3.785,2.123,5.16c3.138,4.028,7.45,7.747,12.465,9.076c6.065,1.608,12.658-0.416,17.444-4.251
			c4.511-3.615,7.555-10.457,5.188-16.108c-0.392-0.936-1.683-0.597-1.521,0.42c0.438,2.769,0.703,5.099-0.161,7.831
			c-0.775,2.444-2.444,4.517-4.313,6.218c-3.951,3.595-9.711,5.193-14.951,4.399c-4.181-0.633-7.506-3.274-10.469-6.122
			c-1.47-1.41-2.82-2.979-3.74-4.805c-0.844-1.673,0.105-2.221,0.525-3.694C255.146,248.983,255.124,248.905,255.068,248.882
			L255.068,248.882z"/>
	</g>
</g>
<g>
	<g>
		<path fill="none" stroke="#000000" stroke-miterlimit="10" d="M118.316,274.913c-1.262-3.399-6.279-2.194-8.692-1.14
			c-4.35,1.9-8.219,5.929-10.754,9.859c0.274-0.111,0.549-0.223,0.823-0.335c-5.545-1.173-11.029-2.69-16.226,0.43
			c-1.764,1.059-3.22,2.56-4.865,3.782c-2.503,1.859-4.742,1.303-7.603,1.558c-0.42,0.038-0.604,0.568-0.219,0.808
			c3.607,2.25,7.645-0.114,10.457-2.471c2.129-1.785,4.12-3.286,6.886-3.931c3.647-0.852,7.651,0.378,11.182,1.23
			c0.344,0.083,0.624-0.061,0.823-0.335c2.25-3.1,4.915-5.809,8.108-7.938c1.454-0.969,3.04-1.71,4.745-2.095
			c1.935-0.437,3.19,0.518,4.931,0.982C118.138,275.376,118.406,275.155,118.316,274.913L118.316,274.913z"/>
	</g>
</g>
<g>
	<g>
		<path fill="none" stroke="#000000" stroke-miterlimit="10" d="M122.762,284.051c-3.593-1.759-7.872-0.425-11.368,0.926
			c-4.085,1.579-7.649,3.856-10.862,6.81c-2.898,2.663-5.306,5.81-8.254,8.418c-3.893,3.443-8.352,3.693-13.278,4.283
			c-0.521,0.063-0.755,0.9-0.136,1.005c3.707,0.62,7.573-0.03,10.951-1.646c3.152-1.509,5.546-4.277,7.866-6.8
			c3.138-3.413,6.371-6.541,10.472-8.773c4.189-2.28,9.381-4.354,14.209-3.276C122.914,285.124,123.313,284.321,122.762,284.051
			L122.762,284.051z"/>
	</g>
</g>
<g>
	<g>
		<path fill="none" stroke="#000000" stroke-miterlimit="10" d="M129.378,295.059c-1.725,0.307-4.281,0.273-5.774,1.265
			c-1.855,1.231-3.689,2.495-5.557,3.707c-3.552,2.305-7.657,3.14-11.268,5.244c-2.795,1.629-4.164,4.326-5.502,7.135
			c-0.824,1.729-1.85,3.244-3.214,4.598c-0.818,0.813-1.708,1.583-2.562,2.361c-1.181,1.076-2.564,0.847-4.001,0.775
			c-0.358-0.019-0.479,0.491-0.179,0.662c3.432,1.948,5.967-0.869,8.327-3.173c2.668-2.602,3.305-6.435,5.651-9.237
			c2.922-3.494,8.167-3.984,12.04-6.061c1.959-1.049,3.763-2.41,5.591-3.665c2.058-1.413,4.546-1.759,6.801-2.777
			C130.235,295.667,129.852,294.975,129.378,295.059L129.378,295.059z"/>
	</g>
</g>
<g>
	<g>
		<path fill="none" stroke="#000000" stroke-miterlimit="10" d="M114.606,228.884c6.025-2.173,10.66-6.95,17.394-7.199
			c0.499-0.019,0.88-0.575,0.592-1.031c-0.245-0.387-1.131-2.188-0.491-2.529c1.297-0.692,2.609-1.353,3.936-1.985
			c2.563-1.222,5.222-2.21,7.931-3.047c5.295-1.636,10.99-2.385,16.49-1.546c4.277,0.652,8.517,1.942,12.888,1.606
			c2.43-0.187,4.664-1.548,6.671-2.82c8.668-5.49,25.641-21.609,34.839-8.956c0.56,0.77,1.855,0.027,1.288-0.753
			c-9.097-12.516-24.833,0.193-33.673,6.434c-2.242,1.583-4.56,3.333-7.138,4.337c-4.479,1.744-9.988-0.396-14.516-1.154
			c-10.368-1.736-21.253,2.085-30.135,7.217c-0.223,0.129-0.392,0.453-0.289,0.709c0.421,1.048,0.442,2.197,1.014,3.179
			c0.197-0.344,0.395-0.687,0.592-1.031c-6.5,0.152-12.528,4.263-17.701,7.841C113.949,228.398,114.156,229.046,114.606,228.884
			L114.606,228.884z"/>
	</g>
</g>
<g>
	<g>
		<path fill="none" stroke="#000000" stroke-miterlimit="10" d="M215.329,201.671c1.858,1.576,2.572,4.808,3.114,7.053
			c1.042,4.314,1.525,8.78,1.923,13.193c0.735,8.154,1.377,16.686-0.597,24.705c-1.707,6.929-5.896,12.661-8.259,19.332
			c-2.133,6.022-3.502,12.989-8.506,17.352c-5.278,4.602-16.641,10.473-10.56,18.984c1.116,1.563,6.77,6.387,4.223,8.142
			c-0.692,0.479-0.079,1.573,0.666,1.141c3.305-1.924,0.547-5.232-1.173-7.25c-1.447-1.694-3.224-3.412-3.865-5.607
			c-0.747-2.559,1.098-5.529,2.704-7.325c3.018-3.374,7.235-5.415,10.399-8.642c4.174-4.258,5.451-11.018,7.389-16.44
			c2.377-6.649,6.444-12.461,8.454-19.278c1.074-3.641,1.318-7.307,1.333-11.071c0.036-8.6-0.537-17.403-2.274-25.836
			c-0.461-2.236-1.467-9.077-4.799-8.863C215.308,201.27,215.155,201.524,215.329,201.671L215.329,201.671z"/>
	</g>
</g>
<g>
	<g>
		<path fill="none" stroke="#000000" stroke-miterlimit="10" d="M131.175,293.057c6.721,4.502,14.836,3.997,22.514,3.216
			c4.24-0.431,8.74-1.111,12.996-0.521c2.358,0.327,4.532,1.8,6.452,3.111c4.747,3.245,8.885,7.3,13.733,10.409
			c2.953,1.896,7.833,4.289,11.045,1.644c0.459-0.378-0.032-1.147-0.57-0.979c-4.622,1.463-8.286-0.793-12.021-3.461
			c-4.357-3.11-8.255-6.833-12.767-9.734c-5.062-3.257-10.51-2.724-16.319-2.17c-8.592,0.819-16.545,1.701-24.413-2.625
			C131.091,291.54,130.489,292.597,131.175,293.057L131.175,293.057z"/>
	</g>
</g>
<g>
	<g>
		<path fill="none" stroke="#000000" stroke-miterlimit="10" d="M332.143,228.484c-5.11-1.862-5.692-7.879-8.504-11.857
			c-3.365-4.77-8.115-8.418-13.245-11.112c-5.354-2.813-11.198-4.308-17.094-5.469c-5.938-1.169-11.852-0.384-17.69,0.901
			c-5.438,1.197-11.854,3.628-17.241,1.278c-4.162-1.815-7.502-5.143-11.417-7.394c-3.32-1.909-6.934-2.482-10.357-0.529
			c-3.988,2.274-5.056,6.905-5.271,11.198c-0.039,0.768,1.161,0.925,1.335,0.181c1.105-4.734,1.779-10.311,7.736-11.029
			c4.014-0.485,7.896,2.863,10.912,5.044c2.996,2.164,6.34,4.694,10.146,5.08c5.253,0.533,10.96-1.498,16.046-2.584
			c11.796-2.52,24.433,0.025,34.787,6.158c4.844,2.869,9.357,6.995,11.855,12.095c1.837,3.75,3.291,7.866,7.719,9.072
			C332.533,229.7,332.781,228.717,332.143,228.484L332.143,228.484z"/>
	</g>
</g>
<g>
	<g>
		<path fill="none" stroke="#000000" stroke-miterlimit="10" d="M231.652,204.911c-0.815-1.221-1.699,2.542-1.732,2.792
			c-0.488,3.728-0.645,7.518-0.702,11.275c-0.212,14.002,1.914,28.617,7.084,41.714c0.337,0.849,1.623,0.541,1.396-0.384
			c-1.474-5.944-3.503-11.711-4.794-17.715c-1.301-6.065-2.022-12.23-2.159-18.431c-0.08-3.646,0.066-7.321,0.237-10.964
			c0.079-1.688,0.192-3.376,0.328-5.063c0.038-0.467,0.473-2.646,0.066-3.013C231.518,205.253,231.768,205.084,231.652,204.911
			L231.652,204.911z"/>
	</g>
</g>
<g>
	<g>
		<path fill="none" stroke="#000000" stroke-miterlimit="10" d="M236.611,262.227c1.504,3.502,2.06,7.487,3.433,11.071
			c1.669,4.356,4.413,6.939,8.162,9.577c4.239,2.981,9.729,6.648,8.476,12.652c-0.922,4.407-5.322,7.224-5.979,11.754
			c-0.081,0.562,0.217,0.994,0.798,1.047c14.683,1.331,23.114-14.407,37.347-14.379c6.383,0.012,12.717,0.973,19.107,0.914
			c4.859-0.045,11.216-0.518,14.143-5.013c0.495-0.76-0.679-1.402-1.191-0.698c-3.438,4.699-10.794,4.457-15.973,4.267
			c-5.795-0.211-11.645-1.168-17.445-0.81c-6.067,0.375-11.385,3.762-16.295,7.051c-6.075,4.07-12.088,7.695-19.69,7.014
			c0.267,0.35,0.531,0.698,0.798,1.047c0.67-4.643,5.125-7.708,6.09-12.344c0.99-4.77-2.461-8.756-5.937-11.452
			c-2.103-1.631-4.376-3.025-6.446-4.701c-2.121-1.719-3.378-3.857-4.412-6.351c-0.938-2.261-1.604-4.632-2.312-6.973
			c-0.446-1.481-0.856-3.084-1.964-4.216C236.934,261.29,236.423,261.786,236.611,262.227L236.611,262.227z"/>
	</g>
</g>
<g>
	<g>
		<path fill="none" stroke="#000000" stroke-miterlimit="10" d="M248.823,274.549c0.69,1.853,2.946,2.947,4.598,3.802
			c2.438,1.262,5.068,2.152,7.718,2.852c6.031,1.592,12.479,1.951,18.674,1.396c5.979-0.536,11.881-1.869,17.412-4.21
			c2.765-1.17,5.375-2.681,7.765-4.496c1.813-1.379,4.007-3.108,4.837-5.303c0.102-0.269-0.261-0.547-0.494-0.379
			c-1.968,1.412-3.471,3.424-5.43,4.893c-2.1,1.575-4.436,2.82-6.824,3.888c-5.372,2.401-11.405,3.709-17.266,4.036
			c-5.754,0.321-11.487,0.086-17.129-1.169c-2.58-0.574-5.109-1.385-7.521-2.468c-1.982-0.891-3.969-2.688-6.111-3.067
			C248.925,274.301,248.77,274.405,248.823,274.549L248.823,274.549z"/>
	</g>
</g>
<g>
	<g>
		<path fill="none" stroke="#000000" stroke-miterlimit="10" d="M260.21,285.29c1.45,1.657,4.124,2.204,6.17,2.704
			c3.056,0.747,6.231,1.002,9.37,1.014c3.066,0.012,6.146-0.369,9.134-1.045c2.571-0.582,6.175-1.549,7.997-3.582
			c0.344-0.383,0.02-1.07-0.523-0.901c-2.467,0.769-4.668,2.191-7.207,2.891c-3.057,0.843-6.238,1.108-9.398,1.121
			c-2.807,0.011-5.607-0.312-8.354-0.871c-2.312-0.47-4.484-1.657-6.785-2.016C260.206,284.542,259.925,284.964,260.21,285.29
			L260.21,285.29z"/>
	</g>
</g>
<g>
	<g>
		<path fill="none" stroke="#000000" stroke-miterlimit="10" d="M138.656,268.201c0.433,0.872,1.258,1.21,2.063,1.734
			c1.195,0.779,2.353,1.616,3.508,2.452c2.863,2.07,5.691,4.176,8.674,6.073c4.745,3.018,9.558,4.601,15.108,5.291
			c5.499,0.684,11.044,0.707,16.535-0.053c4.436-0.614,10.143-1.919,13.412-5.242c0.51-0.518-0.147-1.399-0.781-1.012
			c-4.169,2.544-8.137,4.146-13.001,4.91c-5.466,0.858-11.148,0.683-16.614-0.073c-5.728-0.792-10.448-2.912-15.269-6.086
			c-2.482-1.634-4.869-3.412-7.279-5.149c-1.521-1.096-4.026-3.613-6.011-3.444C138.69,267.628,138.515,267.917,138.656,268.201
			L138.656,268.201z"/>
	</g>
</g>
<g>
	<g>
		<path fill="none" stroke="#000000" stroke-miterlimit="10" d="M148.042,280.458c4.083,4.36,10.544,6.699,16.241,7.957
			c5.47,1.208,12.924,1.984,18.006-0.923c0.571-0.327,0.183-1.196-0.439-1.042c-5.863,1.444-11.183,1.688-17.131,0.384
			c-5.864-1.285-11.14-3.749-15.891-7.395C148.222,278.976,147.56,279.944,148.042,280.458L148.042,280.458z"/>
	</g>
</g>
<g>
	<g>
		<path fill="none" stroke="#000000" stroke-miterlimit="10" d="M273.723,177c1.588-13.761,7.397-26.769,14.908-38.293
			c2.247-3.448,5.005-8.384,9.37-9.415c3.054-0.721,5.671,1.948,7.312,4.147c4.77,6.39,7.032,14.947,8.635,22.631
			c2.061,9.896,2.438,20.691,0.053,30.528c-0.063,0.237-0.122,0.475-0.184,0.712c-0.23,0.893,1.087,1.245,1.369,0.378
			c2.005-6.109,2.017-12.909,1.738-19.265c-0.151-3.531-0.518-7.015-1.147-10.492c-1.415-7.79-3.606-15.855-7.544-22.775
			c-2.658-4.673-7.34-9.551-12.985-6.368c-3.881,2.188-6.442,6.875-8.751,10.483c-3.6,5.626-6.639,11.619-9.182,17.791
			c-2.603,6.316-4.729,13.068-5.037,19.938C272.234,177.95,273.618,177.902,273.723,177L273.723,177z"/>
	</g>
</g>
<g>
	<g>
		<path fill="none" stroke="#000000" stroke-miterlimit="10" d="M142.804,182.323c-2.175-3.336-7.092-5.636-10.434-7.532
			c-5.179-2.937-10.656-5.524-16.418-7.084c-3.794-1.027-8.954-1.798-12.219,0.964c-3.538,2.995-2.467,10.753-0.081,14.032
			c0.219,0.301,0.763,0.23,0.75-0.203c-0.118-3.968-3.537-10.09,0.834-13.097c3.368-2.317,8.719-0.541,12.2,0.545
			c5.169,1.613,10.126,4.021,14.853,6.642c3.435,1.904,6.583,4.38,10.033,6.214C142.618,182.961,143.006,182.632,142.804,182.323
			L142.804,182.323z"/>
	</g>
</g>
<g>
	<g>
		<path fill="none" stroke="#000000" stroke-miterlimit="10" d="M329.5,263.922c1.936,0.197,3.93-0.541,5.79-1.023
			c2.315-0.6,4.603-1.197,6.987-1.447c4.851-0.509,8.961,1.738,12.987,4.108c3.322,1.955,6.48,3.116,10.271,3.829
			c4.431,0.834,8.446,0.858,11.937,4.139c0.7,0.658,1.754-0.391,1.057-1.055c-3.015-2.86-6.42-3.691-10.436-4.25
			c-4.685-0.653-8.556-1.947-12.631-4.34c-3.898-2.291-7.754-4.107-12.37-4.017c-2.236,0.043-4.46,0.617-6.606,1.19
			c-2.35,0.626-5.002,1.052-7.197,2.079C328.867,263.333,329.129,263.884,329.5,263.922L329.5,263.922z"/>
	</g>
</g>
<g>
	<g>
		<path fill="none" stroke="#000000" stroke-miterlimit="10" d="M329.433,272.245c2.981,0.502,4.96,1.659,7.128,3.721
			c1.733,1.649,3.495,2.823,5.941,2.797c2.219-0.023,4.235-1.29,6.243-2.063c2.552-0.982,5.526-0.813,8.118-0.106
			c4.134,1.128,7.548,4.094,11.212,6.182c3.737,2.129,7.896,3.081,12.09,1.824c0.789-0.237,0.441-1.308-0.33-1.198
			c-5.055,0.717-9.05-0.693-13.281-3.361c-3.479-2.194-6.818-4.488-10.941-5.255c-1.989-0.371-4.011-0.229-5.985,0.138
			c-2.771,0.516-4.925,2.383-7.851,2.43c-2.869,0.045-5.082-3.487-7.304-4.921c-1.337-0.864-3.857-1.872-5.15-0.612
			C329.193,271.944,329.24,272.212,329.433,272.245L329.433,272.245z"/>
	</g>
</g>
<g>
	<g>
		<path fill="none" stroke="#000000" stroke-miterlimit="10" d="M328.83,282.453c-0.618,1.871,4.58,4.172,5.653,4.781
			c3.481,1.978,6.8,3.741,10.878,3.692c2.005-0.024,3.946-0.577,5.907-0.922c3.021-0.53,5.767,0.71,8.336,2.169
			c4.646,2.637,8.734,6.086,14.244,3.427c0.725-0.349,0.209-1.48-0.535-1.271c-3.035,0.854-5.345,0.929-8.184-0.597
			c-2.414-1.298-4.594-2.947-7.077-4.137c-3.453-1.655-6.466-1.23-10.062-0.531c-4.306,0.837-7.509-0.411-11.251-2.351
			c-1.594-0.825-3.137-1.735-4.673-2.655c-0.824-0.493-2.27-1.03-2.945-1.684C329.025,282.281,328.872,282.328,328.83,282.453
			L328.83,282.453z"/>
	</g>
</g>
<g>
	<g>
		<path fill="none" stroke="#000000" stroke-miterlimit="10" d="M129.458,464.85c-1.547,0.508-2.555,1.419-3.814,2.478
			c-2.948,2.473-5.815,5.053-8.592,7.717c-5.567,5.341-12.267,11.651-14.789,19.164c-2.098,6.249,2.713,12.061,7.197,15.765
			c6.206,5.128,13.574,8.7,20.452,12.81c3.848,2.298,8.093,4.845,10.682,8.609c2.192,3.189,2.02,8.117-2.231,9.389
			c-5.08,1.517-11.57-1.423-16.094-3.467c-4.227-1.909-8.793-4.205-12.376-7.202c-0.545-0.456-1.264,0.244-0.784,0.785
			c4.951,5.591,33.175,20.524,34.583,5.544c0.567-6.035-5.351-10.238-9.779-13.149c-6.814-4.479-14.302-7.834-21.003-12.499
			c-4.017-2.796-8.175-6.47-9.417-11.396c-1.33-5.278,2.837-10.363,5.943-14.167c4.039-4.946,8.705-9.397,13.438-13.672
			c2.255-2.034,5.199-3.87,6.761-6.477C129.703,464.965,129.59,464.807,129.458,464.85L129.458,464.85z"/>
	</g>
</g>
<g>
	<g>
		<path fill="none" stroke="#000000" stroke-miterlimit="10" d="M135.097,543.165c0.656-0.31,2.255,0.666,2.794,0.944
			c1.5,0.772,2.886,1.773,4.178,2.854c2.861,2.393,5.93,5.829,6.089,9.746c0.131,3.237-2.853,5.563-5.692,6.305
			c-3.182,0.83-6.687,0.009-9.75-0.915c-7.79-2.352-14.973-6.821-21.775-11.18c-5.367-3.438-10.523-7.423-16.294-10.171
			c-0.335-0.159-0.606,0.293-0.292,0.5c5.975,3.922,11.619,8.313,17.679,12.134c7.188,4.53,14.981,9.187,23.389,10.965
			c5.3,1.122,13.52,0.036,14.24-6.794c0.683-6.48-6.777-13.87-12.685-15.425c-0.771-0.203-1.985-0.164-2.162,0.819
			C134.785,543.12,134.939,543.239,135.097,543.165L135.097,543.165z"/>
	</g>
</g>
<g>
	<g>
		<path fill="none" stroke="#000000" stroke-miterlimit="10" d="M108.708,442.001c-10.334,6.938-21.735,12.521-31.306,20.536
			c-8.824,7.392-14.343,16.955-15.76,28.402c-1.411,11.398,0.243,23.19,4.113,33.975c3.323,9.261,8.503,21.31,18.559,24.76
			c0.314,0.108,0.614-0.075,0.79-0.32c3.026-4.225,0.175-9.576-1.84-13.575c-2.655-5.271-6.629-10.206-8.421-15.871
			c-0.143-0.45-0.745-0.253-0.686,0.188c0.664,4.913,4.311,9.363,6.739,13.533c2.352,4.038,6.343,10.497,3,15.021
			c0.263-0.107,0.526-0.216,0.79-0.321c-5.297-2.002-8.886-6.777-11.648-11.509c-2.594-4.444-4.688-9.347-6.329-14.215
			c-3.511-10.419-4.846-21.912-3.249-32.814c1.683-11.481,7.907-20.411,16.85-27.58c9.101-7.295,20.168-11.804,29.099-19.299
			C109.913,442.486,109.251,441.637,108.708,442.001L108.708,442.001z"/>
	</g>
</g>
<g>
	<g>
		<path fill="none" stroke="#000000" stroke-miterlimit="10" d="M85.113,546c-0.009-0.171-0.017-0.332,0.004-0.5
			c0.019-0.151-0.253-0.151-0.234,0c0.021,0.168,0.013,0.329,0.004,0.5C84.879,546.146,85.121,546.146,85.113,546L85.113,546z"/>
	</g>
</g>
<g>
	<g>
		<path fill="none" stroke="#000000" stroke-miterlimit="10" d="M84.758,546c0.037,2.3,2.701,4.276,4.238,5.663
			c2.896,2.614,6.063,4.94,9.256,7.175c5.144,3.6,10.654,6.896,16.254,9.74c3.515,1.786,11.69,6.301,15.244,2.533
			c1.697-1.802,0.429-4.037-0.889-5.577c-2.34-2.735-5.627-4.597-7.474-7.761c-0.214-0.367-0.874-0.233-0.837,0.227
			c0.19,2.363,2.359,4.089,3.984,5.573c1.381,1.263,5.924,4.463,3.816,6.563c-1.579,1.575-5.463,0.051-7.157-0.521
			c-2.946-0.991-5.763-2.405-8.488-3.89c-4.668-2.541-9.265-5.259-13.654-8.261c-2.956-2.021-5.829-4.173-8.557-6.495
			c-1.882-1.603-3.425-3.59-5.324-5.145C85.017,545.702,84.754,545.771,84.758,546L84.758,546z"/>
	</g>
</g>
<g>
	<g>
		<path fill="none" stroke="#000000" stroke-miterlimit="10" d="M39.667,89.966c-4.004-0.438-7.847,2.967-10.424,5.63
			c-3.552,3.67-6.218,8.221-8.054,12.962c-3.009,7.772-2.108,18.333,4.491,24.131c4.993,4.387,11.992,2.881,16.921-0.737
			c6.333-4.649,9.782-12.442,10.017-20.171c0.028-0.928-0.022-1.856-0.091-2.781c-0.048-0.644-0.695-1.079-1.294-0.742
			c-3.047,1.712-6.217,3.195-9.311,4.817c-2.43,1.274-5.273,2.606-6.983,4.833c-0.585,0.762,0.696,1.734,1.325,1.022
			c1.853-2.097,4.719-3.389,7.15-4.673c2.885-1.525,5.843-2.912,8.687-4.515c-0.431-0.248-0.862-0.495-1.294-0.742
			c0.561,7.391-1.912,14.695-7.23,19.926c-4.152,4.084-10.664,6.625-15.959,3.17c-6.756-4.408-7.519-15.019-5.324-21.92
			c2.681-8.431,8.836-16.742,17.472-19.488C40.179,90.556,40.068,90.01,39.667,89.966L39.667,89.966z"/>
	</g>
</g>
<g>
	<g>
		<path fill="none" stroke="#000000" stroke-miterlimit="10" d="M58.484,93c-0.418,4.053,1.04,8.517,1.662,12.512
			c0.331,2.124,0.637,4.261,0.599,6.414c-0.011,0.616-0.496,1.302,0.291,1.616c0.215,0.086,0.46-0.025,0.619-0.164
			c1.875-1.634,0.273-6.819-0.049-8.813c-0.629-3.905-1.54-7.801-2.109-11.702C59.407,92.243,58.539,92.47,58.484,93L58.484,93z"/>
	</g>
</g>
<g>
	<g>
		<path fill="none" stroke="#000000" stroke-miterlimit="10" d="M56.674,94.533c2.774-5.104,6.638-9.429,12.248-11.39
			c0.949-0.332,2.844-1.152,3.856-0.66c0.349,0.17-0.77,1.917-0.88,2.09c-1.737,2.725-4.235,5.049-6.585,7.234
			c-2.273,2.115-4.688,4.267-7.397,5.812c-0.6,0.342-0.512,1.356,0.198,1.511c2.914,0.636,5.683,2.099,8.405,3.271
			c3.601,1.55,7.243,3.061,11.054,4.017c2.67,0.67,5.968,1.192,8.554-0.066c2.794-1.359,3.835-4.396,3.564-7.353
			c-0.083-0.902-1.272-0.876-1.383,0c-0.387,3.056-1.145,5.646-4.499,6.287c-2.965,0.567-6.3-0.543-9.082-1.454
			c-5.436-1.778-10.58-5.085-16.174-6.297c0.066,0.504,0.132,1.008,0.198,1.511c3.373-1.93,6.353-4.721,9.128-7.406
			c2.287-2.212,5.813-5.263,6.507-8.552c0.684-3.237-3.8-2.183-5.391-1.681c-5.553,1.752-11.813,6.843-13.042,12.82
			C55.866,94.651,56.451,94.943,56.674,94.533L56.674,94.533z"/>
	</g>
</g>
<g>
	<g>
		<path fill="none" stroke="#000000" stroke-miterlimit="10" d="M91.502,76.04c-0.034-0.076-0.081-0.138-0.138-0.2
			c-0.27-0.294-0.728-0.186-0.929,0.12c-0.467,0.708,0.212,2.423,0.415,3.096c0.738,2.454,1.689,4.851,2.788,7.165
			c1.639,3.453,4.578,8.076,9.056,5.779c3.98-2.042,3.934-7.682,3.716-11.502c-0.278-4.871-1.38-9.679-2.551-14.399
			c-0.276-1.114-1.999-0.641-1.718,0.474c0.884,3.5,1.685,7.016,2.198,10.592c0.541,3.765,1.149,8.788-1.067,12.144
			c-2.919,4.422-6.645-0.944-7.96-3.488c-1.005-1.944-1.782-3.997-2.517-6.055c-0.283-0.793-0.526-1.601-0.82-2.39
			c-0.105-0.284-0.367-1.184-0.458-0.959c-0.29,0.118-0.579,0.236-0.869,0.354c-0.05-0.047-0.1-0.094-0.15-0.141
			C90.936,77.246,91.807,76.723,91.502,76.04L91.502,76.04z"/>
	</g>
</g>
<g>
	<g>
		<path fill="none" stroke="#000000" stroke-miterlimit="10" d="M109.748,64.333c-0.106,2.747,0.521,5.449,1.068,8.134
			c0.716,3.511,1.084,7.314,2.12,10.734c0.25,0.825,1.463,0.657,1.489-0.202c0.093-3.14-1.083-6.577-1.734-9.629
			c-0.629-2.95-1.515-6.024-1.771-9.037C110.856,63.588,109.777,63.57,109.748,64.333L109.748,64.333z"/>
	</g>
</g>
<g>
	<g>
		<path fill="none" stroke="#000000" stroke-miterlimit="10" d="M110.333,64.311c5.293,0,8.897,3.417,12.716,6.64
			c0.438,0.369,1.358,0.328,1.459-0.385c0.785-5.57,2.791-10.753,5.275-15.774c-0.553-0.072-1.105-0.144-1.658-0.216
			c1.103,4.272,2.748,8.377,4.185,12.543c1.45,4.2,2.129,8.158,2.563,12.549c0.083,0.841,1.337,1.139,1.558,0.211
			c0.895-3.762-0.681-8.195-1.825-11.741c-1.517-4.704-3.48-9.255-4.732-14.044c-0.189-0.724-1.305-0.935-1.658-0.216
			c-2.533,5.159-4.61,10.501-5.392,16.226c0.486-0.128,0.973-0.257,1.459-0.385c-4.05-3.39-8.397-7.627-14.122-6.671
			C109.429,63.167,109.625,64.311,110.333,64.311L110.333,64.311z"/>
	</g>
</g>
<g>
	<g>
		<path fill="none" stroke="#000000" stroke-miterlimit="10" d="M141.185,52.466c0.67,3.604,1.306,7.231,1.934,10.847
			c0.364,2.093,0.701,4.19,1.027,6.29c0.197,1.27,0.069,3.574,1.104,4.481c0.292,0.256,0.713,0.216,0.926-0.119
			c0.639-1.006,0.059-2.636-0.112-3.728c-0.352-2.25-0.727-4.498-1.119-6.741c-0.668-3.83-1.198-7.871-2.847-11.414
			C141.844,51.534,141.087,51.945,141.185,52.466L141.185,52.466z"/>
	</g>
</g>
<g>
	<g>
		<path fill="none" stroke="#000000" stroke-miterlimit="10" d="M141.469,52.607c2.722-3.659,8.155-6.789,12.171-3.372
			c2.448,2.083,0.834,4.201-1.24,5.715c-2.193,1.6-4.759,2.705-7.231,3.792c-1.379,0.606-4.137,1.217-4.737,2.768
			c-0.139,0.359,0.213,0.753,0.569,0.747c0.978-0.018,1.949-0.675,2.832-1.066c1.704-0.756,3.421-1.475,5.104-2.277
			c2.627-1.251,6.285-2.979,7.456-5.875c1.251-3.093-1.708-5.689-4.301-6.765c-4.294-1.782-9.59,2.267-11.561,5.786
			C140.181,52.686,141.061,53.156,141.469,52.607L141.469,52.607z"/>
	</g>
</g>
<g>
	<g>
		<path fill="none" stroke="#000000" stroke-miterlimit="10" d="M156.379,41c0.586,4.834,3.957,9.229,7.586,12.273
			c2.863,2.401,8.822,5.422,12.171,2.197c0.521-0.502-0.035-1.207-0.646-1.11c-1.949,0.308-3.398,0.817-5.412,0.323
			c-2.216-0.543-4.189-1.989-5.869-3.471c-3.112-2.745-5.439-6.408-6.61-10.377C157.408,40.188,156.292,40.283,156.379,41
			L156.379,41z"/>
	</g>
</g>
<g>
	<g>
		<path fill="none" stroke="#000000" stroke-miterlimit="10" d="M176.307,39.191c2.136,9.994-0.485,20.283-2.652,30.057
			c-1.115,5.026-2.29,10.045-3.104,15.132c-0.327,2.039-0.569,4.093-0.676,6.155c-0.081,1.551-0.305,3.579,0.733,4.857
			c0.294,0.363,0.786,0.094,0.927-0.245c0.613-1.471,0.167-3.533,0.249-5.11c0.12-2.32,0.479-4.625,0.873-6.913
			c0.929-5.386,2.232-10.704,3.393-16.042c1.137-5.227,2.166-10.491,2.675-15.82c0.395-4.122,0.552-8.739-1.104-12.625
			C177.286,37.852,176.146,38.438,176.307,39.191L176.307,39.191z"/>
	</g>
</g>
<g>
	<g>
		<path fill="none" stroke="#000000" stroke-miterlimit="10" d="M236.085,40.089c-5.581-9.851-17.355,0.188-21.623,5.841
			c-4.526,5.995-10.001,19.245,0.786,22.143c5.501,1.478,12.372-0.263,17.325-2.665c0.513-0.249,0.13-0.956-0.364-0.864
			c-5.522,1.027-14.644,4.653-19.617,0.168c-3.291-2.967-1.643-8.471-0.13-11.891c2.816-6.367,13.313-20.321,21.461-13.479
			c0.497,0.418,0.966,0.852,1.402,1.333C235.702,41.092,236.352,40.559,236.085,40.089L236.085,40.089z"/>
	</g>
</g>
<g>
	<g>
		<path fill="none" stroke="#000000" stroke-miterlimit="10" d="M249.904,44.572c-2.616,3.268-4.461,7.169-6.245,10.933
			c-0.902,1.903-1.728,3.844-2.54,5.787c-0.584,1.396-1.58,2.989-1.344,4.529c0.072,0.472,0.673,0.5,0.967,0.255
			c1.016-0.845,1.332-2.475,1.814-3.667c0.818-2.028,1.7-4.031,2.611-6.021c1.734-3.789,3.749-7.399,5.688-11.082
			C251.161,44.725,250.354,44.013,249.904,44.572L249.904,44.572z"/>
	</g>
</g>
<g>
	<g>
		<path fill="none" stroke="#000000" stroke-miterlimit="10" d="M247.411,46.078c2.396-2.315,5.457-4.252,8.881-3.201
			c2.907,0.893,4.868,3.824,6.177,6.379c1.516,2.956,2.301,6.351,2.395,9.659c0.041,1.404-0.116,2.797-0.488,4.15
			c-0.311,1.128-1.201,2.106-1.309,3.268c-0.037,0.403,0.41,0.666,0.763,0.58c2.7-0.662,2.897-5.878,2.88-7.999
			c-0.034-3.943-1.218-7.925-3.09-11.374c-1.561-2.871-3.993-5.516-7.229-6.395c-3.842-1.044-7.324,1.447-9.802,4.108
			C246.078,45.804,246.87,46.602,247.411,46.078L247.411,46.078z"/>
	</g>
</g>
<g>
	<g>
		<path fill="none" stroke="#000000" stroke-miterlimit="10" d="M242.333,56.865c3.333-0.216,6.647-0.602,9.989-0.707
			c2.166-0.068,8.441-0.882,9.39,1.68c0.173,0.468,0.692,0.619,1.077,0.284c1.075-0.938,0.029-2.31-0.912-2.801
			c-1.775-0.926-4.141-0.904-6.084-0.949c-2.787-0.065-5.587,0.149-8.355,0.455c-1.729,0.191-3.627,0.319-5.246,0.995
			C241.686,56.033,241.682,56.907,242.333,56.865L242.333,56.865z"/>
	</g>
</g>
<g>
	<g>
		<path fill="none" stroke="#000000" stroke-miterlimit="10" d="M271.292,43.499c3.153-1.817,8.634-0.772,12.038-0.437
			c4.514,0.445,8.986,1.253,13.436,2.125c-0.07-0.54-0.142-1.079-0.211-1.618c-0.977,0.513-1.945,0.752-2.99,1.054
			c-0.369,0.106-0.377,0.65,0,0.753c1.379,0.377,2.322,0.308,3.672-0.189c0.75-0.277,0.935-1.519,0-1.707
			c-4.813-0.97-9.678-1.742-14.563-2.206c-3.786-0.359-8.586-0.9-11.963,1.227C270.079,42.897,270.643,43.873,271.292,43.499
			L271.292,43.499z"/>
	</g>
</g>
<g>
	<g>
		<path fill="none" stroke="#000000" stroke-miterlimit="10" d="M284.93,44.13c-1.965,5.437-3.318,11.097-4.851,16.665
			c-0.769,2.793-1.552,5.581-2.386,8.356c-0.314,1.047-0.487,2.142,0.81,2.541c0.381,0.117,0.903-0.064,1.08-0.44
			c0.362-0.771,0.289-1.622-0.003-2.412c-0.213-0.576-0.943-0.566-1.16,0c-0.145,0.378-0.234,0.755-0.325,1.149
			c1.136,0.181,1.71-0.239,1.722-1.259c0.186-0.619,0.365-1.238,0.545-1.857c0.718-2.468,1.389-4.949,2.051-7.432
			c1.326-4.967,2.744-9.917,3.994-14.904C286.648,43.567,285.26,43.212,284.93,44.13L284.93,44.13z"/>
	</g>
</g>
<g>
	<g>
		<path fill="none" stroke="#000000" stroke-miterlimit="10" d="M316.153,58.467c1.296-4.311-2.515-6.07-6.239-6
			c-4.438,0.083-9.989,2.107-12.374,6.07c-0.333,0.554,0.015,1.132,0.549,1.349c3.233,1.308,6.966,1.57,10.354,2.334
			c3.194,0.721,9.118,1.787,10.231,5.482c0.602,1.992-1.078,4.195-2.627,5.198c-2.136,1.383-5.021,1.283-7.443,1.041
			c-4.959-0.497-9.551-2.633-13.969-4.79c-0.587-0.286-1.24,0.448-0.725,0.938c5.306,5.035,25.337,10.724,26.639-0.985
			c0.5-4.495-4.405-6.542-7.914-7.669c-4.556-1.464-9.631-1.528-14.058-3.319c0.183,0.45,0.364,0.899,0.549,1.349
			c1.847-3.084,5.815-4.48,9.176-5.066c3.065-0.536,7.396-0.127,6.861,3.937C315.087,58.915,315.996,58.99,316.153,58.467
			L316.153,58.467z"/>
	</g>
</g>
<g>
	<g>
		<path fill="none" stroke="#000000" stroke-miterlimit="10" d="M303.686,39c-0.084,0.844-0.231,1.662-0.588,2.437
			c-0.338,0.731-0.943,1.343-1.164,2.12c-0.084,0.296,0.207,0.604,0.51,0.509c1.939-0.605,2.654-3.285,2.539-5.066
			C304.927,38.156,303.768,38.175,303.686,39L303.686,39z"/>
	</g>
</g>
<g>
	<g>
		<path fill="none" stroke="#000000" stroke-miterlimit="10" d="M345.294,65.96c-3.201,2.586-5.043,6.777-7.104,10.289
			c-1.349,2.296-2.726,4.58-4.286,6.736c-0.844,1.161-2.224,3.12-3.701,3.544c-0.382,0.109-0.512,0.701-0.116,0.892
			c3.275,1.588,6.714-5.383,7.938-7.378c1.541-2.511,2.978-5.085,4.441-7.64c0.992-1.729,2.077-4.336,3.571-5.697
			C346.552,66.24,345.813,65.542,345.294,65.96L345.294,65.96z"/>
	</g>
</g>
<g>
	<g>
		<path fill="none" stroke="#000000" stroke-miterlimit="10" d="M343.338,66.23c4.177,2.059,6.448,6.585,7.981,10.766
			c0.832,2.269,1.396,4.635,1.792,7.017c0.32,1.945,0.153,3.936,0.465,5.862c0.133,0.829,1.288,0.665,1.514,0
			c0.659-1.938,0.152-4.396-0.149-6.366c-0.434-2.796-1.239-5.535-2.271-8.166c-1.625-4.144-4.308-8.896-8.827-10.306
			C343.141,64.819,342.67,65.901,343.338,66.23L343.338,66.23z"/>
	</g>
</g>
<g>
	<g>
		<path fill="none" stroke="#000000" stroke-miterlimit="10" d="M367.145,67.361c-2.476,4.975-5.983,9.646-9.133,14.209
			c-1.913,2.774-3.879,5.512-5.877,8.225c-0.929,1.261-1.872,2.512-2.825,3.756c-0.67,0.874-1.5,1.663-1.633,2.783
			c-0.049,0.411,0.458,0.765,0.831,0.633c1.867-0.662,3.387-3.694,4.518-5.22c2.111-2.855,4.167-5.755,6.185-8.68
			c3.35-4.855,6.771-9.778,9.043-15.239C368.516,67.192,367.447,66.752,367.145,67.361L367.145,67.361z"/>
	</g>
</g>
<g>
	<g>
		<path fill="none" stroke="#000000" stroke-miterlimit="10" d="M378.629,84.494c-5.885-3.8-13.854,3.483-15.6,8.824
			c-2.017,6.158,5.046,10.443,10.231,7.871c4.513-2.237,7.181-8.292,7.277-13.107c0.039-1.904-0.549-3.952-2.272-4.97
			c-2.336-1.38-5.098,0.119-6.938,1.549c-0.381,0.296,0.03,0.959,0.468,0.803c1.524-0.545,3.981-1.609,5.584-0.831
			c1.315,0.638,1.438,2.482,1.419,3.742c-0.06,3.82-2.143,7.92-5.021,10.375c-3.629,3.093-10.226,0.788-9.146-4.543
			c0.936-4.609,8.477-11.484,13.405-8.7C378.699,85.88,379.261,84.902,378.629,84.494L378.629,84.494z"/>
	</g>
</g>
<g>
	<g>
		<path fill="none" stroke="#000000" stroke-miterlimit="10" d="M387,88.163c1.347,0.171,2.853,0.874,4.173,1.236
			c2.54,0.696,5.07,1.429,7.603,2.162c2.369,0.687,4.738,1.384,7.106,2.081c0.75,0.221,1.468,0.41,2.232,0.536
			c0.188,0.031,1.241,0.138,0.748-0.01c0.644,0.193,0.916-0.81,0.273-1.002c0.481,0.144-0.472-0.355-0.639-0.429
			c-0.704-0.311-1.411-0.541-2.157-0.762c-2.367-0.702-4.739-1.387-7.115-2.059c-3.81-1.077-8.214-2.923-12.227-2.745
			C386.344,87.2,386.381,88.084,387,88.163L387,88.163z"/>
	</g>
</g>
<g>
	<g>
		<path fill="none" stroke="#000000" stroke-miterlimit="10" d="M398.633,91.039c-5.104,2.64-8.808,7.899-11.958,12.535
			c-1.698,2.499-3.251,5.097-4.729,7.729c-0.773,1.375-2.523,3.528-2.194,5.192c0.081,0.411,0.563,0.518,0.89,0.362
			c1.317-0.628,1.982-2.911,2.646-4.12c1.318-2.409,2.731-4.765,4.221-7.074c3.232-5.016,6.947-9.899,11.863-13.369
			C400.126,91.758,399.476,90.604,398.633,91.039L398.633,91.039z"/>
	</g>
</g>
<g>
	<g>
		<path fill="none" stroke="#000000" stroke-miterlimit="10" d="M404.631,104.369c-3.043,2.214-5.553,5.208-7.825,8.181
			c-0.467,0.61-3.538,4.665-1.139,4.899c0.288,0.028,0.516-0.309,0.434-0.569c-0.024-0.08,0.333-0.331,0.618-0.891
			c0.655-1.292,1.615-2.466,2.514-3.592c1.926-2.419,4.018-4.776,6.284-6.88C406.117,104.96,405.309,103.876,404.631,104.369
			L404.631,104.369z"/>
	</g>
</g>
<g>
	<g>
		<path fill="none" stroke="#000000" stroke-miterlimit="10" d="M404.501,103.61c1.703-0.548,3.596-0.707,5.366-0.44
			c2.156,0.326,2.254,1.47,2.76,3.266c0.077,0.273,0.444,0.385,0.646,0.17c1.618-1.72,0.169-4.052-1.729-4.739
			c-2.441-0.885-5.208-0.43-7.532,0.585C403.353,102.743,403.826,103.827,404.501,103.61L404.501,103.61z"/>
	</g>
</g>
<g>
	<g>
		<path fill="none" stroke="#000000" stroke-miterlimit="10" d="M397.488,110.981c1.938,0.511,3.752,1.175,5.51,2.152
			c1.547,0.861,2.757,2.369,4.359,3.063c0.569,0.247,1.107-0.256,0.839-0.839c-0.769-1.654-2.819-2.807-4.337-3.697
			c-1.892-1.109-4.023-1.758-6.192-1.998C396.899,109.577,396.772,110.793,397.488,110.981L397.488,110.981z"/>
	</g>
</g>
<g>
	<g>
		<path fill="none" stroke="#000000" stroke-miterlimit="10" d="M390.553,117.447c2.818,3.124,9.039,6.005,13.247,4.701
			c0.492-0.152,0.459-0.798,0-0.964c-1.986-0.718-4.188-0.804-6.229-1.418c-2.203-0.664-4.317-1.791-6.124-3.213
			C390.818,116.057,389.993,116.828,390.553,117.447L390.553,117.447z"/>
	</g>
</g>
<g>
	<g>
		<path fill="none" stroke="#000000" stroke-miterlimit="10" d="M432.954,123.838c1.148-5.546-1.686-10.272-7.367-11.296
			c-3.768-0.679-9.722,0.663-10.195,5.28c-0.603,5.873,6.85,9.453,10.408,12.799c0.875,0.823,2.182,1.999,2.193,3.3
			c0.017,1.633-4.553,1.968-5.479,2.08c-3.965,0.476-11.231-3.374-10.146-8.141c0.185-0.805-0.885-1.268-1.327-0.56
			c-1.961,3.13,1.271,6.346,3.635,8.085c3.619,2.663,7.741,2.943,11.962,1.726c7.877-2.273-0.916-9.178-3.819-11.462
			c-2.275-1.791-4.861-3.637-5.519-6.641c-0.518-2.373,1.772-3.853,3.717-4.421c2.404-0.703,5.159-0.347,7.329,0.875
			c2.97,1.67,3.677,5.052,3.346,8.205C431.612,124.392,432.809,124.543,432.954,123.838L432.954,123.838z"/>
	</g>
</g>
</svg>
