<?xml version="1.0" encoding="utf-8"?>
<!-- Generator: Adobe Illustrator 15.1.0, SVG Export Plug-In . SVG Version: 6.00 Build 0)  -->
<!DOCTYPE svg PUBLIC "-//W3C//DTD SVG 1.1//EN" "http://www.w3.org/Graphics/SVG/1.1/DTD/svg11.dtd">
<svg version="1.1" id="Layer_1" xmlns="http://www.w3.org/2000/svg" xmlns:xlink="http://www.w3.org/1999/xlink" x="0px" y="0px"
	 width="500px" height="281px" viewBox="0 0 500 281" enable-background="new 0 0 500 281" xml:space="preserve">
<rect fill="#C2DBDF" width="500" height="281"/>
<g>
	<g>
		<g>
			<path fill="#FFFFFF" d="M442.197,111.741c0.821-0.517,1.908-0.269,2.701,0.967l6.576,10.491c0.238,0.412-0.01,1.497-0.834,2.014
				l-4.004,2.512c-0.823,0.516-1.909,0.266-2.149-0.144l-6.576-10.494c-0.792-1.234-0.544-2.319,0.279-2.836L442.197,111.741z"/>
		</g>
		<g>
			<g>
				<path fill="#173957" d="M439.147,119.29l5.064,7.88c0.516,0.82,1.602,1.07,2.425,0.555l4.004-2.512
					c0.824-0.517,1.072-1.602,0.557-2.425l-5.064-7.876L439.147,119.29z"/>
			</g>
		</g>
	</g>
</g>
<g>
	<path fill="#173957" d="M456.595,192.677l-4.057-5.85c-0.383-0.551-0.919-0.933-1.513-1.126c-0.857-0.282-1.829-0.178-2.628,0.377
		l-0.177,0.123c0.509,0.267,0.962,0.654,1.312,1.158l5.061,7.297c0.547,0.788,0.739,1.721,0.616,2.602l0.637-0.441
		c0.798-0.553,1.239-1.426,1.274-2.33C457.145,193.865,456.978,193.229,456.595,192.677z"/>
	<path fill="#173957" d="M454.593,194.656l-5.061-7.297c-0.35-0.504-0.803-0.892-1.312-1.158c-1.175-0.617-2.644-0.576-3.81,0.23
		l-1.762,1.223c-1.671,1.157-2.086,3.451-0.929,5.121l5.061,7.295c1.158,1.672,3.452,2.086,5.121,0.928l1.763-1.223
		c0.879-0.608,1.406-1.533,1.544-2.518C455.332,196.377,455.14,195.444,454.593,194.656z"/>
	<path fill="#FFFFFF" d="M469.968,212.444c-0.536,5.862-3.865,10.956-9.893,15.134l1.354,1.954
		c6.633-4.603,10.304-10.279,10.905-16.88c0.523-5.733-1.354-12.241-5.433-18.817c-3.048-4.916-6.21-8.117-6.342-8.251l-0.702-0.708
		l-3.904,2.707l0.612,0.882l-1.763-2.54c-0.735-1.061-2.192-1.323-3.252-0.589l-0.526,0.365c0.594,0.193,1.13,0.575,1.513,1.126
		l4.057,5.85c0.383,0.553,0.55,1.188,0.525,1.81l0.525-0.363c1.061-0.736,1.323-2.19,0.589-3.252l-0.926-1.335l2.241-1.554
		C462.103,190.819,470.971,201.528,469.968,212.444z"/>
	<path fill="#FFFFFF" d="M429.593,213.578l0.526-0.365c-0.594-0.193-1.13-0.573-1.513-1.126l-4.058-5.85
		c-0.382-0.553-0.55-1.187-0.524-1.81l-0.525,0.363c-1.062,0.736-1.324,2.192-0.589,3.254l3.43,4.944
		C427.075,214.05,428.532,214.314,429.593,213.578z"/>
	<path fill="#173957" d="M424.549,206.237l4.058,5.85c0.383,0.553,0.919,0.933,1.513,1.126c0.857,0.282,1.829,0.178,2.627-0.375
		l0.312-0.218c-0.871-0.194-1.674-0.698-2.223-1.489l-5.06-7.294c-0.348-0.503-0.551-1.06-0.623-1.626
		c-0.705,0.555-1.095,1.373-1.128,2.217C423.999,205.051,424.167,205.685,424.549,206.237z"/>
	<path fill="#173957" d="M430.835,211.131c0.549,0.791,1.352,1.295,2.223,1.489c0.969,0.218,2.019,0.046,2.898-0.563l1.763-1.222
		c1.67-1.158,2.085-3.452,0.927-5.122l-5.061-7.295c-1.156-1.67-3.451-2.084-5.119-0.926l-1.765,1.223
		c-1.168,0.811-1.72,2.177-1.549,3.496c0.072,0.566,0.275,1.123,0.623,1.626L430.835,211.131z"/>
	<path fill="#FFFFFF" d="M441.799,233.831c6.391,1.747,12.996,0.301,19.63-4.299l-1.354-1.954
		c-6.026,4.182-11.962,5.513-17.641,3.964c-10.577-2.889-17.499-14.946-19.261-18.333l2.24-1.554l-1.354-1.952l-3.904,2.707
		l0.416,0.905c0.079,0.172,1.971,4.255,5.507,8.832C430.81,228.271,436.245,232.313,441.799,233.831z"/>
</g>
<g>
	<path fill-rule="evenodd" clip-rule="evenodd" fill="#224659" d="M91.152,238.361c5.695-4.094,27.194-16.396,30.804-17.826
		c3.61-1.432,6.596,2.173,7.673,3.74c1.076,1.567-0.471,3.277-2.292,0.625c-1.823-2.652-3.04-3.932-5.002-2.822
		c-1.961,1.105-27.867,16.899-29.633,18.043C90.935,241.266,89.947,239.084,91.152,238.361z"/>
	<path fill-rule="evenodd" clip-rule="evenodd" fill="#224659" d="M124.282,215.602c-5.863,3.846-25.059,19.502-27.689,22.357
		c-2.632,2.856-0.338,6.938,0.738,8.504c1.077,1.568,3.229,0.738,1.406-1.914c-1.821-2.653-2.578-4.249-0.841-5.682
		c1.738-1.434,25.772-19.951,27.473-21.189C127.071,216.439,125.388,214.734,124.282,215.602z"/>
	<path fill-rule="evenodd" clip-rule="evenodd" d="M125.503,230.592c3.552-3.209,3.258-5.717,2.103-8.287
		c-1.362-3.025-1.999-3.968-1.426-4.726c0.419-0.556,0.122-1.235-0.4-1.908c-0.523-0.673-0.602-0.73-1.727-0.393
		c-0.94,0.282-5.659,2.979-8.5,5.294c-0.064,0.053-0.128,0.105-0.193,0.16l0.627,0.609c2.42-1.954,5.244-3.484,6.269-3.556
		c2.148-0.147,4.83,4.389,5.111,7.353c0.156,1.645-0.948,3.466-2.456,4.877L125.503,230.592z M108.135,227.67
		c-1.015,0.73-6.045,2.514-9.221,4.333c-0.503,0.288-1.034,0.617-1.57,0.97l0.653,0.635c2.665-1.782,5.971-3.33,7.879-2.688
		c2.844,0.96,3.767,7.426,2.235,10.056c-0.271,0.465-0.658,0.931-1.125,1.37l0.602,0.586c2.715-2.582,2.351-5.563,2.219-6.643
		c-0.279-2.295-2.151-4.439,0.157-6.025c2.309-1.586,3.651,0.86,5.695,1.945c1.146,0.609,4.686,2.569,9.018-0.916
		c0.296-0.237,0.571-0.471,0.825-0.701l-0.592-0.576c-1.312,1.226-2.926,2.142-4.283,2.36c-3.002,0.486-8.708-2.694-8.583-5.692
		c0.069-1.652,1.855-3.654,3.942-5.342l-0.627-0.609C112.888,222.809,110.461,225.995,108.135,227.67z M97.344,232.973
		c-2.853,1.873-5.914,4.411-6.42,5.066c-0.718,0.928-0.693,1.021-0.253,1.75c0.441,0.729,0.969,1.252,1.638,1.06
		c0.913-0.263,1.562,0.671,3.899,3.024c2.128,2.146,4.542,3.341,9.439,0.494c0.779-0.453,1.417-0.937,1.942-1.436l-0.602-0.586
		c-2.088,1.971-5.789,3.448-8.05,2.322c-2.664-1.326-5.937-5.455-5.028-7.407c0.353-0.757,2.028-2.275,4.088-3.653L97.344,232.973z"
		/>
	<path fill-rule="evenodd" clip-rule="evenodd" fill="#AFCAD4" d="M93.91,237.261c0.809-1.735,8.583-7.481,11.967-6.341
		c2.844,0.96,3.767,7.426,2.235,10.056c-1.486,2.551-6.408,5.069-9.175,3.692C96.274,243.342,93.001,239.213,93.91,237.261
		L93.91,237.261z M122.256,217.786c-1.908,0.132-10.063,5.329-10.21,8.897c-0.125,2.998,5.58,6.179,8.583,5.692
		c2.915-0.472,7.032-4.163,6.739-7.237C127.086,222.175,124.405,217.639,122.256,217.786z"/>
	<g>
		<path fill-rule="evenodd" clip-rule="evenodd" fill="#D2E0E3" d="M94.491,236.473c2.048-2.238,8.413-6.556,11.386-5.553
			c1.995,0.674,3.044,4.055,2.964,6.922L94.491,236.473z"/>
		<path fill-rule="evenodd" clip-rule="evenodd" fill="#D2E0E3" d="M112.675,224.871l14.616,1.395
			c0.083-0.381,0.112-0.758,0.076-1.127c-0.281-2.964-2.962-7.5-5.111-7.353C120.653,217.896,114.646,221.58,112.675,224.871z"/>
	</g>
	<path fill-rule="evenodd" clip-rule="evenodd" fill="#607F91" d="M120.062,218.631c-1.938,1.46-4.2,3.217-6.544,5.076
		c-0.544,0.648-0.974,1.3-1.227,1.924l0,0l-0.006,0.018l-0.003,0.004l-0.004,0.012l-0.007,0.018l-0.006,0.018h-0.001l-0.006,0.017
		l-0.006,0.017l-0.004,0.012l-0.002,0.005l-0.013,0.034l-0.003,0.008l-0.002,0.009l-0.006,0.017l-0.006,0.018l-0.001,0.002
		l-0.004,0.014l-0.006,0.018l-0.005,0.016l0,0l-0.006,0.018l-0.005,0.016l-0.004,0.012l-0.001,0.006l-0.005,0.016l-0.006,0.018
		l-0.001,0.006l-0.003,0.012L112.162,226v0.004l-0.009,0.027v0.002l-0.004,0.017l-0.004,0.015l-0.001,0.002l-0.004,0.017
		l-0.005,0.017l-0.002,0.01l-0.001,0.007l-0.004,0.017l-0.005,0.017l-0.003,0.017l-0.004,0.016l-0.004,0.018l0,0l-0.004,0.016
		l-0.003,0.017l-0.004,0.017l-0.003,0.017l-0.003,0.017l-0.002,0.006l-0.001,0.011l-0.003,0.015l-0.003,0.017l-0.001,0.003
		l-0.002,0.014l-0.005,0.027l-0.001,0.004v0.002v0.003l-0.005,0.028l-0.001,0.011l-0.001,0.005l-0.002,0.018l-0.003,0.016v0.006
		l-0.001,0.011l-0.002,0.017l-0.002,0.016l-0.001,0.002v0.014l-0.003,0.017v0.013l-0.001,0.002v0.002l-0.002,0.031l-0.001,0.009
		l-0.001,0.007l-0.002,0.032v0.004l-0.002,0.044l-0.001,0.017v0.005l-0.001,0.012v0.01v0.007v0.015l0,0l-0.001,0.018v0.006v0.012
		v0.009v0.007l0.001,0.016v0.002v0.016v0.004l0.001,0.014v0.01l0.001,0.006v0.016v0.002v0.018c0.02,0.395,0.138,0.793,0.334,1.183
		c5.015-3.049,9.211-5.585,9.955-6.005c1.962-1.109,3.179,0.17,5.002,2.822l0.004,0.006c-0.172-1.301-0.771-2.859-1.563-4.188
		c-1.134-0.539-2.431-0.736-3.822-0.184c-0.211,0.083-0.481,0.203-0.807,0.357c1.206-0.925,2.224-1.703,2.968-2.271
		c-0.619-0.553-1.261-0.876-1.861-0.836C121.809,217.817,121.015,218.128,120.062,218.631L120.062,218.631z M95.489,235.513
		c2.056-1.286,4.504-2.765,7.079-4.284c0.803-0.277,1.566-0.445,2.241-0.457l0,0h0.018h0.002c0.029,0,0.06,0,0.088,0h0.011h0.007
		h0.018h0.018l0.006,0.002h0.012l0.017,0.001h0.018h0.001l0.017,0.001l0.017,0.001l0.013,0.001h0.004h0.017l0.019,0.001l0.009,0.001
		l0.008,0.001h0.017l0.018,0.002h0.004l0.013,0.001l0.017,0.002l0.017,0.001l0,0l0.017,0.003h0.018l0.012,0.002h0.004l0.018,0.002
		l0.016,0.002l0.017,0.002l0.017,0.002l0.017,0.002l0.003,0.002l0.013,0.001l0.017,0.002l0.016,0.003l0,0l0.018,0.002l0.017,0.003
		l0.01,0.001l0.005,0.002l0.017,0.002l0.016,0.004l0.007,0.002h0.009l0.016,0.002l0.017,0.004h0.002l0.013,0.004l0.016,0.003
		l0.015,0.003h0.002l0.016,0.004l0.015,0.004l0.009,0.001l0.007,0.003l0.016,0.002l0.016,0.004l0.005,0.002l0.011,0.002l0.015,0.005
		l0.016,0.004l0,0l0.015,0.004l0.015,0.005l0.012,0.004h0.004l0.015,0.004l0.023,0.008l0.007,0.002l0.031,0.009l0.003,0.001
		l0.012,0.004l0.029,0.01l0.016,0.006l0.005,0.002l0.011,0.004l0.009,0.003l0.006,0.003l0.015,0.006l0,0l0.016,0.004l0.004,0.002
		l0.011,0.006l0.009,0.003l0.006,0.003l0.015,0.005l0.001,0.001l0.015,0.006l0.004,0.002l0.011,0.004l0.031,0.014l0.015,0.007
		l0.003,0.001l0.012,0.006c0.356,0.16,0.681,0.41,0.97,0.729c-4.64,3.586-8.509,6.588-9.168,7.133
		c-1.737,1.433-0.98,3.028,0.841,5.682l0.016,0.022c-1.154-0.622-2.399-1.739-3.358-2.959c-0.102-1.257,0.178-2.547,1.198-3.653
		c0.153-0.166,0.363-0.377,0.623-0.625c-1.301,0.797-2.396,1.471-3.193,1.963c-0.293-0.776-0.366-1.491-0.113-2.036
		C94.1,236.852,94.675,236.223,95.489,235.513z"/>
	<g>
		<path fill-rule="evenodd" clip-rule="evenodd" fill="#7F97A6" d="M94.491,236.473l5.752,0.549
			c1.697-1.322,4.129-3.206,6.822-5.287c-0.29-0.318-0.614-0.568-0.97-0.729L106.082,231l-0.003-0.001l-0.015-0.007l-0.031-0.014
			l-0.011-0.004l-0.004-0.002l-0.015-0.006l-0.001-0.001l-0.015-0.005l-0.006-0.003l-0.009-0.003l-0.011-0.006l-0.004-0.002
			l-0.016-0.004l0,0l-0.015-0.006l-0.006-0.003l-0.009-0.003l-0.011-0.004l-0.005-0.002l-0.016-0.006l-0.029-0.01l-0.012-0.004
			l-0.003-0.001l-0.031-0.009l-0.007-0.002l-0.023-0.008l-0.015-0.004h-0.004l-0.012-0.004l-0.015-0.005l-0.015-0.004l0,0
			l-0.016-0.004l-0.015-0.005l-0.011-0.002l-0.005-0.002l-0.016-0.004l-0.016-0.002l-0.007-0.003l-0.009-0.001l-0.015-0.004
			l-0.016-0.004h-0.002l-0.015-0.003l-0.016-0.003l-0.013-0.004h-0.002l-0.017-0.004l-0.016-0.002h-0.009l-0.007-0.002l-0.016-0.004
			l-0.017-0.002l-0.005-0.002l-0.01-0.001l-0.017-0.003l-0.018-0.002l0,0l-0.016-0.003l-0.017-0.002l-0.013-0.001l-0.003-0.002
			l-0.017-0.002l-0.017-0.002l-0.017-0.002l-0.016-0.002l-0.018-0.002h-0.004l-0.012-0.002h-0.018l-0.017-0.003l0,0l-0.017-0.001
			l-0.017-0.002l-0.013-0.001h-0.004l-0.018-0.002h-0.017l-0.008-0.001l-0.009-0.001l-0.019-0.001h-0.017h-0.004l-0.013-0.001
			l-0.017-0.001l-0.017-0.001h-0.001h-0.018l-0.017-0.001h-0.012l-0.006-0.002h-0.018h-0.018h-0.007h-0.011
			c-0.028,0-0.059,0-0.088,0h-0.002h-0.018l0,0c-0.675,0.012-1.438,0.18-2.241,0.457c-2.574,1.52-5.023,2.998-7.079,4.284
			C95.095,235.857,94.757,236.183,94.491,236.473z"/>
		<path fill-rule="evenodd" clip-rule="evenodd" fill="#7F97A6" d="M120.062,218.631c-1.938,1.46-4.2,3.217-6.544,5.076
			c-0.327,0.389-0.612,0.779-0.842,1.164l4.319,0.411c2.8-1.696,4.843-2.925,5.341-3.204c1.962-1.109,3.179,0.17,5.002,2.822
			l0.004,0.006c-0.172-1.301-0.771-2.859-1.563-4.188c-1.134-0.539-2.431-0.736-3.822-0.184c-0.211,0.083-0.481,0.203-0.807,0.357
			c1.206-0.925,2.224-1.703,2.968-2.271c-0.619-0.553-1.261-0.876-1.861-0.836C121.809,217.817,121.015,218.128,120.062,218.631z"/>
	</g>
</g>
<g>
	<path fill-rule="evenodd" clip-rule="evenodd" fill="#F25968" d="M434.18,138.679l-5.799-2.156l5.799-2.157h52.604
		c0.647,0,1.177,0.529,1.177,1.177v1.961c0,0.647-0.529,1.176-1.177,1.176H434.18z"/>
	<path fill-rule="evenodd" clip-rule="evenodd" fill="#C62029" d="M434.18,138.679l-5.799-2.156h5.994h53.585v0.98
		c0,0.647-0.529,1.176-1.177,1.176H434.18z"/>
	<path fill-rule="evenodd" clip-rule="evenodd" fill="#FFFFFF" d="M434.18,138.679l-5.799-2.156l5.799-2.157h50.872
		c0.258,1.52,0.246,2.947-0.001,4.313H434.18z"/>
	<path fill-rule="evenodd" clip-rule="evenodd" fill="#D0D0D0" d="M434.18,138.679l-5.799-2.156h5.994h50.865
		c0.003,0.738-0.063,1.456-0.189,2.156H434.18z"/>
	<path fill-rule="evenodd" clip-rule="evenodd" fill="#D88920" d="M434.18,138.679l-5.799-2.156l5.799-2.157h49.495
		c0.276,1.527,0.265,2.956,0,4.313H434.18z"/>
	<path fill-rule="evenodd" clip-rule="evenodd" fill="#FEA621" d="M434.18,138.679l-5.799-2.156h5.994h49.504
		c0.001,0.74-0.067,1.458-0.204,2.156H434.18z"/>
	<path fill-rule="evenodd" clip-rule="evenodd" fill="#F0B16C" d="M434.18,138.679l-5.799-2.156l5.799-2.157
		c0.129,0.685,0.197,1.408,0.195,2.157C434.377,137.271,434.309,137.993,434.18,138.679z"/>
	<path fill-rule="evenodd" clip-rule="evenodd" fill="#C78B4C" d="M434.18,138.679l-5.799-2.156h5.994
		C434.377,137.271,434.309,137.993,434.18,138.679z"/>
	<path fill-rule="evenodd" clip-rule="evenodd" fill="#1E1E1E" d="M429.997,137.234l-1.616-0.712l1.617-0.713
		c0.041,0.227,0.064,0.467,0.064,0.713C430.063,136.771,430.039,137.009,429.997,137.234z"/>
</g>
<g id="note_1_">
	<g>
		<polygon fill-rule="evenodd" clip-rule="evenodd" fill="#F4F7A3" points="487.315,109.5 475.441,121.315 463.697,123.137 
			463.693,123.137 450.841,110.221 469.526,91.626 		"/>
		
			<rect x="464.703" y="100.103" transform="matrix(-0.7055 -0.7087 0.7087 -0.7055 741.9846 511.6817)" fill-rule="evenodd" clip-rule="evenodd" fill="#F69747" width="25.219" height="3.13"/>
	</g>
	<polygon fill-rule="evenodd" clip-rule="evenodd" fill="#D6D690" points="475.441,121.315 463.697,123.137 463.693,123.137 
		470.451,116.353 	"/>
</g>
<g>
	<g>
		<g>
			
				<rect x="417.046" y="161.465" transform="matrix(1 -0.0012 0.0012 1 -0.2055 0.5671)" fill="#FFFFFF" width="76.023" height="7.548"/>
		</g>
		<g>
			<g>
				<g>
					
						<rect x="417.97" y="163.245" transform="matrix(0.0014 1 -1 0.0014 582.9208 -256.7277)" fill="#173957" width="4.078" height="0.541"/>
				</g>
				<g>
					<rect x="421.356" y="161.477" fill="#173957" width="0.538" height="4.078"/>
				</g>
				<g>
					
						<rect x="420.525" y="163.926" transform="matrix(0.0014 1 -1 0.0014 586.8323 -259.2843)" fill="#173957" width="5.438" height="0.54"/>
				</g>
				<g>
					<rect x="424.591" y="161.477" fill="#173957" width="0.54" height="4.078"/>
				</g>
				<g>
					<rect x="426.209" y="161.477" fill="#173957" width="0.538" height="4.078"/>
				</g>
				<g>
					
						<rect x="425.378" y="163.926" transform="matrix(0.0013 1 -1 0.0013 591.7552 -264.1079)" fill="#173957" width="5.438" height="0.54"/>
				</g>
				<g>
					<rect x="429.443" y="161.477" fill="#173957" width="0.539" height="4.078"/>
				</g>
				<g>
					<rect x="431.062" y="161.477" fill="#173957" width="0.539" height="4.078"/>
				</g>
				<g>
					
						<rect x="430.23" y="163.926" transform="matrix(0.0013 1 -1 0.0013 596.6012 -268.96)" fill="#173957" width="5.438" height="0.539"/>
				</g>
				<g>
					<rect x="434.296" y="161.477" fill="#173957" width="0.539" height="4.078"/>
				</g>
				<g>
					<rect x="435.914" y="161.477" fill="#173957" width="0.538" height="4.078"/>
				</g>
				<g>
					
						<rect x="435.083" y="163.927" transform="matrix(0.0011 1 -1 0.0011 601.5262 -273.7831)" fill="#173957" width="5.438" height="0.538"/>
				</g>
				<g>
					<rect x="439.148" y="161.477" fill="#173957" width="0.54" height="4.078"/>
				</g>
				<g>
					<rect x="440.767" y="161.477" fill="#173957" width="0.538" height="3.778"/>
				</g>
				<g>
					
						<rect x="439.936" y="163.927" transform="matrix(0.0011 1 -1 0.0011 606.3736 -278.6356)" fill="#173957" width="5.438" height="0.538"/>
				</g>
				<g>
					<polygon fill="#173957" points="444.004,165.555 443.999,161.632 444.539,161.706 444.543,165.555 					"/>
				</g>
				<g>
					<rect x="445.62" y="161.477" fill="#173957" width="0.538" height="4.078"/>
				</g>
				<g>
					
						<rect x="444.788" y="163.926" transform="matrix(0.0013 1 -1 0.0013 611.1405 -283.5175)" fill="#173957" width="5.438" height="0.539"/>
				</g>
				<g>
					<rect x="448.854" y="161.477" fill="#173957" width="0.54" height="4.078"/>
				</g>
				<g>
					<polygon fill="#173957" points="450.474,165.555 450.47,161.625 451.007,161.704 451.014,165.555 					"/>
				</g>
				<g>
					
						<rect x="449.641" y="163.926" transform="matrix(0.0013 1 -1 0.0013 615.9869 -288.3701)" fill="#173957" width="5.438" height="0.539"/>
				</g>
				<g>
					<polygon fill="#173957" points="453.708,165.555 453.705,161.625 454.243,161.702 454.249,165.555 					"/>
				</g>
				<g>
					<rect x="455.325" y="161.477" fill="#173957" width="0.538" height="3.77"/>
				</g>
				<g>
					<polygon fill="#173957" points="456.946,166.915 456.94,161.494 457.479,161.509 457.484,166.915 					"/>
				</g>
				<g>
					<polygon fill="#173957" points="458.562,165.242 458.557,161.477 459.097,161.477 459.101,165.246 					"/>
				</g>
				<g>
					<polygon fill="#173957" points="460.18,165.104 460.176,161.394 460.715,161.361 460.719,165.104 					"/>
				</g>
				<g>
					<polygon fill="#173957" points="461.799,166.858 461.793,161.477 462.331,161.477 462.338,166.864 					"/>
				</g>
				<g>
					
						<rect x="461.869" y="163.02" transform="matrix(0.0016 1 -1 0.0016 626.2234 -300.6558)" fill="#173957" width="3.627" height="0.541"/>
				</g>
				<g>
					<rect x="465.03" y="161.477" fill="#173957" width="0.539" height="3.627"/>
				</g>
				<g>
					<polygon fill="#173957" points="466.65,166.915 466.645,161.488 467.183,161.506 467.19,166.915 					"/>
				</g>
				<g>
					<rect x="468.264" y="161.477" fill="#173957" width="0.54" height="3.627"/>
				</g>
				<g>
					<rect x="469.882" y="161.477" fill="#173957" width="0.539" height="3.627"/>
				</g>
				<g>
					<polygon fill="#173957" points="471.504,166.915 471.498,161.484 472.036,161.502 472.044,166.915 					"/>
				</g>
				<g>
					<polygon fill="#173957" points="473.12,165.234 473.115,161.477 473.654,161.477 473.658,165.242 					"/>
				</g>
				<g>
					<polygon fill="#173957" points="474.737,165.104 474.732,161.386 475.271,161.357 475.276,165.104 					"/>
				</g>
				<g>
					<polygon fill="#173957" points="476.357,166.85 476.351,161.477 476.889,161.477 476.896,166.858 					"/>
				</g>
				<g>
					<polygon fill="#173957" points="477.973,165.104 477.968,161.383 478.507,161.355 478.512,165.104 					"/>
				</g>
				<g>
					<polygon fill="#173957" points="479.59,165.23 479.584,161.477 480.125,161.477 480.129,165.24 					"/>
				</g>
				<g>
					
						<rect x="478.756" y="163.926" transform="matrix(0.0011 1 -1 0.0011 645.1526 -317.4564)" fill="#173957" width="5.438" height="0.539"/>
				</g>
				<g>
					<polygon fill="#173957" points="482.826,165.229 482.819,161.477 483.36,161.477 483.364,165.24 					"/>
				</g>
				<g>
					<polygon fill="#173957" points="484.442,165.104 484.438,161.379 484.977,161.353 484.982,165.104 					"/>
				</g>
				<g>
					
						<rect x="483.608" y="163.927" transform="matrix(0.0011 1 -1 0.0011 649.9994 -322.3084)" fill="#173957" width="5.438" height="0.538"/>
				</g>
				<g>
					<rect x="487.675" y="161.477" fill="#173957" width="0.539" height="3.627"/>
				</g>
				<g>
					<polygon fill="#173957" points="489.294,165.225 489.291,161.477 489.829,161.477 489.834,165.238 					"/>
				</g>
			</g>
		</g>
	</g>
</g>
<g>
	
		<rect x="30.169" y="88.622" transform="matrix(-0.9861 0.1663 -0.1663 -0.9861 124.3967 230.1704)" fill-rule="evenodd" clip-rule="evenodd" fill="#FFFFFF" width="44.788" height="63.341"/>
	
		<rect x="37.645" y="95.746" transform="matrix(-0.9861 0.1663 -0.1663 -0.9861 112.3704 183.1992)" fill-rule="evenodd" clip-rule="evenodd" fill="#CCCCCC" width="21.744" height="1.115"/>
	
		<rect x="30.697" y="98.495" transform="matrix(-0.9861 0.1663 -0.1663 -0.9861 113.7515 188.5794)" fill-rule="evenodd" clip-rule="evenodd" fill="#CCCCCC" width="36.567" height="1.115"/>
	
		<rect x="31.02" y="100.418" transform="matrix(-0.9861 0.1663 -0.1663 -0.9861 114.7139 192.3462)" fill-rule="evenodd" clip-rule="evenodd" fill="#CCCCCC" width="36.568" height="1.115"/>
	
		<rect x="31.346" y="102.343" transform="matrix(-0.9861 0.1663 -0.1663 -0.9861 115.6812 196.1132)" fill-rule="evenodd" clip-rule="evenodd" fill="#CCCCCC" width="36.567" height="1.115"/>
	
		<rect x="31.67" y="104.267" transform="matrix(-0.9861 0.1663 -0.1663 -0.9861 116.6445 199.8822)" fill-rule="evenodd" clip-rule="evenodd" fill="#CCCCCC" width="36.568" height="1.115"/>
	
		<rect x="31.995" y="106.191" transform="matrix(-0.9861 0.1663 -0.1663 -0.9861 117.6098 203.6502)" fill-rule="evenodd" clip-rule="evenodd" fill="#CCCCCC" width="36.567" height="1.115"/>
	
		<rect x="32.319" y="108.115" transform="matrix(-0.9861 0.1663 -0.1663 -0.9861 118.573 207.4174)" fill-rule="evenodd" clip-rule="evenodd" fill="#CCCCCC" width="36.567" height="1.116"/>
	
		<rect x="32.644" y="110.04" transform="matrix(-0.9861 0.1663 -0.1663 -0.9861 119.5379 211.1847)" fill-rule="evenodd" clip-rule="evenodd" fill="#CCCCCC" width="36.567" height="1.115"/>
	
		<rect x="32.969" y="111.964" transform="matrix(-0.9861 0.1663 -0.1663 -0.9861 120.5028 214.953)" fill-rule="evenodd" clip-rule="evenodd" fill="#CCCCCC" width="36.567" height="1.115"/>
	
		<rect x="33.419" y="115.408" transform="matrix(-0.9861 0.1664 -0.1664 -0.9861 103.8264 223.2334)" fill-rule="evenodd" clip-rule="evenodd" fill="#CCCCCC" width="18.285" height="1.116"/>
	<g>
		<circle fill-rule="evenodd" clip-rule="evenodd" fill="#498EB2" cx="66.631" cy="122.285" r="4.743"/>
		<path fill-rule="evenodd" clip-rule="evenodd" fill="#9AC9E0" d="M64.716,126.623c-0.746-0.329-1.4-0.848-1.889-1.505l3.804-2.832
			L64.716,126.623z"/>
		<path fill-rule="evenodd" clip-rule="evenodd" fill="#86BBD5" d="M62.827,125.117c-0.436-0.585-0.743-1.277-0.872-2.043
			c-0.252-1.497,0.226-2.946,1.174-3.985l3.502,3.197L62.827,125.117z"/>
		<path fill-rule="evenodd" clip-rule="evenodd" fill="#72ACC7" d="M63.128,119.088c0.689-0.757,1.627-1.297,2.713-1.48l0.789,4.677
			L63.128,119.088z"/>
		<path fill-rule="evenodd" clip-rule="evenodd" fill="#5E9DBC" d="M65.842,117.608l0.789,4.677l2.781-3.842
			C68.417,117.724,67.147,117.389,65.842,117.608z"/>
	</g>
	<g>
		
			<rect x="36.066" y="131.234" transform="matrix(-0.9861 0.1663 -0.1663 -0.9861 115.1119 253.3861)" fill-rule="evenodd" clip-rule="evenodd" fill="#CCCCCC" width="21.759" height="0.559"/>
		
			<rect x="35.176" y="121.154" transform="matrix(-0.9861 0.1661 -0.1661 -0.9861 94.7958 246.0327)" fill-rule="evenodd" clip-rule="evenodd" fill="#498EB2" width="3.869" height="11.652"/>
		
			<rect x="39.952" y="124.774" transform="matrix(-0.986 0.1669 -0.1669 -0.986 104.6097 248.0202)" fill-rule="evenodd" clip-rule="evenodd" fill="#5E9DBC" width="3.869" height="7.261"/>
		
			<rect x="44.567" y="126.47" transform="matrix(-0.9861 0.1664 -0.1664 -0.9861 113.7975 248.2085)" fill-rule="evenodd" clip-rule="evenodd" fill="#72ACC7" width="3.867" height="4.802"/>
		
			<rect x="48.79" y="123.493" transform="matrix(-0.9861 0.1659 -0.1659 -0.9861 121.8187 243.8589)" fill-rule="evenodd" clip-rule="evenodd" fill="#86BBD5" width="3.867" height="7.049"/>
		
			<rect x="53.368" y="124.743" transform="matrix(-0.986 0.1669 -0.1669 -0.986 131.0674 243.5147)" fill-rule="evenodd" clip-rule="evenodd" fill="#9AC9E0" width="3.868" height="5.043"/>
		
			<rect x="63.207" y="128.327" transform="matrix(-0.9859 0.1675 -0.1675 -0.9859 149.0005 244.6469)" fill-rule="evenodd" clip-rule="evenodd" fill="#CCCCCC" width="1.953" height="0.559"/>
		
			<rect x="65.998" y="127.532" transform="matrix(-0.9861 0.1662 -0.1662 -0.9861 158.0821 242.3902)" fill-rule="evenodd" clip-rule="evenodd" fill="#CCCCCC" width="5.798" height="0.557"/>
	</g>
	
		<rect x="36.534" y="133.931" transform="matrix(-0.9861 0.1664 -0.1664 -0.9861 111.5986 259.6277)" fill-rule="evenodd" clip-rule="evenodd" fill="#CCCCCC" width="16.781" height="1.115"/>
	
		<rect x="36.858" y="135.855" transform="matrix(-0.9861 0.1664 -0.1664 -0.9861 112.562 263.3972)" fill-rule="evenodd" clip-rule="evenodd" fill="#CCCCCC" width="16.782" height="1.115"/>
	
		<rect x="37.182" y="137.779" transform="matrix(-0.9861 0.1662 -0.1662 -0.9861 113.5105 267.1723)" fill-rule="evenodd" clip-rule="evenodd" fill="#CCCCCC" width="16.782" height="1.115"/>
	
		<rect x="37.508" y="139.703" transform="matrix(-0.9861 0.1662 -0.1662 -0.9861 114.4661 270.9419)" fill-rule="evenodd" clip-rule="evenodd" fill="#CCCCCC" width="16.781" height="1.112"/>
	
		<rect x="37.831" y="141.628" transform="matrix(-0.9861 0.1663 -0.1663 -0.9861 115.444 274.706)" fill-rule="evenodd" clip-rule="evenodd" fill="#CCCCCC" width="16.782" height="1.115"/>
	
		<rect x="38.156" y="143.553" transform="matrix(-0.9861 0.1662 -0.1662 -0.9861 116.3964 278.4809)" fill-rule="evenodd" clip-rule="evenodd" fill="#CCCCCC" width="16.782" height="1.115"/>
	
		<rect x="38.48" y="145.475" transform="matrix(-0.9861 0.1662 -0.1662 -0.9861 117.361 282.2434)" fill-rule="evenodd" clip-rule="evenodd" fill="#CCCCCC" width="16.781" height="1.115"/>
	
		<rect x="38.863" y="148.098" transform="matrix(-0.986 0.1667 -0.1667 -0.986 110.2897 288.0577)" fill-rule="evenodd" clip-rule="evenodd" fill="#CCCCCC" width="8.391" height="1.117"/>
	
		<rect x="56.043" y="130.641" transform="matrix(-0.9861 0.1664 -0.1664 -0.9861 149.7966 249.8489)" fill-rule="evenodd" clip-rule="evenodd" fill="#CCCCCC" width="16.783" height="1.115"/>
	
		<rect x="56.367" y="132.565" transform="matrix(-0.9861 0.1664 -0.1664 -0.9861 150.7619 253.6169)" fill-rule="evenodd" clip-rule="evenodd" fill="#CCCCCC" width="16.782" height="1.115"/>
	
		<rect x="56.692" y="134.489" transform="matrix(-0.9861 0.1663 -0.1663 -0.9861 151.7126 257.3931)" fill-rule="evenodd" clip-rule="evenodd" fill="#CCCCCC" width="16.782" height="1.114"/>
	
		<rect x="57.017" y="136.413" transform="matrix(-0.9861 0.1663 -0.1663 -0.9861 152.6763 261.1591)" fill-rule="evenodd" clip-rule="evenodd" fill="#CCCCCC" width="16.782" height="1.113"/>
	
		<rect x="57.341" y="138.338" transform="matrix(-0.9861 0.1663 -0.1663 -0.9861 153.6415 264.9295)" fill-rule="evenodd" clip-rule="evenodd" fill="#CCCCCC" width="16.781" height="1.115"/>
	
		<rect x="57.665" y="140.262" transform="matrix(-0.9861 0.1664 -0.1664 -0.9861 154.6235 268.687)" fill-rule="evenodd" clip-rule="evenodd" fill="#CCCCCC" width="16.783" height="1.117"/>
	
		<rect x="57.99" y="142.186" transform="matrix(-0.9861 0.1664 -0.1664 -0.9861 155.5896 272.4505)" fill-rule="evenodd" clip-rule="evenodd" fill="#CCCCCC" width="16.782" height="1.115"/>
	
		<rect x="58.349" y="144.523" transform="matrix(-0.9861 0.1663 -0.1663 -0.9861 151.7473 277.4531)" fill-rule="evenodd" clip-rule="evenodd" fill="#CCCCCC" width="11.813" height="1.115"/>
</g>
<g>
	<path fill-rule="evenodd" clip-rule="evenodd" fill="#2E627D" d="M63.571,202.898l1.308,0.834l1.198-1.878l5.701,3.102
		c1.024,0.56,2.309,0.179,2.865-0.845l17.496-32.165c0.557-1.024,0.178-2.309-0.846-2.865l-14.845-8.075
		c-1.025-0.558-2.308-0.18-2.866,0.846l-17.496,32.165c-0.558,1.026-0.178,2.309,0.846,2.866l5.71,3.105l-1.051,1.646l1.386,0.885
		c-7.055,9.37-30.336,27.43-52.031,26.649c-13.096-0.476-23.31-7.61-30.564-21.316l-0.474,0.972
		c6.981,13.192,16.523,19.759,28.874,20.911c0.704,0.066,1.418,0.112,2.139,0.139C32.879,230.662,56.445,212.374,63.571,202.898z"/>
	<g>
		<g>
			<path fill="#FFFFFF" d="M91.028,167.646l-14.844-8.075c-1.026-0.559-2.308-0.18-2.866,0.846l-17.497,32.165
				c-0.558,1.024-0.177,2.31,0.847,2.864l5.71,3.105l-1.051,1.648l1.385,0.883c-7.053,9.371-30.336,27.43-52.031,26.651
				c-13.095-0.476-23.309-7.612-30.563-21.317l-0.475,0.971c6.982,13.192,16.523,19.761,28.873,20.912
				c0.704,0.066,1.418,0.111,2.14,0.139c21.958,0.787,45.523-17.499,52.649-26.975l1.309,0.834l1.198-1.877l5.7,3.102
				c1.026,0.559,2.309,0.177,2.867-0.846l17.495-32.166C92.432,169.485,92.053,168.203,91.028,167.646z M79.954,164.428
				c0.094-0.171,0.306-0.236,0.477-0.143l3.711,2.018c0.171,0.094,0.236,0.309,0.141,0.479c-0.092,0.172-0.306,0.234-0.476,0.141
				l-3.712-2.019C79.924,164.81,79.861,164.598,79.954,164.428z M67.011,197.064c-0.373,0.682-1.228,0.936-1.911,0.563
				c-0.682-0.371-0.935-1.227-0.565-1.908c0.373-0.684,1.229-0.938,1.911-0.565C67.128,195.525,67.382,196.381,67.011,197.064z
				 M75.16,198.291l-16.083-8.746l14.468-26.601l16.083,8.749L75.16,198.291z"/>
			
				<rect x="65.199" y="165.48" transform="matrix(-0.8785 -0.4777 0.4777 -0.8785 53.3828 374.8145)" fill="#393132" width="18.307" height="30.278"/>
			<circle fill="#E9E8E3" cx="65.773" cy="196.39" r="1.408"/>
			<path fill="#E9E8E3" d="M80.095,164.903l3.712,2.019c0.17,0.094,0.384,0.031,0.476-0.141c0.095-0.17,0.03-0.385-0.141-0.479
				l-3.711-2.018c-0.171-0.094-0.383-0.028-0.477,0.143C79.861,164.598,79.924,164.81,80.095,164.903z"/>
		</g>
	</g>
</g>
<g>
	
		<rect x="59.392" y="8.101" transform="matrix(0.4094 -0.9123 0.9123 0.4094 7.3671 107.5951)" opacity="0.25" fill-rule="evenodd" clip-rule="evenodd" fill="#2E627D" width="54.804" height="80.011"/>
	<g>
		<g>
			
				<rect x="45.389" y="17.026" transform="matrix(0.9123 0.4094 -0.4094 0.9123 25.6769 -31.0687)" fill="#173957" width="80.009" height="54.806"/>
			
				<rect x="50.481" y="11.698" transform="matrix(-0.9123 -0.4094 0.4094 -0.9123 115.8354 98.3638)" fill="#FFFFFF" width="35.933" height="50.168"/>
			<g opacity="0.5">
				
					<rect x="61.232" y="20.784" transform="matrix(0.9123 0.4094 -0.4094 0.9123 15.5691 -29.2066)" fill="#100F0E" width="29.518" height="1.942"/>
				
					<rect x="59.808" y="23.955" transform="matrix(0.9124 0.4094 -0.4094 0.9124 16.7402 -28.3433)" fill="#100F0E" width="29.519" height="1.943"/>
				
					<rect x="58.385" y="27.127" transform="matrix(0.9124 0.4094 -0.4094 0.9124 17.9141 -27.4826)" fill="#100F0E" width="29.519" height="1.942"/>
				
					<rect x="56.962" y="30.298" transform="matrix(0.9123 0.4095 -0.4095 0.9123 19.0926 -26.6272)" fill="#100F0E" width="29.52" height="1.942"/>
				
					<rect x="55.539" y="33.47" transform="matrix(0.9123 0.4094 -0.4094 0.9123 20.2632 -25.7632)" fill="#100F0E" width="29.519" height="1.941"/>
				
					<rect x="54.116" y="36.639" transform="matrix(0.9124 0.4094 -0.4094 0.9124 21.4344 -24.9012)" fill="#100F0E" width="29.519" height="1.943"/>
				
					<rect x="52.693" y="39.812" transform="matrix(0.9123 0.4094 -0.4094 0.9123 22.6113 -24.0425)" fill="#100F0E" width="29.518" height="1.941"/>
				
					<rect x="51.269" y="42.984" transform="matrix(0.9123 0.4094 -0.4094 0.9123 23.784 -23.181)" fill="#100F0E" width="29.519" height="1.941"/>
				
					<rect x="49.847" y="46.153" transform="matrix(0.9124 0.4094 -0.4094 0.9124 24.9551 -22.3196)" fill="#100F0E" width="29.519" height="1.943"/>
				
					<rect x="48.423" y="49.326" transform="matrix(0.9124 0.4094 -0.4094 0.9124 26.1279 -21.4583)" fill="#100F0E" width="29.52" height="1.941"/>
				
					<rect x="47" y="52.497" transform="matrix(0.9123 0.4095 -0.4095 0.9123 27.3138 -20.6036)" fill="#100F0E" width="29.521" height="1.942"/>
			</g>
			<path fill="#1D3362" d="M120.449,48.199l0.895,0.404c1.395,0.625,2.961,0.165,3.496-1.029l3.339-7.439
				c0.538-1.196-0.159-2.671-1.556-3.299l-0.894-0.399L120.449,48.199z"/>
			<path fill="#E42209" d="M116.686,56.588l0.895,0.401c1.397,0.625,2.959,0.165,3.497-1.031l3.338-7.438
				c0.537-1.194-0.159-2.671-1.556-3.296l-0.894-0.402L116.686,56.588z"/>
			<path fill="#FCCF46" d="M116.53,61.51l0.8,0.359c1.25,0.561,2.652,0.148,3.132-0.922l2.991-6.661
				c0.479-1.069-0.143-2.393-1.394-2.954l-0.8-0.358L116.53,61.51z"/>
			
				<rect x="83.794" y="26.648" transform="matrix(0.9123 0.4095 -0.4095 0.9123 30.1063 -37.1332)" fill="#FFFFFF" width="35.932" height="50.169"/>
			<g opacity="0.5">
				
					<rect x="94.236" y="35.596" transform="matrix(0.9124 0.4094 -0.4094 0.9124 24.5217 -41.4162)" fill="#100F0E" width="29.52" height="1.942"/>
				
					<rect x="92.812" y="38.768" transform="matrix(0.9123 0.4094 -0.4094 0.9123 25.6982 -40.5584)" fill="#100F0E" width="29.52" height="1.941"/>
				
					<rect x="91.389" y="41.939" transform="matrix(0.9123 0.4094 -0.4094 0.9123 26.8719 -39.6978)" fill="#100F0E" width="29.52" height="1.941"/>
				
					<rect x="89.966" y="45.111" transform="matrix(0.9123 0.4095 -0.4095 0.9123 28.0521 -38.8429)" fill="#100F0E" width="29.52" height="1.941"/>
				
					<rect x="88.544" y="48.282" transform="matrix(0.9123 0.4095 -0.4095 0.9123 29.2243 -37.9809)" fill="#100F0E" width="29.519" height="1.942"/>
				
					<rect x="87.119" y="51.453" transform="matrix(0.9123 0.4095 -0.4095 0.9123 30.3995 -37.1209)" fill="#100F0E" width="29.52" height="1.942"/>
				
					<rect x="85.697" y="54.624" transform="matrix(0.9123 0.4094 -0.4094 0.9123 31.5674 -36.2563)" fill="#100F0E" width="29.519" height="1.941"/>
				
					<rect x="84.274" y="57.794" transform="matrix(0.9124 0.4094 -0.4094 0.9124 32.7369 -35.393)" fill="#100F0E" width="29.52" height="1.941"/>
				
					<rect x="82.851" y="60.966" transform="matrix(0.9123 0.4094 -0.4094 0.9123 33.9141 -34.5345)" fill="#100F0E" width="29.517" height="1.941"/>
				
					<rect x="81.427" y="64.136" transform="matrix(0.9124 0.4094 -0.4094 0.9124 35.0855 -33.6729)" fill="#100F0E" width="29.521" height="1.942"/>
				
					<rect x="80.004" y="67.309" transform="matrix(0.9123 0.4095 -0.4095 0.9123 36.2696 -32.8177)" fill="#100F0E" width="29.519" height="1.941"/>
			</g>
			<g>
				<g>
					<circle fill="#604C3A" cx="91.698" cy="25.08" r="0.933"/>
				</g>
				<g>
					<circle fill="#604C3A" cx="95.047" cy="26.583" r="0.932"/>
				</g>
				<path fill="#D3D2CB" d="M94.953,26.524c-0.086,0.188-0.308,0.271-0.496,0.188l-2.52-1.13c-0.188-0.085-0.27-0.307-0.187-0.494
					l0,0c0.084-0.189,0.304-0.272,0.493-0.188l2.52,1.129C94.953,26.114,95.037,26.336,94.953,26.524L94.953,26.524z"/>
			</g>
			<g>
				<g>
					<circle fill="#604C3A" cx="90.29" cy="28.215" r="0.932"/>
				</g>
				<g>
					<path fill="#604C3A" d="M94.021,28.87c-0.469-0.214-1.021-0.002-1.231,0.466c-0.21,0.47,0,1.022,0.469,1.232
						c0.468,0.21,1.02,0.002,1.23-0.468C94.7,29.631,94.49,29.078,94.021,28.87z"/>
				</g>
				<path fill="#D3D2CB" d="M93.545,29.661c-0.083,0.188-0.307,0.272-0.494,0.188l-2.52-1.13c-0.188-0.087-0.271-0.307-0.188-0.494
					l0,0c0.085-0.189,0.306-0.272,0.496-0.188l2.518,1.128C93.544,29.249,93.63,29.472,93.545,29.661L93.545,29.661z"/>
			</g>
			<g>
				<g>
					<circle fill="#604C3A" cx="88.883" cy="31.351" r="0.931"/>
				</g>
				<g>
					<circle fill="#604C3A" cx="92.233" cy="32.854" r="0.933"/>
				</g>
				<path fill="#D3D2CB" d="M92.138,32.796c-0.084,0.188-0.307,0.272-0.495,0.189l-2.518-1.13c-0.188-0.087-0.273-0.307-0.188-0.496
					l0,0c0.085-0.188,0.305-0.274,0.495-0.189l2.518,1.132C92.138,32.386,92.222,32.608,92.138,32.796L92.138,32.796z"/>
			</g>
			<g>
				<g>
					<circle fill="#604C3A" cx="87.476" cy="34.487" r="0.933"/>
				</g>
				<g>
					<circle fill="#604C3A" cx="90.825" cy="35.991" r="0.933"/>
				</g>
				<path fill="#D3D2CB" d="M90.731,35.933c-0.085,0.188-0.307,0.271-0.496,0.188l-2.519-1.132
					c-0.189-0.085-0.272-0.305-0.188-0.492l0,0c0.084-0.191,0.306-0.272,0.495-0.188l2.519,1.13
					C90.729,35.523,90.814,35.743,90.731,35.933L90.731,35.933z"/>
			</g>
			<g>
				<g>
					<path fill="#604C3A" d="M86.45,36.771c0.47,0.212,0.679,0.765,0.468,1.23c-0.211,0.473-0.762,0.683-1.232,0.471
						c-0.468-0.21-0.678-0.761-0.466-1.23C85.429,36.773,85.98,36.564,86.45,36.771z"/>
				</g>
				<g>
					<circle fill="#604C3A" cx="89.418" cy="39.127" r="0.932"/>
				</g>
				<path fill="#D3D2CB" d="M89.323,39.069c-0.085,0.188-0.307,0.272-0.494,0.188l-2.52-1.13c-0.189-0.086-0.271-0.309-0.188-0.494
					l0,0c0.085-0.191,0.305-0.274,0.495-0.189l2.519,1.13C89.323,38.658,89.407,38.88,89.323,39.069L89.323,39.069z"/>
			</g>
			<g>
				<g>
					<circle fill="#604C3A" cx="84.661" cy="40.759" r="0.932"/>
				</g>
				<g>
					<path fill="#604C3A" d="M88.392,41.411c-0.469-0.207-1.021,0-1.231,0.471c-0.21,0.47-0.001,1.021,0.469,1.232
						c0.468,0.21,1.02,0,1.231-0.47C89.071,42.174,88.86,41.623,88.392,41.411z"/>
				</g>
				<path fill="#D3D2CB" d="M87.916,42.204c-0.083,0.188-0.307,0.272-0.494,0.188l-2.52-1.129c-0.188-0.085-0.273-0.307-0.188-0.495
					l0,0c0.084-0.189,0.306-0.271,0.495-0.189l2.519,1.132C87.915,41.795,88,42.017,87.916,42.204L87.916,42.204z"/>
			</g>
			<g>
				<g>
					<circle fill="#604C3A" cx="83.253" cy="43.896" r="0.932"/>
				</g>
				<g>
					<circle fill="#604C3A" cx="86.603" cy="45.399" r="0.932"/>
				</g>
				<path fill="#D3D2CB" d="M86.509,45.341c-0.086,0.188-0.307,0.271-0.496,0.186l-2.519-1.129
					c-0.188-0.085-0.273-0.305-0.188-0.492l0,0c0.086-0.19,0.306-0.274,0.495-0.188l2.519,1.128
					C86.508,44.93,86.593,45.151,86.509,45.341L86.509,45.341z"/>
			</g>
			<g>
				<g>
					<circle fill="#604C3A" cx="81.845" cy="47.031" r="0.932"/>
				</g>
				<g>
					<circle fill="#604C3A" cx="85.196" cy="48.535" r="0.933"/>
				</g>
				<path fill="#D3D2CB" d="M85.101,48.476c-0.083,0.188-0.307,0.274-0.494,0.188l-2.52-1.13c-0.189-0.085-0.271-0.307-0.187-0.494
					l0,0c0.083-0.189,0.304-0.274,0.493-0.189l2.52,1.131C85.102,48.066,85.186,48.286,85.101,48.476L85.101,48.476z"/>
			</g>
			<g>
				<g>
					<circle fill="#604C3A" cx="80.438" cy="50.167" r="0.932"/>
				</g>
				<g>
					<circle fill="#604C3A" cx="83.789" cy="51.67" r="0.932"/>
				</g>
				<path fill="#D3D2CB" d="M83.694,51.613c-0.085,0.188-0.308,0.27-0.495,0.188l-2.519-1.132c-0.188-0.085-0.273-0.307-0.188-0.494
					l0,0c0.084-0.188,0.306-0.272,0.494-0.188l2.519,1.132C83.693,51.201,83.779,51.423,83.694,51.613L83.694,51.613z"/>
			</g>
			<g>
				<g>
					<circle fill="#604C3A" cx="79.031" cy="53.302" r="0.932"/>
				</g>
				<g>
					<circle fill="#604C3A" cx="82.381" cy="54.806" r="0.931"/>
				</g>
				<path fill="#D3D2CB" d="M82.286,54.748c-0.085,0.188-0.306,0.272-0.493,0.188l-2.52-1.13c-0.188-0.085-0.273-0.307-0.188-0.494
					l0,0c0.084-0.189,0.305-0.274,0.494-0.188l2.518,1.13C82.287,54.338,82.37,54.561,82.286,54.748L82.286,54.748z"/>
			</g>
			<g>
				<g>
					<circle fill="#604C3A" cx="77.624" cy="56.439" r="0.932"/>
				</g>
				<g>
					<circle fill="#604C3A" cx="80.974" cy="57.942" r="0.932"/>
				</g>
				<path fill="#D3D2CB" d="M80.879,57.885c-0.084,0.188-0.307,0.271-0.495,0.186l-2.519-1.13c-0.188-0.085-0.272-0.305-0.188-0.494
					l0,0c0.083-0.188,0.304-0.272,0.494-0.188l2.518,1.132C80.878,57.476,80.963,57.695,80.879,57.885L80.879,57.885z"/>
			</g>
			<g>
				<g>
					<circle fill="#604C3A" cx="76.217" cy="59.575" r="0.932"/>
				</g>
				<g>
					<circle fill="#604C3A" cx="79.567" cy="61.079" r="0.932"/>
				</g>
				<path fill="#D3D2CB" d="M79.472,61.02c-0.085,0.189-0.308,0.272-0.494,0.189l-2.52-1.132c-0.188-0.084-0.273-0.307-0.188-0.494
					l0,0c0.083-0.189,0.305-0.272,0.495-0.189l2.519,1.132C79.471,60.61,79.556,60.832,79.472,61.02L79.472,61.02z"/>
			</g>
			<g>
				<g>
					<circle fill="#604C3A" cx="74.809" cy="62.711" r="0.932"/>
				</g>
				<g>
					<circle fill="#604C3A" cx="78.159" cy="64.215" r="0.933"/>
				</g>
				<path fill="#D3D2CB" d="M78.064,64.156c-0.085,0.188-0.306,0.272-0.496,0.188l-2.519-1.132
					c-0.188-0.082-0.273-0.305-0.188-0.494l0,0c0.085-0.188,0.305-0.271,0.493-0.188l2.52,1.132
					C78.063,63.745,78.148,63.967,78.064,64.156L78.064,64.156z"/>
			</g>
		</g>
	</g>
</g>
</svg>
