<svg version="1.1" id="Layer_1" x="0px" y="0px"
	 width="464px" height="600px" viewBox="0 0 464 600" enable-background="new 0 0 464 600" xml:space="preserve">
<image display="none" overflow="visible" opacity="0.34" enable-background="new    " width="1240" height="1300" xlink:href="6435C201.jpeg"  transform="matrix(0.36 0 0 0.36 8.8003 35.5586)">
</image>
<g>
	<g>
		<g>
			<path fill="none" stroke="#000000" stroke-miterlimit="10" d="M161.903,155.327c-6.568,11.075-8.404,24.238-8.915,36.905
				c-0.65,16.117-0.821,32.323-1.149,48.454c-0.67,32.917,1.035,66.007,1.666,98.925c0.606,31.576,1.145,63.146,3.54,94.65
				c0.798,10.503,1.104,21.064,2.203,31.541c0.981,9.355,2.643,19.608,8.378,27.35c0.783,1.057,1.733,1.963,2.717,2.825
				c0.607,0.533,2.427-0.25,1.776-0.819c-7.231-6.35-9.158-16.921-10.462-25.991c-1.423-9.896-1.393-19.908-2.234-29.854
				c-2.756-32.569-3.297-65.242-3.931-97.906c-0.627-32.273-2.07-64.652-1.765-96.929c0.155-16.409,1.046-32.797,1.137-49.209
				c0.075-13.499,1.877-27.986,8.871-39.777C164.262,154.602,162.298,154.66,161.903,155.327L161.903,155.327z"/>
		</g>
	</g>
	<g>
		<g>
			<path fill="none" stroke="#000000" stroke-miterlimit="10" d="M162.315,157.053c5.624-8.016,17.251-8.288,26.109-8.545
				c9.959-0.29,19.899-0.794,29.858-1.09c14.033-0.417,28.108,0.239,42.034,2.007c7.576,0.962,24.688,1.492,28.24,9.923
				c0.326,0.773,2.235,0.202,1.932-0.518c-3.264-7.745-15.237-8.395-22.346-9.605c-15.763-2.686-31.84-3.382-47.803-3.098
				c-12.166,0.217-24.515,0.629-36.666,1.35c-8.362,0.496-18.041,2.113-23.182,9.442
				C159.929,157.723,161.896,157.651,162.315,157.053L162.315,157.053z"/>
		</g>
	</g>
	<g>
		<g>
			<path fill="none" stroke="#000000" stroke-miterlimit="10" d="M286.98,157.245c8.371,25.535,11.306,52.368,12.776,79.085
				c1.617,29.367,1.824,58.87,1.456,88.273c-0.357,28.58-2.063,57.105-3.557,85.643c-0.737,14.078-1.555,28.151-2.627,42.207
				c-0.524,6.874-1.141,13.74-1.83,20.6c-0.371,3.688-0.786,7.37-1.221,11.051c-0.414,3.525-4.256,6.384-6.629,8.712
				c-0.836,0.82,1.058,0.941,1.578,0.43c3.492-3.427,6.618-6.152,7.211-11.173c0.871-7.413,1.579-14.846,2.221-22.28
				c1.264-14.622,2.133-29.276,2.93-43.93c1.623-29.817,3.378-59.64,3.84-89.503c0.447-28.947,0.117-57.959-1.253-86.878
				c-1.323-27.919-4.219-56.075-12.965-82.752C288.659,155.955,286.734,156.496,286.98,157.245L286.98,157.245z"/>
		</g>
	</g>
	<g>
		<g>
			<path fill="none" stroke="#000000" stroke-miterlimit="10" d="M170.092,494.916c-0.074,0.796-0.551,0.332,0.892,1.043
				c0.919,0.453,1.813,0.969,2.713,1.459c2.299,1.253,4.474,2.063,6.955,2.861c7.202,2.316,14.712,3.563,22.222,4.326
				c15.699,1.593,31.91,1.549,47.587-0.213c6.24-0.7,46.574-6.254,37.857-19.712c-0.336-0.52-2.215,0.101-1.797,0.744
				c5.474,8.451-11.254,12.69-16.641,14.214c-12.808,3.622-26.125,4.761-39.391,4.913c-15.633,0.183-31.554-0.496-46.68-4.704
				c-4.643-1.291-8.366-3.587-12.725-5.474c-0.869-0.376-2.801-0.514-2.922,0.795C168.093,495.924,170.034,495.542,170.092,494.916
				L170.092,494.916z"/>
		</g>
	</g>
	<g>
		<g>
			<path fill="none" stroke="#000000" stroke-miterlimit="10" d="M186.254,178.031c13.494,8.153,24.98,19.258,37.23,29.087
				c4.112,3.299,8.546,6.178,12.866,9.194c2.108,1.472,4.926,4.351,7.465,5.008c0.478,0.124,2.035-0.285,1.451-1.042
				c-0.022-0.03-0.047-0.061-0.07-0.091c-0.51-0.662-2.355,0.076-1.772,0.833c0.022,0.03,0.048,0.061,0.07,0.091
				c0.483-0.348,0.967-0.695,1.45-1.043c-2.646-0.685-5.772-3.912-7.985-5.457c-4.501-3.143-9.026-6.206-13.313-9.646
				c-11.817-9.481-22.872-20.146-35.893-28.014C187.063,176.534,185.345,177.481,186.254,178.031L186.254,178.031z"/>
		</g>
	</g>
	<g>
		<g>
			<path fill="none" stroke="#000000" stroke-miterlimit="10" d="M253.662,221.226c-0.391,0.272-0.872,0.546-0.795,1.086
				c0.068,0.482,0.813,0.462,1.14,0.387c5.886-1.346,11.737-5.899,17.316-8.334c4.962-2.166,9.975-4.217,14.86-6.55
				c1.649-0.787,5.342-2.053,5.895-4.115c0.242-0.908-1.732-0.672-1.955,0.155c-0.497,1.856-6.965,3.879-8.521,4.58
				c-4.261,1.922-8.588,3.697-12.863,5.584c-4.889,2.157-9.911,6.206-15.078,7.388c0.38,0.129,0.76,0.258,1.139,0.387
				c-0.314,0.567-0.27,0.662,0.137,0.286C256.012,221.328,254.424,220.693,253.662,221.226L253.662,221.226z"/>
		</g>
	</g>
	<g>
		<g>
			<path fill="none" stroke="#000000" stroke-miterlimit="10" d="M256.498,220.552c-2.721,1.469,0.654,3.904,2.039,4.967
				c3.347,2.573,7.665,5.13,12.029,4.957c12.277-0.487,22.054-12.106,19.396-24.329c-0.195-0.905-2.131-0.4-1.932,0.518
				c2.021,9.297-3.549,18.431-12.411,21.618c-4.017,1.444-7.691,0.746-11.281-1.154c-0.571-0.303-7.508-5.142-6.981-5.425
				C258.516,221.079,257.471,220.027,256.498,220.552L256.498,220.552z"/>
		</g>
	</g>
	<g>
		<g>
			<path fill="none" stroke="#000000" stroke-miterlimit="10" d="M266.802,214.899c-3.28,2.285-1.265,5.568,1.341,7.435
				c2.487,1.781,5.818,1.091,8.26-0.382c4.697-2.832,7.586-10.211,0.535-11.994c-0.836-0.212-2.287,1.013-1.112,1.31
				c4.587,1.16,4.058,5.192,1.366,8.147c-1.316,1.446-3.162,2.451-5.123,2.554c-2.648,0.14-7.135-3.984-3.982-6.179
				C269.162,215.041,267.584,214.354,266.802,214.899L266.802,214.899z"/>
		</g>
	</g>
	<g>
		<g>
			<path fill="none" stroke="#000000" stroke-miterlimit="10" d="M196.512,184.253c-4.248-1.75-5.384,1.491-7.295,4.864
				c-2.818,4.973-4.473,10.632-5.243,16.268c-1.32,9.655,1.635,20.283,11.348,24.033c12.598,4.864,40.437-1.167,39.973-18.374
				c-0.025-0.937-1.968-0.574-1.947,0.188c0.42,15.525-22.565,20.212-34.237,17.762c-8.621-1.81-12.647-9.128-13.392-17.431
				c-0.427-4.76,0.55-9.635,1.892-14.175c0.57-1.928,4.198-13.406,7.759-11.939C196.091,185.747,197.622,184.71,196.512,184.253
				L196.512,184.253z"/>
		</g>
	</g>
	<g>
		<g>
			<path fill="none" stroke="#000000" stroke-miterlimit="10" d="M209.193,192.117c-14.564,0.775-15.181,20.422-2.147,24.633
				c5.872,1.897,23.984-2.746,18.176-11.796c-0.409-0.637-2.272,0.038-1.781,0.804c4.809,7.493-9.669,10.869-14.345,10.04
				c-11.663-2.069-13.746-21.714-0.12-22.439C210.002,193.303,210.521,192.046,209.193,192.117L209.193,192.117z"/>
		</g>
	</g>
	<g>
		<g>
			<path fill="none" stroke="#000000" stroke-miterlimit="10" d="M210.05,283.958c-3.14-19.681,12.951-33.489,31.714-33.793
				c8.4-0.136,16.852,2.758,22.754,8.846c5.907,6.095,9.441,18.179,6.672,26.436c0.644-0.126,1.287-0.252,1.932-0.378
				c-0.088-0.569-0.257-1.114-0.507-1.636c-0.257-0.688-2.169-0.119-1.933,0.518c0.25,0.522,0.42,1.067,0.508,1.636
				c0.154,0.732,1.766,0.118,1.933-0.378c1.584-4.72,0.521-11.579-0.763-16.236c-1.235-4.484-3.76-8.521-7.076-11.751
				c-6.35-6.184-15.867-8.583-24.523-8.114c-19.13,1.038-35.888,15.019-32.641,35.368
				C208.225,285.144,210.166,284.684,210.05,283.958L210.05,283.958z"/>
		</g>
	</g>
	<g>
		<g>
			<path fill="none" stroke="#000000" stroke-miterlimit="10" d="M236.813,358.323c2.32,0.754,5.461-0.335,7.729-0.896
				c3.463-0.856,6.854-2.063,10.129-3.469c6.031-2.589,13.611-6.067,17.603-11.545c0.523-0.72-0.549-1.341-1.135-0.875
				c-2.546,2.021-4.889,4.126-7.658,5.869c-2.879,1.813-5.931,3.341-9.043,4.709c-3.15,1.385-6.424,2.508-9.736,3.43
				c-2.545,0.708-5.643,0.697-8.014,1.827C236.254,357.58,236.418,358.195,236.813,358.323L236.813,358.323z"/>
		</g>
	</g>
	<g>
		<g>
			<path fill="none" stroke="#000000" stroke-miterlimit="10" d="M236.695,356.861c-2.84,2.188-1.953,7.459-1.543,10.486
				c0.334,2.471,0.949,4.926,1.832,7.256c0.422,1.112,1.045,3.064,2.429,3.271c0.459,0.067,0.892-0.265,0.765-0.765
				c-0.268-1.053-1.031-1.979-1.443-2.987c-0.728-1.78-1.184-3.677-1.567-5.556c-0.662-3.225-1.585-7.979,0.22-11.017
				C237.625,357.146,237.111,356.54,236.695,356.861L236.695,356.861z"/>
		</g>
	</g>
	<g>
		<g>
			<path fill="none" stroke="#000000" stroke-miterlimit="10" d="M238.729,377.188c-0.865,2.801,5.59,1.623,6.676,1.451
				c4.462-0.711,9.117-1.988,13.129-4.099c10.347-5.438,21.805-15.467,23.805-27.565c0.057-0.34-0.038-0.623-0.333-0.817
				c-3.362-2.22-7.198-3.767-11.19-4.363c-1.018-0.151-1.471,1.39-0.432,1.565c3.881,0.664,7.54,1.959,10.891,4.05
				c-0.111-0.272-0.223-0.546-0.334-0.818c-1.604,10.997-11.947,19.763-20.93,25.154c-3.517,2.11-7.205,3.353-11.158,4.366
				c-2.033,0.521-4.107,0.969-6.195,1.186c-0.947,0.1-2.6,0.295-3.432-0.311C239.04,376.854,238.788,376.995,238.729,377.188
				L238.729,377.188z"/>
		</g>
	</g>
	<g>
		<g>
			<path fill="none" stroke="#000000" stroke-miterlimit="10" d="M173.133,347.309c0.248,5.821,3.303,11.401,6.488,16.135
				c2.392,3.556,6.225,8.854,10.99,9.129c4.565,0.263,7.809-3.913,10.224-7.225c2.21-3.031,5.07-6.734,3.27-10.594
				c-1.553-3.328-5.335-5.714-8.264-7.736c-3.225-2.228-6.707-4.225-10.483-5.338c-3.198-0.945-6.54-0.785-9.21,1.338
				c-1.585,1.262-2.463,3.256-3.093,5.119c-0.587,1.739-0.329,2.54,0.932,3.777c0.489,0.48,1.137-0.123,0.89-0.688
				c-1.263-2.875,1.209-6.527,3.831-7.848c2.659-1.338,6.107-0.227,8.67,0.785c2.856,1.127,5.501,2.818,8.042,4.521
				c2.612,1.75,5.499,3.741,7.257,6.396c1.943,2.933-0.966,6.476-2.632,8.79c-2.247,3.12-5.792,7.798-10.204,6.736
				c-4.481-1.078-7.771-6.594-10.045-10.185c-2.589-4.088-4.431-8.532-5.232-13.312
				C174.423,346.301,173.098,346.499,173.133,347.309L173.133,347.309z"/>
		</g>
	</g>
	<g>
		<g>
			<path fill="none" stroke="#000000" stroke-miterlimit="10" d="M197.198,339.643c19.53-7.318,41.842-6.672,60.883,2.082
				c0.976,0.448,1.83-0.99,0.849-1.451c-9.756-4.558-20.459-6.779-31.181-7.277c-10.278-0.479-21.796,0.625-31.146,5.232
				C195.82,338.613,196.375,339.949,197.198,339.643L197.198,339.643z"/>
		</g>
	</g>
	<g>
		<g>
			<path fill="none" stroke="#000000" stroke-miterlimit="10" d="M195.849,339.064c1.76,5.687,7.034,10.258,12.09,13.004
				c5.595,3.039,12.077,4.219,18.39,4.268c12.835,0.102,26.519-5.045,34.431-15.467c0.614-0.811-0.748-1.581-1.355-0.793
				c-7.514,9.765-20.521,14.309-32.509,14.503c-6.05,0.098-12.168-1.085-17.609-3.767c-2.608-1.287-4.975-2.998-7.051-5.028
				c-2.191-2.144-3.572-4.673-5.214-7.212C196.636,337.979,195.626,338.348,195.849,339.064L195.849,339.064z"/>
		</g>
	</g>
	<g>
		<g>
			<path fill="none" stroke="#000000" stroke-miterlimit="10" d="M289.346,387.79c0.223-3.795-4.566-6.155-7.617-6.89
				c-4.219-1.014-9.115-0.373-13.052,1.381c-3.63,1.615-12.327,7.246-9.892,12.468c1.926,4.124,8.576,4.212,12.361,3.983
				c5.533-0.333,11.851-2.082,15.658-6.354c1.782-2.002,2.762-4.729,2.33-7.399c-0.128-0.787-1.339-0.566-1.351,0.184
				c-0.166,10.871-16.661,14.084-24.938,11.02c-6.059-2.242-0.484-7.699,2.471-9.979c3.662-2.826,8.271-4.062,12.858-4.019
				c2.191,0.021,4.388,0.506,6.349,1.486c2.039,1.021,2.805,2.764,4.229,4.367C288.967,388.277,289.329,388.07,289.346,387.79
				L289.346,387.79z"/>
		</g>
	</g>
	<g>
		<g>
			<path fill="none" stroke="#000000" stroke-miterlimit="10" d="M255.634,422.13c1.207-2.328,1.927-4.467,3.722-6.511
				c2.23-2.54,5.011-4.586,7.927-6.271c5.008-2.895,13.72-5.584,16.093,1.836c1.982,6.199-6.98,10.469-11.359,12.302
				c-3.914,1.639-15.188,3.517-16.055-3.102c-0.104-0.783-1.115-0.783-1.219,0c-0.355,2.725,2.914,4.691,5.109,5.366
				c3.381,1.04,7.24,0.376,10.573-0.514c5.677-1.516,14.606-5.487,14.808-12.456c0.086-2.969-1.955-6.022-4.578-7.271
				c-2.969-1.412-6.563-0.704-9.525,0.313c-6.298,2.162-14.029,7.442-16.154,14.096c-0.258,0.806-0.24,1.449,0.094,2.21
				C255.166,422.354,255.527,422.333,255.634,422.13L255.634,422.13z"/>
		</g>
	</g>
	<g>
		<g>
			<path fill="none" stroke="#000000" stroke-miterlimit="10" d="M285.268,438.131c-1.535-4.902-7.207-7.765-12.041-7.948
				c-3.218-0.122-6.97,2.113-9.703,3.543c-4.131,2.161-15.062,8.015-10.26,13.983c3.769,4.685,13.092,2.37,17.787,0.948
				c4.501-1.362,13.311-4.571,13.844-10.275c0.088-0.935-0.107-1.75-0.632-2.528c-0.366-0.546-1.331-0.217-1.106,0.468
				c1.611,4.901-5.52,8.144-9.023,9.61c-5.143,2.152-11.933,3.997-17.438,2.241c-2.139-0.683-3.957-2.747-2.809-5.013
				c1.596-3.146,5.467-5.33,8.375-7.058c2.943-1.745,6.113-3.318,9.424-4.229c5.182-1.422,10.059,2.607,12.683,6.635
				C284.662,438.964,285.439,438.684,285.268,438.131L285.268,438.131z"/>
		</g>
	</g>
	<g>
		<g>
			<path fill="none" stroke="#000000" stroke-miterlimit="10" d="M284.682,464.664c0.518-3.054-2.021-5.876-4.522-7.229
				c-3.087-1.669-6.89-1.682-10.271-1.217c-6.572,0.903-15.07,4.883-16.293,12.146c-1.063,6.312,5.778,7.95,10.65,7.766
				c6.566-0.249,14.262-2.87,18.578-8.04c1.08-1.294,1.984-2.88,2.044-4.592c0.024-0.719-0.956-0.765-1.183-0.16
				c-2.187,5.874-7.836,8.774-13.623,10.352c-3.942,1.072-13.168,2.606-14.881-2.788c-0.887-2.793,1.047-5.84,2.937-7.7
				c2.503-2.467,5.934-3.966,9.272-4.895c3.312-0.921,6.938-1.188,10.279-0.29c1.584,0.427,2.997,1.259,4.121,2.447
				c1.154,1.223,1.396,2.847,2.104,4.303C284.052,465.088,284.619,465.025,284.682,464.664L284.682,464.664z"/>
		</g>
	</g>
	<g>
		<g>
			<path fill="none" stroke="#000000" stroke-miterlimit="10" d="M243.621,390.943c0.011-1.873-2.848-2.588-4.225-3.025
				c-3.455-1.098-7.135-1.589-10.738-1.87c-5.021-0.394-15.313-1.017-17.911,4.728c-3.405,7.528,7.964,12.378,13.211,13.809
				c3.425,0.935,7.264,1.523,10.79,0.854c4.333-0.822,9.085-5.178,9.311-9.766c0.107-2.194-0.582-3.993-1.926-5.707
				c-0.447-0.571-1.427,0.187-1.006,0.776c3.984,5.603-0.845,11.411-6.49,13.119c-2.83,0.855-6.428,0.057-9.212-0.567
				c-3.526-0.789-6.995-2.131-9.938-4.251c-2.35-1.693-4.722-5.025-3.136-7.98c1.158-2.158,4.335-2.795,6.509-3.188
				c3.21-0.58,6.557-0.511,9.798-0.291c3.119,0.211,6.234,0.68,9.263,1.459c1.485,0.382,4.017,0.92,5.079,2.159
				C243.214,391.45,243.619,391.242,243.621,390.943L243.621,390.943z"/>
		</g>
	</g>
	<g>
		<g>
			<path fill="none" stroke="#000000" stroke-miterlimit="10" d="M244.198,417.231c-0.189-2.392-3.166-3.415-5.108-4.022
				c-3.703-1.159-7.751-1.379-11.604-1.334c-4.795,0.056-15.685,0.44-17.121,6.565c-3.133,13.361,16.819,14.051,25.021,11.818
				c3.265-0.888,6.765-2.531,8.677-5.439c1.879-2.855,0.93-6.799-1.408-9.086c-0.521-0.512-1.334,0.137-0.993,0.767
				c1.237,2.287,2.644,4.507,1.331,7.105c-1.147,2.271-3.754,3.599-6.023,4.457c-5.704,2.161-12.717,2.338-18.5,0.428
				c-2.518-0.832-4.906-2.323-6.16-4.728c-1.293-2.478-0.907-5.825,1.458-7.425c3.119-2.107,7.486-2.564,11.13-2.839
				c4.183-0.313,8.498-0.124,12.593,0.812c2.162,0.493,4.535,1.302,5.938,3.13C243.646,417.729,244.234,417.69,244.198,417.231
				L244.198,417.231z"/>
		</g>
	</g>
	<g>
		<g>
			<path fill="none" stroke="#000000" stroke-miterlimit="10" d="M242.676,442.993c0.078,4.014-0.341,7.355-3.742,9.954
				c-3.177,2.427-7.484,3.021-11.362,2.685c-4.301-0.374-8.306-2.334-11.488-5.194c-1.585-1.427-3.589-3.734-2.445-5.987
				c2.155-4.244,10.157-4.666,14.155-4.791c5.397-0.168,10.728,0.659,15.118,3.929c0.568,0.424,1.283-0.385,0.939-0.939
				c-1.389-2.257-4.479-3.192-6.904-3.798c-3.398-0.848-6.992-1-10.478-0.81c-4.644,0.254-12.77,1.218-14.616,6.44
				c-0.851,2.405,0.872,4.82,2.444,6.454c3.154,3.276,7.483,5.246,11.92,5.995c7.578,1.278,17.324-1.81,18.087-10.6
				c0.104-1.205-0.074-2.362-0.484-3.492C243.604,442.245,242.662,442.303,242.676,442.993L242.676,442.993z"/>
		</g>
	</g>
	<g>
		<g>
			<path fill="none" stroke="#000000" stroke-miterlimit="10" d="M243.96,465.49c-6.731-1.672-13.983-2.781-20.919-2.828
				c-5.336-0.037-12.728,1.274-11.411,8.229c2.461,12.999,26.802,13.604,31.755,2.289c1.02-2.324,0.941-5.088-0.076-7.391
				c-0.324-0.733-1.355-0.182-1.222,0.515c0.63,3.238,0.624,6.04-1.735,8.591c-2.194,2.372-5.539,3.48-8.627,4.052
				c-6.041,1.114-14.417-0.13-17.653-6.021c-1.338-2.435-1.619-5.563,0.991-7.162c2.657-1.627,6.396-1.5,9.385-1.416
				c6.533,0.183,12.858,2.13,19.337,2.44C244.533,466.823,244.678,465.669,243.96,465.49L243.96,465.49z"/>
		</g>
	</g>
	<g>
		<g>
			<path fill="none" stroke="#000000" stroke-miterlimit="10" d="M197.174,395.257c1.505-2.106-1.191-5.223-2.546-6.716
				c-2.543-2.805-6.06-4.959-9.533-6.391c-6.128-2.523-15.503-3.227-17.837,4.756c-1.991,6.808,6.192,11.394,11.402,13.166
				c5.694,1.938,14.858,2.948,18.715-2.883c0.366-0.554,0.625-1.224,0.768-1.867c0.115-0.519-0.306-0.875-0.798-0.797
				c-0.168,0.025-0.336,0.053-0.504,0.078c-0.543,0.086-0.543,1.008,0,1.092c0.168,0.027,0.336,0.054,0.504,0.08
				c-0.129-0.317-0.258-0.635-0.388-0.952c-2.802,5.8-10.079,5.563-15.53,4.296c-4.936-1.148-12.867-4.496-12.911-10.583
				c-0.025-3.327,3.031-5.847,6.007-6.546c3.212-0.756,6.724,0.227,9.711,1.388c3.219,1.252,6.245,3.198,8.749,5.567
				c2.017,1.908,2.72,3.908,3.826,6.312C196.882,395.414,197.092,395.372,197.174,395.257L197.174,395.257z"/>
		</g>
	</g>
	<g>
		<g>
			<path fill="none" stroke="#000000" stroke-miterlimit="10" d="M200.716,419.002c-4.039-8.676-11.587-14.969-21.449-13.783
				c-6.596,0.794-13.994,5.01-9.805,12.433c1.224,2.169,4.381,3.487,6.542,4.37c3.588,1.463,7.362,2.384,11.211,2.808
				c4.063,0.448,14.469,0.019,12.925-6.688c-0.124-0.534-0.895-0.493-1.04,0c-0.657,2.242-1.518,3.604-3.808,4.424
				c-2.541,0.908-5.437,0.773-8.077,0.518c-5.2-0.506-11.675-2.051-15.693-5.608c-2.385-2.111-2.322-5.595-0.08-7.681
				c2.257-2.101,5.859-2.812,8.817-3.106c3.615-0.36,6.96,0.328,10.111,2.185c4.229,2.491,6.63,6.816,9.207,10.8
				C200.044,420.393,201.072,419.767,200.716,419.002L200.716,419.002z"/>
		</g>
	</g>
	<g>
		<g>
			<path fill="none" stroke="#000000" stroke-miterlimit="10" d="M202.485,444.337c-2.46-2.896-5.26-5.667-7.986-8.318
				c-3.02-2.937-6.519-5.692-10.724-6.585c-5.509-1.168-15.229,3.489-14.19,10.214c0.823,5.327,8.686,7.706,13.001,8.761
				c5.135,1.255,12.537,2.374,17.308-0.625c1.152-0.726,1.983-1.809,1.898-3.211c-0.033-0.546-0.827-0.866-1.106-0.3
				c-2.117,4.296-9.042,3.646-12.938,3.233c-5.115-0.543-12.404-2.05-15.746-6.397c-1.493-1.942-0.864-4.089,0.609-5.829
				c3.026-3.571,7.726-5.292,12.234-3.939c3.997,1.2,7.255,4.419,10.115,7.307c2.057,2.076,4.31,5.329,7.202,6.246
				C202.502,444.999,202.686,444.573,202.485,444.337L202.485,444.337z"/>
		</g>
	</g>
	<g>
		<g>
			<path fill="none" stroke="#000000" stroke-miterlimit="10" d="M203.836,470.858c-0.049-3.2-2.955-6.109-5.143-8.126
				c-3.071-2.831-6.771-5.009-10.688-6.438c-6.299-2.299-15.178-1.032-15.773,7.2c-0.465,6.427,9.367,8.95,13.995,9.771
				c3.583,0.636,7.265,0.773,10.87,0.258c2.208-0.316,5.611-1.131,6.631-3.418c0.094-0.211,0.163-0.424,0.225-0.646
				c0.216-0.774-0.81-1.126-1.235-0.521c-2.857,4.061-10.139,3.397-14.371,2.904c-4.505-0.524-13.001-2.144-14.427-7.38
				c-0.797-2.927,2.046-6.222,4.56-7.226c3.059-1.222,6.641-0.339,9.599,0.734c6.167,2.24,12.191,6.855,14.707,13.025
				C203,471.527,203.846,471.507,203.836,470.858L203.836,470.858z"/>
		</g>
	</g>
	<g>
		<g>
			<path fill="none" stroke="#000000" stroke-miterlimit="10" d="M295.029,186.151c0.521-0.496,1.189-0.781,1.729-1.392
				c0.97-1.1,2.013-2.135,3.058-3.162c2.688-2.644,5.502-5.164,8.313-7.673c2.855-2.549,5.742-5.062,8.622-7.583
				c2.49-2.18,5.247-4.271,7.446-6.751c0.503-0.567-0.185-1.62-0.856-1.11c-5.724,4.332-10.999,9.524-16.375,14.281
				c-2.823,2.5-5.62,5.032-8.311,7.676c-1.046,1.028-2.065,2.083-3.042,3.177c-0.654,0.732-0.743,1.342-1.137,2.112
				C294.298,186.079,294.732,186.434,295.029,186.151L295.029,186.151z"/>
		</g>
	</g>
	<g>
		<g>
			<path fill="none" stroke="#000000" stroke-miterlimit="10" d="M296.664,189.887c-0.691,0.7-1.295,1.347-2.207,1.769
				c-0.484,0.224-0.387,1.092,0.152,1.175c2.283,0.355,5.265-3.018,6.869-4.406c3.076-2.661,5.879-5.629,8.618-8.63
				c5.39-5.9,10.604-11.874,16.253-17.528c0.724-0.724-0.339-1.722-1.1-1.1c-5.496,4.497-10.005,10.304-14.709,15.587
				c-2.54,2.853-5.146,5.639-7.889,8.301c-1.34,1.303-2.737,2.54-4.166,3.745c-1.021,0.861-2.506,2.577-3.877,2.79
				c0.209,0.358,0.416,0.717,0.625,1.075c0.816-0.71,1.275-1.546,1.918-2.4C297.372,189.977,296.907,189.641,296.664,189.887
				L296.664,189.887z"/>
		</g>
	</g>
	<g>
		<g>
			<path fill="none" stroke="#000000" stroke-miterlimit="10" d="M331.982,145.42c0.001-0.011,0.001-0.021,0.002-0.032
				c0.017-0.331-0.466-0.559-0.688-0.284c-0.06,0.074-0.095,0.138-0.122,0.229c0.116-0.395-0.063-0.134-0.22,0.116
				c-0.349,0.556-0.313,1.394-0.388,2.029c-0.122,1.008-0.246,2.014-0.342,3.024c-0.067,0.727-0.284,1.668-0.036,2.373
				c0.088,0.25,0.393,0.351,0.594,0.157c0.936-0.902,1.015-3.038,1.158-4.246c0.095-0.801,0.187-1.604,0.271-2.406
				c0.029-0.272,0.037-0.513-0.052-0.774c-0.031-0.112-0.088-0.209-0.17-0.291c-0.276-0.276,0.027,0.098-0.063,0.275
				c-0.244-0.032-0.489-0.064-0.732-0.096c0.001,0.011,0.003,0.021,0.005,0.031C331.273,145.99,331.961,145.846,331.982,145.42
				L331.982,145.42z"/>
		</g>
	</g>
	<g>
		<g>
			<path fill="none" stroke="#000000" stroke-miterlimit="10" d="M324.229,142.043c3.078,6.593,15.802,4.699,14.369-3.461
				c-0.551-3.144-4.362-4.937-7-5.89c-3.436-1.241-7.643-1.67-11.12-0.378c-4.347,1.616-4.058,5.714-2.747,9.457
				c0.617,1.767,1.201,3.503,0.917,5.405c-0.226,1.493-1.076,2.888-1.695,4.245c-0.947,2.072-1.038,3.797-0.147,5.869
				c3.388,7.881,15.777,10.703,23.039,7.342c4.509-2.087,9.926-7.167,10.347-12.376c0.065-0.828-1.25-0.988-1.436-0.194
				c-1.104,4.738-5.118,8.542-9.229,10.861c-3.609,2.036-8.157,1.647-12,0.589c-4.026-1.109-8.313-3.685-9.827-7.769
				c-0.835-2.255,1.121-4.829,1.938-6.855c0.915-2.273,0.578-4.547-0.153-6.807c-0.759-2.342-2.161-5.135-0.163-7.251
				c1.066-1.129,2.84-1.495,4.314-1.66c3.379-0.377,7.019,0.474,10.002,2.049c3.391,1.789,4.754,5.145,1.605,8.089
				c-3.011,2.817-7.758,0.452-10.067-1.991C324.677,140.788,323.954,141.455,324.229,142.043L324.229,142.043z"/>
		</g>
	</g>
	<g>
		<g>
			<path fill="none" stroke="#000000" stroke-miterlimit="10" d="M325.606,131.659c-0.651-3.745,2.047-7.058,5.052-8.873
				c3.563-2.152,7.44-1.049,9.559,2.426c1.609,2.64,1.664,6.102,1.066,9.041c-0.297,1.458-0.859,2.831-1.587,4.123
				c-0.685,1.215-2.125,1.953-2.673,3.162c-0.124,0.273,0.021,0.59,0.344,0.6c3.303,0.094,5.232-6.06,5.651-8.506
				c0.659-3.843-0.124-7.993-2.73-10.965c-2.909-3.316-7.412-2.972-10.899-0.866c-3.285,1.983-6.404,6.313-4.41,10.123
				C325.171,132.292,325.67,132.021,325.606,131.659L325.606,131.659z"/>
		</g>
	</g>
	<g>
		<g>
			<path fill="none" stroke="#000000" stroke-miterlimit="10" d="M332.545,132.756c-0.453-1.73,2.15-2.206,2.611-3.519
				c0.079-0.226-0.088-0.471-0.304-0.533c-1.145-0.332-2.321,0.797-3.021,1.596c-0.718,0.82-0.996,1.791-0.575,2.812
				C331.575,133.885,332.77,133.613,332.545,132.756L332.545,132.756z"/>
		</g>
	</g>
	<g>
		<g>
			<path fill="none" stroke="#000000" stroke-miterlimit="10" d="M336.825,141.59c-0.847,3.572,2.223,6.325,5.666,5.842
				c4.288-0.602,7.688-3.848,9.064-7.849c1.327-3.854,0.24-9.241-3.208-11.701c-3.536-2.523-8.256-0.4-9.256,3.764
				c-0.092,0.385,0.364,0.648,0.653,0.38c2.396-2.225,4.639-5.446,8.028-2.626c2.567,2.136,3.058,6.067,2.367,9.123
				c-0.719,3.185-3.295,5.719-6.275,6.873c-1.262,0.488-2.735,0.66-3.988,0.071c-1.491-0.701-1.549-2.514-1.969-3.877
				C337.752,141.078,336.958,141.029,336.825,141.59L336.825,141.59z"/>
		</g>
	</g>
	<g>
		<g>
			<path fill="none" stroke="#000000" stroke-miterlimit="10" d="M344.302,146.88c-0.402,2.29,0.377,4.893,3.17,4.444
				c2.792-0.449,5.158-3.5,6.688-5.619c1.653-2.29,3.27-5.288,2.855-8.204c-0.421-2.971-4.492-3.766-6.744-2.481
				c-0.347,0.197-0.297,0.782,0.112,0.871c1.781,0.387,4.851-0.369,5.071,2.247c0.185,2.184-1.217,4.473-2.369,6.211
				c-1.266,1.91-2.925,3.803-4.925,4.966c-2.125,1.235-2.628-0.6-3.008-2.435C345.067,146.464,344.378,146.45,344.302,146.88
				L344.302,146.88z"/>
		</g>
	</g>
	<g>
		<g>
			<path fill="none" stroke="#000000" stroke-miterlimit="10" d="M349.015,149.503c-0.669,1.962,0.317,4.215,2.397,4.734
				c2.04,0.508,4.214-0.743,5.626-2.102c1.85-1.78,2.627-4.291,2.288-6.802c-0.188-1.39-0.938-3.163-1.938-4.162
				c-1.111-1.112-2.553,0.56-3.057,1.396c-0.168,0.279,0.046,0.687,0.385,0.67c0.834-0.042,1.255-0.652,2.104-0.693
				c-0.231-0.133-0.463-0.266-0.694-0.398c2.288,3.105,2.232,6.8-0.788,9.371c-0.916,0.78-2.283,1.439-3.515,1.229
				c-1.542-0.262-1.61-2.033-1.92-3.242C349.785,149.04,349.156,149.089,349.015,149.503L349.015,149.503z"/>
		</g>
	</g>
	<g>
		<g>
			<path fill="none" stroke="#000000" stroke-miterlimit="10" d="M153.238,290.56c0.277,0.98-3.401,3.544-4.021,4.016
				c-2.58,1.96-5.369,3.656-8.175,5.267c-2.966,1.704-6.021,3.263-9.152,4.642c-2.132,0.938-4.586,1.389-6.63,2.473
				c-0.358,0.189-0.258,0.73,0.109,0.835c2.252,0.646,5.303-1.118,7.293-1.987c3.642-1.59,7.154-3.494,10.567-5.521
				c2.934-1.743,5.828-3.625,8.4-5.876c1.168-1.022,2.631-2.336,1.83-3.939C153.397,290.342,153.201,290.429,153.238,290.56
				L153.238,290.56z"/>
		</g>
	</g>
	<g>
		<g>
			<path fill="none" stroke="#000000" stroke-miterlimit="10" d="M121.988,311.76c3.135,4.398,11.344,0.535,15.019-1.053
				c3.726-1.609,7.305-3.605,10.685-5.848c2.304-1.528,5.016-3.363,6.54-5.716c0.212-0.327-0.225-0.805-0.556-0.556
				c-4.734,3.562-9.531,6.802-14.858,9.445c-3.029,1.504-6.201,2.799-9.495,3.589c-2.004,0.48-4.986,0.908-6.784-0.413
				C122.217,310.973,121.759,311.438,121.988,311.76L121.988,311.76z"/>
		</g>
	</g>
	<g>
		<g>
			<path fill="none" stroke="#000000" stroke-miterlimit="10" d="M108.163,301.042c0.125,3.265-1.238,7.044-3.985,8.962
				c-2.463,1.721-5.076-0.197-5.89-2.669c-0.926-2.812-0.242-6.062,0.529-8.817c0.645-2.309,1.951-4.635,3.737-6.26
				c1.568-1.426,3.57-0.304,5.082,0.576c3.705,2.155,7.502,4.364,11.07,6.742c3.656,2.438,6.109,5.678,6.607,10.121
				c0.489,4.359-0.597,8.313-2.803,12.029c-2.118,3.567-5.481,6.635-9.201,8.445c-4.21,2.051-8.141,0.697-10.947-2.848
				c-0.527-0.666-1.681,0.225-1.178,0.908c6.001,8.162,15.026,3.223,20.285-2.979c5.539-6.529,8.178-16.391,2.237-23.586
				c-2.928-3.546-7.523-5.605-11.419-7.855c-2.935-1.695-6.44-5.217-10.067-3.352c-4.19,2.155-5.643,8.686-5.939,12.879
				c-0.273,3.872,1.476,9.563,6.429,8.807c4.268-0.651,8.17-7.342,6.392-11.36C108.895,300.321,108.144,300.564,108.163,301.042
				L108.163,301.042z"/>
		</g>
	</g>
	<g>
		<g>
			<path fill="none" stroke="#000000" stroke-miterlimit="10" d="M106.126,307.877c0.013,0.9-0.22,1.446,0.266,2.344
				c0.51,0.941,1.19,1.764,2.043,2.416c1.747,1.338,5.1,3.135,7.258,1.877c0.255-0.149,0.234-0.502,0-0.654
				c-0.703-0.463-1.459-0.543-2.275-0.725c-1.181-0.262-2.279-0.738-3.312-1.361c-1.149-0.69-2.965-2.434-3.105-3.896
				C106.948,307.326,106.118,307.305,106.126,307.877L106.126,307.877z"/>
		</g>
	</g>
	<g>
		<g>
			<path fill="none" stroke="#000000" stroke-miterlimit="10" d="M99.89,293.098c-3.59-0.648-7.221-1.756-10.88-0.994
				c-3.36,0.7-5.585,3.819-5.995,7.07c-0.838,6.658,8.166,11.131,13.56,11.618c1.055,0.095,1.018-1.502,0-1.625
				c-4.841-0.586-11.701-3.887-12.017-9.451c-0.226-3.989,3.601-6.312,7.102-6.411c2.71-0.077,5.375,0.787,8.069,0.983
				C100.407,294.336,100.561,293.219,99.89,293.098L99.89,293.098z"/>
		</g>
	</g>
	<g>
		<g>
			<path fill="none" stroke="#000000" stroke-miterlimit="10" d="M89.829,301.893c-0.105,0.041,0.338,0.197,0.441,0.191
				c0.35-0.021,0.701-0.039,1.051-0.055c0.892-0.041,1.782-0.1,2.675-0.123c0.488-0.014,3.459,0.251,3.03-0.989
				c-0.411-1.188-2.794-0.695-3.721-0.66c-0.834,0.032-1.663,0.095-2.483,0.255c-0.292,0.057-0.639,0.133-0.9,0.285
				c-0.164,0.096-0.233,0.424-0.352,0.479C89.226,301.436,89.475,302.031,89.829,301.893L89.829,301.893z"/>
		</g>
	</g>
	<g>
		<g>
			<path fill="none" stroke="#000000" stroke-miterlimit="10" d="M85.533,304.417c-1.176-0.128-2.397,0.933-3.018,1.825
				c-1.379,1.986-1.598,4.195-0.73,6.451c1.271,3.304,4.725,5.06,8.01,5.693c3.012,0.582,6.858,0.331,9.349-1.662
				c2.173-1.738,2.665-5.162,0.454-7.142c-0.41-0.367-1.08-0.017-0.934,0.543c0.577,2.205,1.526,3.959-0.758,5.547
				c-1.855,1.29-4.402,1.431-6.577,1.292c-2.524-0.16-5.066-1.125-6.86-2.931c-2.399-2.416-2.212-7.552,1.218-9.052
				C85.998,304.85,85.795,304.445,85.533,304.417L85.533,304.417z"/>
		</g>
	</g>
	<g>
		<g>
			<path fill="none" stroke="#000000" stroke-miterlimit="10" d="M84.613,314.762c-0.756-0.166-1.163-0.269-1.883-0.65
				c-0.259-0.137-0.637-0.135-0.842,0.109c-5.306,6.293,4.009,12.008,9.907,11.229c2.855-0.377,6.026-2.478,7.272-5.108
				c1.045-2.205-0.998-3.979-3.161-3.518c-0.442,0.094-0.537,0.773-0.128,0.978c0.559,0.277,1.599,0.454,1.969,0.946
				c0.523,0.695-0.905,2.054-1.281,2.434c-1.454,1.469-3.603,2.571-5.675,2.682c-4.251,0.224-11.803-3.811-7.921-8.66
				c-0.281,0.036-0.561,0.072-0.842,0.107c0.95,0.424,1.555,0.601,2.584,0.4C85.091,315.618,85.077,314.864,84.613,314.762
				L84.613,314.762z"/>
		</g>
	</g>
	<g>
		<g>
			<path fill="none" stroke="#000000" stroke-miterlimit="10" d="M84.207,323.047c-0.627,3.03,0.018,5.557,2.612,7.589
				c2.905,2.276,6.832,3.55,10.481,2.702c3.298-0.766,4.954-4.003,4.866-7.156c-0.066-2.354-1.843-4.738-4.333-3.604
				c-0.604,0.274-0.265,1.166,0.319,1.18c2.672,0.063,2.668,2.769,2.096,4.804c-0.826,2.938-4.035,3.67-6.687,3.283
				c-2.385-0.346-4.689-1.583-6.51-3.124c-1.221-1.032-2.42-3.919-2.284-5.596C84.793,322.802,84.272,322.734,84.207,323.047
				L84.207,323.047z"/>
		</g>
	</g>
	<g>
		<g>
			<path fill="none" stroke="#000000" stroke-miterlimit="10" d="M158.43,448.64c-2.244,0.568-4.119,1.845-5.51,3.698
				c-1.25,1.668-3.404,4.759-3.118,6.954c0.045,0.346,0.398,0.526,0.68,0.282c1.366-1.187,1.855-3.655,2.78-5.224
				c1.268-2.15,3.097-3.75,5.533-4.386C159.653,449.742,159.29,448.422,158.43,448.64L158.43,448.64z"/>
		</g>
	</g>
	<g>
		<g>
			<path fill="none" stroke="#000000" stroke-miterlimit="10" d="M145.779,457.499c1.068-0.846,1.611-2.197,2.281-3.36
				c0.918-1.596,1.914-3.142,2.988-4.636c1.216-1.693,2.636-3.228,4.172-4.632c1.488-1.359,3.447-2.163,4.819-3.604
				c0.394-0.413-0.011-0.967-0.517-0.889c-3.489,0.543-6.977,4.535-9.013,7.188c-1.272,1.657-2.405,3.397-3.466,5.196
				c-0.808,1.369-1.857,2.817-2.012,4.429C144.991,457.615,145.517,457.706,145.779,457.499L145.779,457.499z"/>
		</g>
	</g>
	<g>
		<g>
			<path fill="none" stroke="#000000" stroke-miterlimit="10" d="M142.475,455.45c1.081,1.321,3.897,1.805,5.428,2.301
				c2.544,0.824,5.382,1.61,8.081,1.314c1.035-0.113,1.075-1.721,0-1.648c-2.831,0.188-5.573-0.582-8.247-1.435
				c-1.43-0.456-3.498-1.733-5.034-1.395C142.291,454.68,142.247,455.172,142.475,455.45L142.475,455.45z"/>
		</g>
	</g>
	<g>
		<g>
			<path fill="none" stroke="#000000" stroke-miterlimit="10" d="M142.625,454.719c-1.839,1.301-3.41,2.777-5.437,3.834
				c-2.626,1.369-5.668,2.206-8.602,2.557c-3.453,0.412-6.588-0.164-9.974-0.836c-3.567-0.709-12.776-2.667-12.246,3.751
				c0.063,0.757,1.283,1.049,1.419,0.191c0.521-3.273,2.92-3.424,5.841-3.183c3.209,0.265,6.346,1.14,9.542,1.519
				c3.436,0.407,6.841-0.261,10.155-1.18c3.449-0.956,7.981-2.85,9.883-6.071C143.414,454.951,142.985,454.464,142.625,454.719
				L142.625,454.719z"/>
		</g>
	</g>
	<g>
		<g>
			<path fill="none" stroke="#000000" stroke-miterlimit="10" d="M154.311,457.715c-0.524,4.706-0.795,9.373-1.709,14.04
				c-0.876,4.477-2.033,9.614-5.422,12.906c-0.373,0.362,0.008,1.146,0.54,0.928c3.938-1.63,5.137-7.985,5.986-11.612
				c1.19-5.079,2.371-11.021,1.848-16.262C155.473,456.912,154.399,456.92,154.311,457.715L154.311,457.715z"/>
		</g>
	</g>
	<g>
		<g>
			<path fill="none" stroke="#000000" stroke-miterlimit="10" d="M109.33,460.643c-1.501,2.599,2.527,6.229,4.223,7.615
				c3.762,3.079,8.304,5.186,12.785,6.982c4.963,1.991,10.198,3.471,15.489,4.26c2.922,0.438,7.713,1.266,10.296-0.691
				c0.583-0.439,0.273-1.478-0.527-1.249c-7.52,2.145-16.183-0.691-23.265-3.271c-4.347-1.584-8.611-3.547-12.436-6.167
				c-1.507-1.032-2.896-2.235-4.061-3.646c-0.988-1.195-1.055-2.544-1.729-3.833C109.948,460.341,109.493,460.36,109.33,460.643
				L109.33,460.643z"/>
		</g>
	</g>
	<g>
		<g>
			<path fill="none" stroke="#000000" stroke-miterlimit="10" d="M106.789,463.848c-1.551,2.442,2.437,6.479,3.951,7.956
				c3.642,3.557,8.183,6.245,12.708,8.505c4.477,2.235,9.244,4.059,14.155,5.054c2.857,0.578,7.559,1.395,9.93-0.872
				c0.477-0.456-0.01-1.394-0.669-1.149c-7.276,2.69-16.071-1.247-22.595-4.436c-4.047-1.979-7.973-4.351-11.399-7.286
				c-1.424-1.22-2.758-2.591-3.809-4.148c-0.756-1.122-0.914-2.566-1.671-3.622C107.237,463.636,106.938,463.614,106.789,463.848
				L106.789,463.848z"/>
		</g>
	</g>
	<g>
		<g>
			<path fill="none" stroke="#000000" stroke-miterlimit="10" d="M146.138,484.003c-0.004,0.057-0.008,0.113-0.012,0.17
				c0.039-0.094,0.078-0.188,0.117-0.282c-0.465,0.452-0.362,1.176,0.042,1.657c0.324,0.387,0.928,0.573,1.389,0.304
				c0.525-0.308,0.535-1.136-0.098-1.31c-0.131-0.036-0.325-0.041-0.456-0.003c0.112-0.032,0.335,0.195,0.167,0.007
				c-0.081-0.09-0.063-0.111-0.102-0.235c-0.076-0.245-0.249-0.356-0.458-0.481c0.066,0.115,0.132,0.229,0.198,0.345
				c-0.007-0.057-0.014-0.113-0.021-0.17C146.843,483.521,146.172,483.5,146.138,484.003L146.138,484.003z"/>
		</g>
	</g>
	<g>
		<g>
			<path fill="none" stroke="#000000" stroke-miterlimit="10" d="M111.481,467.326c3.121-0.703,5.57-4.44,5.751-7.508
				c0.048-0.817-1.08-0.854-1.335-0.182c-0.479,1.262-0.826,2.493-1.549,3.651c-0.842,1.346-2.044,2.048-3.407,2.76
				C110.213,466.43,110.732,467.495,111.481,467.326L111.481,467.326z"/>
		</g>
	</g>
	<g>
		<g>
			<path fill="none" stroke="#000000" stroke-miterlimit="10" d="M119.335,462.479c0.188-0.039,0.146-0.062-0.125-0.065
				c-0.108-0.188-0.216-0.376-0.324-0.564c0.002,0.072,0.011,0.146,0.027,0.217c0.003,0.014,0.26,0.409,0.163,0.271
				c-0.029-0.041-0.067,0.387-0.079,0.468c-0.101,0.649-0.353,1.264-0.455,1.909c-0.119,0.75,0.925,1.348,1.321,0.559
				c0.5-0.996,1.248-3.202,0.103-4.016c-0.265-0.188-0.649-0.096-0.868,0.111c0.236-0.128,0.278-0.162,0.126-0.102
				c-0.116,0.042-0.227,0.095-0.333,0.156C118.328,461.75,118.7,462.669,119.335,462.479L119.335,462.479z"/>
		</g>
	</g>
	<g>
		<g>
			<path fill="none" stroke="#000000" stroke-miterlimit="10" d="M121.637,462.446c-0.098,1.122-0.09,2.213-0.472,3.288
				c-0.334,0.939,1.101,1.282,1.466,0.402c0.469-1.131,0.509-2.485,0.405-3.69C122.958,461.546,121.715,461.546,121.637,462.446
				L121.637,462.446z"/>
		</g>
	</g>
	<g>
		<g>
			<path fill="none" stroke="#000000" stroke-miterlimit="10" d="M125.458,462.446c-0.098,1.063-0.204,2.241-0.508,3.27
				c-0.156,0.526-0.817,1.586,0.018,1.85c0.843,0.266,1.356-1.137,1.512-1.697c0.322-1.157,0.201-2.262,0.095-3.421
				C126.509,461.727,125.524,461.728,125.458,462.446L125.458,462.446z"/>
		</g>
	</g>
	<g>
		<g>
			<path fill="none" stroke="#000000" stroke-miterlimit="10" d="M130.115,463.217c0.014-0.041,0.039-0.073,0.073-0.096
				c-0.206,0.027-0.412,0.054-0.618,0.08c0.233,0.14-0.116-0.116-0.129-0.26c0.011,0.117,0.02,0.232,0.047,0.35
				c0.048,0.205,0.078,0.416,0.113,0.624c0.081,0.486,0.206,1.011,0.442,1.446c0.412,0.759,1.65,0.239,1.393-0.587
				c-0.164-0.527-0.312-1.057-0.465-1.588c-0.131-0.456-0.338-0.959-0.83-1.119c-0.433-0.144-0.775,0.228-0.817,0.622
				c0.031-0.298-0.058,0.063-0.096,0.153C129.011,463.379,129.826,463.646,130.115,463.217L130.115,463.217z"/>
		</g>
	</g>
	<g>
		<g>
			<path fill="none" stroke="#000000" stroke-miterlimit="10" d="M133.266,461.571c0.476,1.136,0.804,2.2,1.028,3.411
				c0.039,0.211,0.262,0.438,0.475,0.476c0.129,0.021,0.232,0.025,0.361,0c0.307-0.061,0.481-0.369,0.499-0.656
				c0.085-1.34-0.494-2.609-1.156-3.738C134.105,460.436,132.97,460.865,133.266,461.571L133.266,461.571z"/>
		</g>
	</g>
	<g>
		<g>
			<path fill="none" stroke="#000000" stroke-miterlimit="10" d="M136.454,461.131c0.02-0.035,0.046-0.063,0.079-0.089
				c-0.22,0.028-0.439,0.057-0.659,0.085c0.093,0.044,0.184,0.097,0.286,0.111c-0.198-0.027-0.229-0.2-0.105,0.037
				c0.109,0.208,0.195,0.432,0.28,0.649c0.203,0.521,0.361,1.377,0.896,1.647c0.375,0.188,0.928,0.049,1.021-0.416
				c0.133-0.664-0.423-1.542-0.7-2.145c-0.23-0.5-0.636-1.122-1.261-1.103c-0.279,0.009-0.594,0.196-0.648,0.493
				c-0.013,0.069-0.059,0.138-0.087,0.203C135.294,461.214,136.07,461.696,136.454,461.131L136.454,461.131z"/>
		</g>
	</g>
	<g>
		<g>
			<path fill="none" stroke="#000000" stroke-miterlimit="10" d="M139.342,459.879c0.365,0.223,0.703,0.467,1.016,0.759
				c0.347,0.323,0.577,0.747,0.868,1.117c0.438,0.56,1.377-0.044,1.167-0.68c-0.402-1.222-1.389-1.96-2.527-2.438
				C139.134,458.329,138.71,459.492,139.342,459.879L139.342,459.879z"/>
		</g>
	</g>
	<g>
		<g>
			<path fill="none" stroke="#000000" stroke-miterlimit="10" d="M141.128,457.679c0.716,0.121,1.327,0.644,1.873,1.091
				c0.634,0.52,1.075,1.561,1.942,1.611c0.254,0.016,0.471-0.184,0.542-0.413c0.299-0.955-1.05-2.022-1.749-2.51
				c-0.729-0.508-1.574-0.852-2.474-0.776C140.73,456.726,140.526,457.577,141.128,457.679L141.128,457.679z"/>
		</g>
	</g>
	<g>
		<g>
			<path fill="none" stroke="#000000" stroke-miterlimit="10" d="M295.503,450.547c0.345,0.69,0.302,0.91,0.991,1.449
				c0.814,0.635,1.678,1.208,2.531,1.791c0.94,0.644,1.871,1.3,2.763,2.013c0.905,0.727,1.614,1.666,2.521,2.376
				c0.463,0.362,1.322,0.053,1.09-0.635c-0.646-1.907-2.664-3.22-4.239-4.338c-0.958-0.68-1.949-1.312-2.918-1.976
				c-0.371-0.255-0.731-0.523-1.091-0.797c-0.461-0.352-0.645-0.196-1.125-0.407C295.677,449.869,295.322,450.185,295.503,450.547
				L295.503,450.547z"/>
		</g>
	</g>
	<g>
		<g>
			<path fill="none" stroke="#000000" stroke-miterlimit="10" d="M295.551,441.373c2.657,1.415,4.938,2.604,7.057,4.837
				c1.134,1.196,2.066,2.563,2.899,3.978c0.773,1.314,1.006,2.945,1.899,4.151c0.275,0.372,0.992,0.425,1.1-0.144
				c0.553-2.938-2.438-6.549-4.201-8.634c-1.951-2.309-5.229-5.294-8.472-5.229C295.296,440.343,295.046,441.104,295.551,441.373
				L295.551,441.373z"/>
		</g>
	</g>
	<g>
		<g>
			<path fill="none" stroke="#000000" stroke-miterlimit="10" d="M300.898,458.568c0.135,0.07,0.511,0.163,0.578,0.239
				c0.181,0.202,0.482,0.254,0.734,0.193c2.271-0.548,4.264-2.354,6.004-3.824c1.161-0.979,4.266-3.147,3.902-4.966
				c-0.054-0.264-0.396-0.47-0.654-0.371c-0.816,0.314-1.319,1.143-1.903,1.758c-1.013,1.069-2.114,2.055-3.242,2.997
				c-1.138,0.951-2.343,1.797-3.628,2.532c-0.367,0.21-0.912,0.315-1.213,0.614c-0.371,0.372,0.084,0.295-0.194,0.172
				C300.846,457.722,300.46,458.333,300.898,458.568L300.898,458.568z"/>
		</g>
	</g>
	<g>
		<g>
			<path fill="none" stroke="#000000" stroke-miterlimit="10" d="M310.554,451.679c2.159-0.184,3.682-0.438,5.828,0.334
				c2.475,0.891,4.785,2.185,7.229,3.156c3.776,1.504,6.805,1.171,10.526-0.246c3.98-1.515,7.725-3.576,11.724-5.05
				c3.204-1.18,7.423-2.384,9.269,1.382c0.367,0.749,1.679,0.206,1.356-0.572c-3.29-7.954-15.02-0.396-19.856,1.77
				c-2.104,0.942-4.259,1.822-6.521,2.31c-2.755,0.594-5.313-0.571-7.757-1.728c-2.427-1.148-9.979-5.633-12.033-1.767
				C310.228,451.436,310.336,451.697,310.554,451.679L310.554,451.679z"/>
		</g>
	</g>
	<g>
		<g>
			<path fill="none" stroke="#000000" stroke-miterlimit="10" d="M311.26,478.87c8.731-1.592,16.928-6.649,24.154-11.561
				c3.646-2.477,7.104-5.177,10.588-7.869c3.511-2.715,7.391-5.192,10.636-8.219c0.41-0.383-0.114-1.027-0.587-0.761
				c-3.613,2.047-6.829,5.045-10.126,7.557c-3.444,2.627-6.966,5.183-10.528,7.646c-7.678,5.308-15.638,9.052-24.495,11.903
				C310.063,477.837,310.41,479.025,311.26,478.87L311.26,478.87z"/>
		</g>
	</g>
	<g>
		<g>
			<path fill="none" stroke="#000000" stroke-miterlimit="10" d="M301.802,458.042c-1.756,2.786,1.726,7.727,3.005,10.042
				c1.301,2.354,2.701,4.655,4.134,6.931c0.938,1.493,1.896,3.808,3.411,4.778c0.356,0.229,0.969-0.063,0.911-0.522
				c-0.175-1.412-1.271-2.633-2.014-3.813c-1.292-2.052-2.573-4.109-3.809-6.195c-1.228-2.069-2.393-4.181-3.431-6.352
				c-0.478-1-1.895-3.386-1.486-4.564C302.674,457.908,302.032,457.676,301.802,458.042L301.802,458.042z"/>
		</g>
	</g>
	<g>
		<g>
			<path fill="none" stroke="#000000" stroke-miterlimit="10" d="M311.221,478.52c-2.237,5.134,6.151,3.718,8.485,3.105
				c5.847-1.531,11.692-4.12,16.933-7.124c5.364-3.076,10.936-6.304,15.359-10.674c3.082-3.046,8.861-9.518,3.514-13.406
				c-0.423-0.307-1.04,0.305-0.728,0.729c1.583,2.135,2.086,3.866,0.869,6.367c-1.26,2.589-3.562,4.733-5.79,6.483
				c-4.243,3.33-8.661,6.261-13.406,8.828c-4.178,2.261-8.462,4.228-12.932,5.854c-2.301,0.838-11.089,4.551-11.476,0.063
				C312.018,478.354,311.416,478.072,311.221,478.52L311.221,478.52z"/>
		</g>
	</g>
	<g>
		<g>
			<path fill="none" stroke="#000000" stroke-miterlimit="10" d="M315.167,450.976c-0.21,0.077-0.413-0.037-0.616,0.101
				c-0.171,0.116-0.333,0.241-0.488,0.377c-0.263,0.229-0.45,0.562-0.577,0.883c-0.283,0.711-0.271,1.579,0.396,2.052
				c0.304,0.216,0.755-0.007,0.842-0.343c0.105-0.408-0.03-0.802,0.084-1.205c0.056-0.193,0.204-0.367,0.334-0.516
				c0.222-0.253,0.352-0.385,0.456-0.719c-0.07,0.093-0.144,0.187-0.215,0.278c0.043-0.03,0.086-0.063,0.129-0.094
				C315.888,451.515,315.676,450.788,315.167,450.976L315.167,450.976z"/>
		</g>
	</g>
	<g>
		<g>
			<path fill="none" stroke="#000000" stroke-miterlimit="10" d="M319.667,452.106c-1.323,1.116-3.149,3.489-2.12,5.298
				c0.163,0.287,0.566,0.264,0.734,0c0.479-0.747,0.481-1.685,0.833-2.497c0.316-0.734,0.754-1.476,1.254-2.101
				C320.766,452.311,320.162,451.688,319.667,452.106L319.667,452.106z"/>
		</g>
	</g>
	<g>
		<g>
			<path fill="none" stroke="#000000" stroke-miterlimit="10" d="M322.749,454.663c-0.735,0.646-1.42,1.842-0.781,2.784
				c0.501,0.739,1.608,0.102,1.199-0.7c-0.168-0.33,0.229-0.987,0.428-1.238C324.064,454.912,323.34,454.144,322.749,454.663
				L322.749,454.663z"/>
		</g>
	</g>
	<g>
		<g>
			<path fill="none" stroke="#000000" stroke-miterlimit="10" d="M326.235,456.138c-0.053,0.671-0.092,1.332-0.086,2.005
				c0.006,0.906,1.399,0.906,1.405,0c0.005-0.673-0.033-1.334-0.086-2.005C327.409,455.343,326.296,455.343,326.235,456.138
				L326.235,456.138z"/>
		</g>
	</g>
	<g>
		<g>
			<path fill="none" stroke="#000000" stroke-miterlimit="10" d="M330.535,455.612c-0.118,1.091-0.167,2.082,0.251,3.12
				c0.132,0.326,0.492,0.664,0.884,0.502c0.77-0.317,0.309-1.434,0.173-2.01c-0.124-0.53-0.201-1.068-0.261-1.612
				C331.508,454.939,330.608,454.938,330.535,455.612L330.535,455.612z"/>
		</g>
	</g>
	<g>
		<g>
			<path fill="none" stroke="#000000" stroke-miterlimit="10" d="M335.217,454.896c0.509,0.725,0.771,1.788,0.842,2.657
				c0.082,0.989,1.611,1.013,1.56,0c-0.063-1.188-0.411-2.654-1.357-3.463C335.721,453.631,334.756,454.24,335.217,454.896
				L335.217,454.896z"/>
		</g>
	</g>
	<g>
		<g>
			<path fill="none" stroke="#000000" stroke-miterlimit="10" d="M338.065,453.337c0.306,0.368,0.519,0.883,0.744,1.305
				c0.314,0.584,0.651,1.166,1.003,1.729c0.514,0.827,1.653,0.107,1.274-0.745c-0.521-1.173-1.373-2.148-2.314-2.995
				C338.287,452.193,337.657,452.845,338.065,453.337L338.065,453.337z"/>
		</g>
	</g>
	<g>
		<g>
			<path fill="none" stroke="#000000" stroke-miterlimit="10" d="M342.026,451.045c0.462,1.285,0.325,2.657,1.123,3.823
				c0.382,0.558,1.298,0.224,1.113-0.47c-0.345-1.301-0.425-2.636-1.103-3.832C342.82,449.964,341.784,450.372,342.026,451.045
				L342.026,451.045z"/>
		</g>
	</g>
	<g>
		<g>
			<path fill="none" stroke="#000000" stroke-miterlimit="10" d="M344.072,450.009c0.771,2.148,2.646,3.816,4.676,4.776
				c1.112,0.524,4.194,1.247,4.311-0.75c0.013-0.209-0.146-0.362-0.326-0.43c-0.396-0.147-0.745-0.107-1.147-0.002
				c-0.777,0.206-1.642-0.115-2.336-0.438c-1.679-0.78-2.86-2.229-3.934-3.681C344.892,448.913,343.791,449.227,344.072,450.009
				L344.072,450.009z"/>
		</g>
	</g>
	<g>
		<g>
			<path fill="none" stroke="#000000" stroke-miterlimit="10" d="M282.686,155.839c-2.986-4.139-12.785-4.266-17.218-4.853
				c-8.745-1.158-17.588-1.796-26.389-2.365c-21.742-1.404-47.878-0.001-67.03,11.443c-1.122,0.671,0.503,1.274,1.265,0.819
				c9.388-5.61,20.524-7.983,31.238-9.583c11.674-1.743,23.589-2,35.354-1.24c7.126,0.46,14.261,1.059,21.357,1.842
				c3.75,0.414,7.487,0.933,11.195,1.625c2.408,0.45,6.879,0.961,8.453,3.142C281.398,157.345,283.248,156.618,282.686,155.839
				L282.686,155.839z"/>
		</g>
	</g>
	<g>
		<g>
			<path fill="none" stroke="#000000" stroke-miterlimit="10" d="M171.774,158.617c-8.332,11.667-9.082,27.943-10.112,41.733
				c-1.419,19.011-2.426,37.972-2.361,57.043c0.057,16.414,0.288,32.966,1.805,49.319c1.362,14.683,3.955,30.804,13.093,42.853
				c0.44,0.58,2.301-0.107,1.786-0.787c-8.812-11.617-11.293-26.989-12.803-41.127c-1.784-16.7-1.841-33.693-1.941-50.468
				c-0.111-18.62,0.965-37.114,2.263-55.677c0.981-14.049,1.601-30.911,10.084-42.79
				C174.138,157.946,172.176,158.055,171.774,158.617L171.774,158.617z"/>
		</g>
	</g>
	<g>
		<g>
			<path fill="none" stroke="#000000" stroke-miterlimit="10" d="M281.217,156.813c2.159,0.383,3.251,9.265,3.584,10.846
				c1.284,6.098,2.241,12.268,3.188,18.425c2.313,15.047,3.999,29.979,4.677,45.219c0.917,20.601,0.538,41.375-0.867,61.949
				c-1.229,17.987-3.372,37.372-12.111,53.46c-0.465,0.856,1.482,0.692,1.813,0.09c8.826-16.247,10.918-35.618,12.238-53.767
				c1.55-21.317,1.724-42.847,0.773-64.191c-0.695-15.644-2.656-30.955-5.074-46.393c-0.983-6.287-2.025-12.579-3.472-18.778
				c-0.415-1.777-1.139-7.544-3.585-7.979C281.713,155.578,280.096,156.614,281.217,156.813L281.217,156.813z"/>
		</g>
	</g>
	<g>
		<g>
			<path fill="none" stroke="#000000" stroke-miterlimit="10" d="M195.901,368.848c4.399,3.955,11.635,4.518,17.228,5.119
				c7.286,0.785,15.216,0.986,22.387-0.773c1.176-0.289,0.894-1.31-0.272-1.022c-6.111,1.5-12.67,1.281-18.901,0.866
				c-5.756-0.383-14.103-0.871-18.65-4.961C197.162,367.6,195.346,368.348,195.901,368.848L195.901,368.848z"/>
		</g>
	</g>
	<g>
		<g>
			<path fill="none" stroke="#000000" stroke-miterlimit="10" d="M282.152,247.129c1.338-9.087-30.889-8.55-35.987-8.663
				c-11.365-0.253-22.668,0.676-33.925,2.184c-9.553,1.279-19.843,1.328-29.075,4.296c-8.316,2.674-12.464,7.458-13.096,16.332
				c-0.718,10.076,1.349,20.651,1.796,30.76c0.396,8.942,1.106,19.806,6.523,27.308c4.707,6.518,17.705,6.176,24.713,6.525
				c15.089,0.754,30.084-0.713,45.133-1.592c9.558-0.559,22.481-0.045,30.695-5.793c0.824-0.576-1.121-0.387-1.496-0.123
				c-5.093,3.564-12.645,3.82-18.634,4.359c-6.291,0.567-12.608,0.853-18.907,1.301c-12.722,0.91-25.397,1.597-38.145,0.853
				c-5.285-0.31-10.629-0.89-15.702-2.46c-5.074-1.57-7.333-5.391-9.009-10.186c-3.219-9.203-3.039-19.152-3.454-28.751
				c-0.441-10.193-5.046-24.023,1.649-33.01c3.564-4.783,11.15-5.819,16.604-6.646c4.788-0.726,9.635-0.958,14.438-1.56
				c21.385-2.677,43.674-5.015,65.05-0.523c2.638,0.554,9.486,1.823,8.916,5.705C280.159,247.996,282.078,247.636,282.152,247.129
				L282.152,247.129z"/>
		</g>
	</g>
	<g>
		<g>
			<path fill="none" stroke="#000000" stroke-miterlimit="10" d="M279.627,245.134c2.775,11.016,1.488,23.146,2.283,34.428
				c0.867,12.306,3.283,30.743-6.326,40.456c-0.827,0.836,1.063,0.955,1.58,0.432c8.963-9.061,7.645-24.897,6.994-36.557
				c-0.372-6.669-0.729-13.301-0.939-19.977c-0.199-6.319-0.105-13.129-1.66-19.298C281.363,243.84,279.43,244.351,279.627,245.134
				L279.627,245.134z"/>
		</g>
	</g>
</g>
<g>
	<g>
		<path fill="none" stroke="#000000" stroke-miterlimit="10" d="M30.577,101.338C15.673,92.63,10.5,132.199,13.041,140.349
			c3.286,10.541,14.979,21.708,26.308,14.882c10.019-6.036,10.848-21.694,7.951-31.823c-0.137-0.479-1.633,0.13-1.84,0.333
			c-2.756,2.695-5.703,5.19-8.583,7.75c-2.043,1.815-4.928,3.824-6.162,6.347c-0.141,0.289,1.666,0.148,1.905-0.342
			c1.186-2.424,4.043-4.394,6.005-6.153c2.87-2.573,5.826-5.054,8.583-7.75c-0.613,0.111-1.227,0.222-1.84,0.333
			c2.336,8.167,1.848,17.849-2.022,25.457c-3.827,7.523-12.443,8.632-19.019,3.936c-4.476-3.197-7.514-8.404-9.354-13.486
			c-2.416-6.671,2.948-44.167,13.784-37.836C29.236,102.275,30.824,101.483,30.577,101.338L30.577,101.338z"/>
	</g>
</g>
<g>
	<g>
		<path fill="none" stroke="#000000" stroke-miterlimit="10" d="M49.744,109.415c-2.636,1.401,0.069,8.381,0.56,10.312
			c1.498,5.899,3.535,11.645,5.064,17.532c0.161,0.621,2.064,0.125,1.932-0.518c-0.186-0.905-0.48-1.762-0.667-2.667
			c-0.126-0.615-2.066-0.134-1.932,0.518c0.186,0.905,0.48,1.762,0.667,2.667c0.644-0.172,1.288-0.345,1.932-0.518
			c-1.157-4.454-2.623-8.831-3.895-13.253c-0.4-1.391-4.264-12.622-2.481-13.57C52.071,109.308,50.333,109.101,49.744,109.415
			L49.744,109.415z"/>
	</g>
</g>
<g>
	<g>
		<path fill="none" stroke="#000000" stroke-miterlimit="10" d="M49.981,111.601c-0.393-5.958,2.921-10.812,7.655-14.138
			c3.703-2.602,1.207,2.325,0.425,3.941c-2.501,5.169-5.876,10.469-9.875,14.622c-0.66,0.686,0.444,1.137,1,1
			c6.02-1.482,11.803,2.569,17.785,2.732c5.358,0.146,8.71-2.571,10.958-7.298c0.484-1.019-1.471-1.062-1.855-0.253
			c-5.86,12.327-17.658,1.069-27.258,3.434c0.333,0.333,0.667,0.667,1,1c2.927-3.04,5.252-6.68,7.46-10.256
			c1.483-2.401,4.986-7.069,4.352-10.166c-0.452-2.206-3.148-0.965-4.367-0.276c-5.596,3.167-9.671,9.268-9.241,15.79
			C48.088,112.779,50.04,112.5,49.981,111.601L49.981,111.601z"/>
	</g>
</g>
<g>
	<g>
		<path fill="none" stroke="#000000" stroke-miterlimit="10" d="M73.368,85.925c0.29,7.958,9.15,24.809,18.528,15.122
			c3.31-3.419,1.542-9.888,0.489-13.814c-0.796-2.97-1.868-5.865-2.888-8.762c-0.598-1.701-2.002-4.385-1.526-6.242
			c0.203-0.792-1.755-0.512-1.94,0.209c-0.625,2.44,1.321,5.945,2.103,8.162c1.545,4.382,3.067,8.819,3.56,13.463
			c0.813,7.669-6.426,10.973-11.551,4.711c-2.837-3.467-4.678-8.879-4.842-13.366C75.273,84.701,73.338,85.113,73.368,85.925
			L73.368,85.925z"/>
	</g>
</g>
<g>
	<g>
		<path fill="none" stroke="#000000" stroke-miterlimit="10" d="M92.701,69.259c2.038,6.74,5.161,13.09,6.667,20
			c0.169,0.776,2.105,0.278,1.932-0.518c-1.506-6.91-4.629-13.26-6.667-20C94.397,67.964,92.47,68.495,92.701,69.259L92.701,69.259z
			"/>
	</g>
</g>
<g>
	<g>
		<path fill="none" stroke="#000000" stroke-miterlimit="10" d="M92.899,68.805c4.603,1.747,8.604,4.607,12.667,7.333
			c0.398,0.268,1.678-0.025,1.734-0.59c0.705-7.135,1.962-14.198,2.667-21.333c-0.644,0.126-1.288,0.251-1.932,0.377
			c3.78,7.476,3.042,17.716,8.736,24.122c0.454,0.51,2.3-0.19,1.793-0.761c-5.587-6.285-4.877-16.522-8.597-23.878
			c-0.294-0.583-1.868-0.273-1.932,0.377c-0.705,7.135-1.962,14.198-2.667,21.333c0.578-0.197,1.156-0.394,1.734-0.59
			c-4.063-2.726-8.064-5.586-12.667-7.333C93.843,67.637,92.087,68.497,92.899,68.805L92.899,68.805z"/>
	</g>
</g>
<g>
	<g>
		<path fill="none" stroke="#000000" stroke-miterlimit="10" d="M118.034,51.925c1.038,7.43,3.317,14.786,5.333,22
			c0.125,0.449,2.055-0.078,1.932-0.518c-2.016-7.214-4.295-14.57-5.333-22C119.91,51.009,117.963,51.417,118.034,51.925
			L118.034,51.925z"/>
	</g>
</g>
<g>
	<g>
		<path fill="none" stroke="#000000" stroke-miterlimit="10" d="M119.98,52.931c0.5-2.767,3.333-7.761,6.781-6.858
			c3.18,0.833,3.498,4.583,2.219,6.923c-1.143,2.093-3.148,3.756-5.021,5.168c-0.753,0.568-1.542,1.093-2.364,1.557
			c-0.257,0.145-0.522,0.274-0.792,0.393c0.726-0.319,0.428,1.126,1.009,0.517c0.843-0.885-1.012-1.235-1.623-0.594
			c-0.55,0.578-0.705,1.298,0.253,1.509c0.894,0.197,2.085-0.68,2.781-1.104c3.057-1.864,6.063-4.377,7.799-7.556
			c1.879-3.44-0.355-7.884-4.304-8.372c-4.405-0.545-8.026,4.834-8.698,8.555C117.842,54.056,119.82,53.816,119.98,52.931
			L119.98,52.931z"/>
	</g>
</g>
<g>
	<g>
		<path fill="none" stroke="#000000" stroke-miterlimit="10" d="M130.701,38.592c3.278,6.678,12.379,13.372,20.124,12.111
			c0.785-0.127,1.709-0.961,0.352-0.74c-6.922,1.126-15.68-6.057-18.543-11.889C132.391,37.583,130.536,38.256,130.701,38.592
			L130.701,38.592z"/>
	</g>
</g>
<g>
	<g>
		<path fill="none" stroke="#000000" stroke-miterlimit="10" d="M155.8,29.314c-10.164-1.7-11.797,20.52-12.734,26.501
			c-1.363,8.7-2.231,17.476-3.072,26.24c-0.501,5.223-0.249,11.438-1.943,16.46c-0.097,0.289,1.744,0.095,1.899-0.364
			c1.135-3.364,1.087-7.364,1.426-10.86c0.713-7.351,1.392-14.704,2.268-22.038c0.903-7.566,1.984-15.148,3.793-22.557
			c0.577-2.361,2.955-13.315,6.763-12.678C154.632,30.09,156.268,29.393,155.8,29.314L155.8,29.314z"/>
	</g>
</g>
<g>
	<g>
		<path fill="none" stroke="#000000" stroke-miterlimit="10" d="M191.371,34.465c-2.134,5.589-0.462,13.385-0.07,19.144
			c0.267,3.907,0.521,7.816,0.573,11.733c0.028,2.163,0.474,7.312-1.641,8.86c-0.867,0.635,1.078,0.597,1.534,0.263
			c3.852-2.82,1.978-13.05,1.754-16.924c-0.251-4.365-0.609-8.723-0.823-13.091c-0.161-3.276-0.599-7.112,0.598-10.248
			C193.52,33.619,191.602,33.858,191.371,34.465L191.371,34.465z"/>
	</g>
</g>
<g>
	<g>
		<path fill="none" stroke="#000000" stroke-miterlimit="10" d="M183.287,45.5c1.721-8.166,11.354-13.719,18.719-15.799
			c3.651-1.032,15.907,0.139,13.284,6.756c-1.836,4.631-8.584,7.657-12.674,9.731c-4.781,2.424-10.115,4.86-15.439,5.778
			c-0.776,0.134-1.718,0.943-0.354,0.735c1.178-0.179,1.759-0.433,2.926-0.725c1.135-0.284,0.963-0.902-0.166-0.62
			c-1.207,0.302-3.407,1.535-1.029,0.987c1.411-0.326,2.793-0.79,4.165-1.249c3.776-1.264,7.447-2.875,11.015-4.633
			c3.995-1.968,13.742-6.337,13.87-11.847c0.156-6.732-11.547-6.517-15.763-5.534c-7.906,1.843-18.66,8.214-20.46,16.753
			C181.283,46.292,183.185,45.984,183.287,45.5L183.287,45.5z"/>
	</g>
</g>
<g>
	<g>
		<path fill="none" stroke="#000000" stroke-miterlimit="10" d="M222.69,36.381c-3.927-0.056-2.151,4.226-1.63,6.76
			c1.777,8.649-0.49,19.474-2.365,27.958c0.648-0.066,1.295-0.133,1.943-0.199c0.151-1.145,0.441-2.206,0.667-3.333
			c0.169-0.845-1.793-0.551-1.943,0.199c-0.226,1.127-0.516,2.188-0.667,3.333c-0.118,0.893,1.785,0.518,1.943-0.199
			c1.318-5.96,2.126-11.943,2.488-18.037c0.061-1.022,0.511-15.222-1.15-15.245C222.795,37.63,224,36.4,222.69,36.381L222.69,36.381
			z"/>
	</g>
</g>
<g>
	<g>
		<path fill="none" stroke="#000000" stroke-miterlimit="10" d="M217.583,57.892c6.203-4.052,22.19-4.58,23.711-13.698
			c0.108-0.649-1.825-0.299-1.922,0.28c-1.412,8.479-16.92,9.026-22.955,12.968C215.328,58.153,217.037,58.248,217.583,57.892
			L217.583,57.892z"/>
	</g>
</g>
<g>
	<g>
		<path fill="none" stroke="#000000" stroke-miterlimit="10" d="M240.646,34.268c0.084-0.597,0.229-1.182,0.281-1.781
			c0.094-1.088-1.56-0.616-1.908-0.06c-1.08,1.724-0.237,5.383-0.16,7.359c0.142,3.503,0.326,7.003,0.449,10.507
			c0.219,6.225,0.393,12.72-1.289,18.773c-0.266,0.953,1.719,0.743,1.961-0.132c1.553-5.59,1.455-11.497,1.334-17.25
			c-0.064-3.036-0.223-6.07-0.362-9.103c-0.104-2.298-1.343-7.887-0.077-9.904c-0.637-0.02-1.271-0.04-1.907-0.06
			c-0.052,0.6-0.198,1.184-0.28,1.782C238.546,35.416,240.521,35.175,240.646,34.268L240.646,34.268z"/>
	</g>
</g>
<g>
	<g>
		<path fill="none" stroke="#000000" stroke-miterlimit="10" d="M257.033,41.917c-4.194,3.509-6.432,10.343-4.541,15.576
			c1.915,5.3,9.684,4.52,13.102,1.262c3.846-3.665,3.715-9.699,1.157-14.056c-3.071-5.234-9.039-4.172-13.052-0.782
			c-1.004,0.847,0.554,1.437,1.268,0.834c3.742-3.16,7.715-3.132,10.283,1.247c1.99,3.394,1.956,8.304-0.488,11.432
			c-3.262,4.172-9.714,3.044-10.803-2.098c-0.896-4.238,1.042-9.82,4.342-12.581C259.309,41.908,257.749,41.317,257.033,41.917
			L257.033,41.917z"/>
	</g>
</g>
<g>
	<g>
		<path fill="none" stroke="#000000" stroke-miterlimit="10" d="M275.367,41.122c-0.473,3.227-1.029,6.44-1.499,9.667
			c-0.353,2.414-1.077,5.369-0.501,7.803c0.158,0.667,2.094,0.167,1.932-0.518c-0.553-2.333,0.176-5.205,0.5-7.53
			c0.452-3.229,1.027-6.44,1.5-9.667C277.409,40.122,275.463,40.471,275.367,41.122L275.367,41.122z"/>
	</g>
</g>
<g>
	<g>
		<path fill="none" stroke="#000000" stroke-miterlimit="10" d="M275.096,43.11c3.502-2.475,10.061,7.563,12.269,9.499
			c2.526,2.217,5.577,2.237,7.86-0.29c0.508-0.563-1.41-0.384-1.781,0.027c-3.119,3.455-9.654-6.379-11.707-8.322
			c-2.416-2.289-5.317-3.148-8.164-1.136C272.712,43.497,274.661,43.417,275.096,43.11L275.096,43.11z"/>
	</g>
</g>
<g>
	<g>
		<path fill="none" stroke="#000000" stroke-miterlimit="10" d="M293.367,34.592c1.986,8.273,0.796,17.115-1.32,25.244
			c-0.107,0.415,1.78,0.145,1.906-0.34c2.131-8.187,3.346-17.096,1.346-25.422C295.195,33.647,293.259,34.141,293.367,34.592
			L293.367,34.592z"/>
	</g>
</g>
<g>
	<g>
		<path fill="none" stroke="#000000" stroke-miterlimit="10" d="M312.04,36.475c-4.656,8.058-1.239,18.938-4.667,27.333
			c-0.209,0.511,1.687,0.289,1.92-0.283c3.429-8.396,0.012-19.274,4.667-27.333C314.199,35.778,312.353,35.933,312.04,36.475
			L312.04,36.475z"/>
	</g>
</g>
<g>
	<g>
		<path fill="none" stroke="#000000" stroke-miterlimit="10" d="M309.081,38.393c4.669-3.101,19.021-7.223,20.953,0.866
			c0.116,0.486,2.053-0.009,1.932-0.518c-2.193-9.195-19.282-3.853-24.381-0.467C306.755,38.826,308.704,38.643,309.081,38.393
			L309.081,38.393z"/>
	</g>
</g>
<g>
	<g>
		<path fill="none" stroke="#000000" stroke-miterlimit="10" d="M308.891,50.287c4.626-0.524,18.394-3.584,20.478,2.305
			c0.275,0.781,2.197,0.232,1.932-0.518c-2.432-6.872-17.066-3.609-22.188-3.029C308.101,49.16,307.563,50.438,308.891,50.287
			L308.891,50.287z"/>
	</g>
</g>
<g>
	<g>
		<path fill="none" stroke="#000000" stroke-miterlimit="10" d="M304.868,65.355c11.511,1.686,26.011,7.167,35.082-3.202
			c0.068-0.079-1.528-0.065-1.9,0.36c-8.013,9.158-21.462,3.613-31.584,2.131C306.028,64.581,304.396,65.287,304.868,65.355
			L304.868,65.355z"/>
	</g>
</g>
</svg>
